<svg width="813" height="467" viewBox="0 0 813 467" fill="none" xmlns="http://www.w3.org/2000/svg">
<g opacity="0.17" clip-path="url(#clip0_1187_484)">
<path d="M480.071 445.432L518.489 293.742L566.762 259.816L657.923 276.779L713.33 465.942L640.934 425.781L480.071 445.432Z" fill="#71C6F0"/>
<path d="M329.492 299.262L363.441 450.953L305.341 425.066L243.688 431.33L181.119 467L190.974 304.611L232.056 265.366H283.023L329.492 299.262Z" fill="#71C6F0"/>
<path d="M226.699 132.611L224.035 39.5889L290.157 65.4761L236.526 71.7119L226.699 132.611Z" fill="#71C6F0"/>
<path d="M426.01 220.313C444.032 220.313 458.641 205.726 458.641 187.733C458.641 169.739 444.032 155.152 426.01 155.152C407.988 155.152 393.379 169.739 393.379 187.733C393.379 205.726 407.988 220.313 426.01 220.313Z" fill="#71C6F0"/>
<path d="M243.688 246.601C264.906 246.601 282.106 229.427 282.106 208.242C282.106 187.057 264.906 169.883 243.688 169.883C222.47 169.883 205.27 187.057 205.27 208.242C205.27 229.427 222.47 246.601 243.688 246.601Z" fill="#71C6F0"/>
<path d="M621.281 254.467C643.496 254.467 661.504 236.487 661.504 214.306C661.504 192.126 643.496 174.146 621.281 174.146C599.067 174.146 581.058 192.126 581.058 214.306C581.058 236.487 599.067 254.467 621.281 254.467Z" fill="#71C6F0"/>
<path d="M371.921 263.106L345.134 250.634L391.488 237.734L470.502 232.985L506.886 239.021L471.132 272.946L432.714 437.108L400.541 452.297L371.921 263.106Z" fill="#71C6F0"/>
<path d="M135.538 179.695L243.688 189.506L317.86 160.043L289.268 129.722L163.7 135.529L135.538 179.695Z" fill="#71C6F0"/>
<path d="M637.583 135.5L687.403 67.078L658.41 0L661.762 67.221L637.583 135.5Z" fill="#71C6F0"/>
<path d="M528.315 112.302L629.016 192.595L729.718 188.448L732.095 122.4L688.005 117.05L674.31 156.325L596.7 112.302L587.304 78.377L528.315 112.302Z" fill="#71C6F0"/>
<path d="M426.01 139.877L410.368 86.7294L458.613 53.4336L427.328 96.6553L426.01 139.877Z" fill="#71C6F0"/>
<path d="M362.696 149.803L426.01 171.8L491.989 174.775L471.734 145.769L388.938 135.071L362.696 149.803Z" fill="#71C6F0"/>
<path d="M155.535 306.985L0 403.869L166.336 319.686L155.535 306.985Z" fill="#71C6F0"/>
<path d="M749.514 311.562L813 129.036L735.677 308.301L749.514 311.562Z" fill="#71C6F0"/>
</g>
<defs>
<clipPath id="clip0_1187_484">
<rect width="813" height="467" fill="white"/>
</clipPath>
</defs>
</svg>
