<svg width="867" height="428" viewBox="0 0 867 428" fill="none" xmlns="http://www.w3.org/2000/svg">
<path d="M-16.7654 338.248L103.96 217.637C113.338 208.281 126.048 203.024 139.301 203.019H411.896C418.459 203.017 424.958 204.308 431.022 206.816C437.086 209.324 442.596 213.002 447.237 217.637L475.343 245.693C479.98 250.337 485.489 254.02 491.553 256.532C497.618 259.045 504.119 260.337 510.684 260.335H726.603C733.168 260.336 739.669 259.043 745.733 256.531C751.798 254.018 757.306 250.336 761.944 245.693L770.919 236.82" stroke="#71C6F0" stroke-opacity="0.89" stroke-width="8" stroke-miterlimit="10"/>
<path d="M-5.77341 52.6836L65.6508 143.292C68.0623 146.59 71.1963 149.294 74.8134 151.197C78.4306 153.101 82.4352 154.153 86.5215 154.274H247.759C251.845 154.15 255.848 153.096 259.465 151.193C263.082 149.29 266.216 146.588 268.63 143.292L285.234 122.21C287.643 118.908 290.776 116.199 294.393 114.292C298.011 112.385 302.016 111.329 306.105 111.205H433.81C437.899 111.325 441.906 112.38 445.524 114.287C449.142 116.195 452.274 118.905 454.681 122.21L459.945 128.882" stroke="#71C6F0" stroke-opacity="0.89" stroke-width="8" stroke-miterlimit="10"/>
<path d="M478.335 180.453C495.624 180.453 509.641 166.45 509.641 149.177C509.641 131.903 495.624 117.9 478.335 117.9C461.045 117.9 447.028 131.903 447.028 149.177C447.028 166.45 461.045 180.453 478.335 180.453Z" stroke="#71C6F0" stroke-opacity="0.89" stroke-width="8" stroke-miterlimit="10"/>
<path d="M788.056 247.895C805.346 247.895 819.362 233.892 819.362 216.618C819.362 199.345 805.346 185.342 788.056 185.342C770.766 185.342 756.75 199.345 756.75 216.618C756.75 233.892 770.766 247.895 788.056 247.895Z" stroke="#71C6F0" stroke-opacity="0.89" stroke-width="8" stroke-miterlimit="10"/>
<path d="M-16.7654 163.293L69.7322 76.8771C80.2061 66.4709 94.3832 60.6388 109.155 60.6597H364.102" stroke="#71C6F0" stroke-opacity="0.89" stroke-width="8" stroke-miterlimit="10" stroke-linecap="round"/>
<path d="M-16.7654 423.367L152.519 250.118C157.745 244.764 163.991 240.509 170.89 237.604C177.788 234.699 185.198 233.204 192.684 233.206H564.531" stroke="#71C6F0" stroke-opacity="0.89" stroke-width="8" stroke-miterlimit="10" stroke-linecap="round"/>
<path d="M459.741 9H-47" stroke="#71C6F0" stroke-opacity="0.89" stroke-width="8" stroke-miterlimit="10" stroke-linecap="round"/>
<path d="M-16.7654 203.019L103.264 322.911C115.401 335.031 131.858 341.839 149.018 341.839H343.278" stroke="#71C6F0" stroke-opacity="0.89" stroke-width="8" stroke-miterlimit="10" stroke-linecap="round"/>
</svg>
