<svg width="1088" height="403" viewBox="0 0 1088 403" fill="none" xmlns="http://www.w3.org/2000/svg">
<path d="M201.5 292C235.466 292 263 264.466 263 230.5C263 196.534 235.466 169 201.5 169C167.534 169 140 196.534 140 230.5C140 264.466 167.534 292 201.5 292Z" stroke="#71C6F0" stroke-opacity="0.68" stroke-width="3" stroke-miterlimit="10"/>
<path d="M277.504 383.598C328.645 383.598 370.104 342.169 370.104 291.064C370.104 239.96 328.645 198.531 277.504 198.531C226.362 198.531 184.904 239.96 184.904 291.064C184.904 342.169 226.362 383.598 277.504 383.598Z" stroke="#71C6F0" stroke-opacity="0.36" stroke-width="3" stroke-miterlimit="10"/>
<path d="M637.876 248.595C698.006 248.595 746.752 199.885 746.752 139.798C746.752 79.7104 698.006 31 637.876 31C577.745 31 529 79.7104 529 139.798C529 199.885 577.745 248.595 637.876 248.595Z" stroke="#71C6F0" stroke-opacity="0.58" stroke-width="3" stroke-miterlimit="10"/>
<path d="M569.7 276.484C607.292 276.484 637.766 246.032 637.766 208.468C637.766 170.903 607.292 140.451 569.7 140.451C532.109 140.451 501.635 170.903 501.635 208.468C501.635 246.032 532.109 276.484 569.7 276.484Z" stroke="#71C6F0" stroke-opacity="0.36" stroke-width="3" stroke-miterlimit="10"/>
<path d="M892 231C914.644 231 933 212.644 933 190C933 167.356 914.644 149 892 149C869.356 149 851 167.356 851 190C851 212.644 869.356 231 892 231Z" stroke="#71C6F0" stroke-opacity="0.65" stroke-width="3" stroke-miterlimit="10"/>
<path d="M942 291C975.689 291 1003 263.689 1003 230C1003 196.311 975.689 169 942 169C908.311 169 881 196.311 881 230C881 263.689 908.311 291 942 291Z" stroke="#71C6F0" stroke-opacity="0.36" stroke-width="3" stroke-miterlimit="10"/>
<circle cx="174" cy="219" r="11" fill="#71C6F0"/>
<circle cx="615.5" cy="72.5" r="16.5" fill="#71C6F0"/>
<circle cx="933.5" cy="267.5" r="8.5" fill="#71C6F0"/>
<circle cx="325.5" cy="258.5" r="19.5" fill="#71C6F0" fill-opacity="0.43"/>
</svg>
