<svg width="480" height="455" viewBox="0 0 480 455" fill="none" xmlns="http://www.w3.org/2000/svg">
<g clip-path="url(#clip0_291_646)">
<path d="M391.476 63.2363C391.476 98.1628 357.307 132.901 329.096 132.901C300.885 132.901 289.312 98.1561 289.312 63.2363C289.312 28.3165 312.183 0 340.394 0C368.605 0 391.476 28.3097 391.476 63.2363Z" fill="#002132"/>
<path d="M241.071 354.914C234.843 354.013 228.729 353.502 222.407 352.789L222.454 351.578C227.578 351.054 232.48 350.711 237.576 349.803L241.071 354.914Z" fill="#002132"/>
<path d="M244.915 356.958L245.386 357.651L244.565 357.496L244.915 356.958Z" fill="#002132"/>
<path d="M251.89 402.085C250.732 402.328 249.493 402.247 248.335 401.756C239.293 398.212 230.21 394.749 220.993 391.649L222.306 355.694C229.167 357.778 236.593 360.038 243.703 362.129C241.932 364.449 241.05 367.455 241.602 370.393C241.643 370.763 241.852 371.671 241.912 372.041C243.057 377.784 244.477 385.261 245.642 390.957C245.777 391.629 246.161 393.465 246.282 394.104C246.652 396.296 247.622 398.421 249.184 400.021C249.958 400.862 250.88 401.554 251.89 402.085Z" fill="#002132"/>
<path d="M264.44 353.024C269.786 354.632 275.004 355.573 280.465 356.824C273.819 356.958 267.181 357.187 260.542 357.496L264.44 353.024Z" fill="#002132"/>
<path d="M258.616 361.84C270.157 360.811 281.744 359.749 293.223 358.229C295.284 369.654 297.418 380.816 299.734 391.999C286.531 393.949 274.008 395.825 261.33 398.098C260.488 398.246 259.647 398.394 258.798 398.549C258.63 398.582 258.462 398.609 258.293 398.643C257.6 398.777 256.92 398.784 256.267 398.69C253.533 398.286 251.284 396.047 250.975 393.182C250.847 392.537 250.503 390.681 250.369 390.022C249.258 384.3 247.77 376.869 246.625 371.106L246.416 370.057L246.363 369.795C245.811 367.448 246.874 364.994 248.739 363.595C249.5 363.03 250.389 362.634 251.358 362.492C251.655 362.465 251.944 362.439 252.24 362.412C254.361 362.223 256.489 362.035 258.616 361.84Z" fill="#002132"/>
<path d="M220.879 394.756C229.039 398.589 237.32 402.126 245.636 405.582C247.177 406.268 248.881 406.82 250.591 406.8C253.695 406.894 256.684 405.482 258.731 403.222C258.879 403.202 259.021 403.175 259.169 403.141L267.888 401.326C279.502 398.851 290.981 396.135 301.97 393.499C299.653 381.334 297.142 369.156 294.557 357.254L294.429 356.656H293.776C290.517 356.669 287.265 356.703 284.02 356.756C277.671 354.033 270.944 350.953 264.414 348.788C263.68 348.539 262.825 348.734 262.286 349.353C262.266 349.373 256.893 355.533 254.94 357.772C253.52 357.846 252.099 357.927 250.679 358.007C249.494 358.148 248.376 358.505 247.346 359.043C247.218 359.009 247.09 358.982 246.955 358.949C247.528 358.269 247.595 357.274 247.056 356.514C247.029 356.494 240.182 346.421 240.148 346.414C239.711 345.776 238.909 345.433 238.102 345.607C232.978 346.663 227.679 348.23 222.522 349.783L224.36 299.404L221.693 226.491L196.768 255.48L196.694 254.31L197.287 190.254L197.361 182.729L208.039 169.711C215.149 161.056 225.376 155.535 236.519 154.345L335.237 143.808L435.873 160.848L434.735 255.11L436.29 273.3V273.32L432.412 326.692L314.587 354.78L441.32 332.233L444.76 372.586L319.704 390.217L445.198 377.69L451.796 455H218.677L220.879 394.756Z" fill="#002132"/>
<path d="M190.635 254.478L191.133 262.036L158.256 300.271C147.921 312.288 128.948 311.125 120.168 297.931L108.958 281.1L80.2491 164.687L39.394 163.248V143.808L43.6021 139.397C49.6886 133.009 59.1281 131.126 67.2075 134.676L81.2658 140.856C84.2754 142.181 86.9147 144.185 88.9884 146.693C89.9041 147.802 90.7053 149.006 91.3786 150.29L143.107 248.863L191.227 190.2L190.635 254.478Z" fill="#002132"/>
<path d="M199.192 385.079L145.464 369.586L28.1705 335.749L21.68 333.88C6.9485 329.63 -2.20148 314.971 0.45801 299.895L23.4238 165.85C24.4742 159.725 29.369 154.984 35.5295 154.13L39.3942 153.592L88.9886 146.693L114.284 143.176L169.655 155.387C182.394 158.198 191.423 169.529 191.301 182.561L191.227 190.2L190.635 254.478L191.133 262.036L196.189 339.333L60.1247 290.474L59.9833 211.018L55.1155 293.049L196.587 345.345L199.192 385.079Z" fill="#002132"/>
<path d="M203.73 454.368H24.8442L27.9885 342.158L173.883 377.784L199.192 385.08L203.73 454.368Z" fill="#002132"/>
<path d="M157.792 63.2363C157.792 98.1629 145.706 132.901 120.674 132.901C104.225 132.901 75.3882 107.227 67.1404 63.2363C60.9799 28.8612 87.44 4.03467 112.466 4.03467C137.492 4.03467 157.792 28.3098 157.792 63.2363Z" fill="#002132"/>
<path d="M435.873 160.848L465.726 177.282L480 369.674L319.704 390.217L314.587 354.786L441.32 332.232L434.735 255.11L435.873 160.848Z" fill="#002132"/>
<path d="M205.474 348.627L201.353 385.705L199.192 385.08L196.586 345.345L205.474 348.627Z" fill="#002132"/>
<path d="M211.379 388.569C211.358 388.751 211.331 388.926 211.304 389.107L210.907 388.428C211.062 388.475 211.224 388.522 211.379 388.569Z" fill="#002132"/>
<path d="M251.89 402.086C250.732 402.328 249.493 402.247 248.335 401.756C236.169 396.989 223.928 392.362 211.378 388.57C213.048 376.889 214.563 365.404 215.862 353.73C224.339 356.306 234.297 359.366 243.703 362.129C241.932 364.449 241.05 367.455 241.602 370.394C241.643 370.763 241.851 371.671 241.912 372.041C243.057 377.784 244.477 385.261 245.642 390.957C245.777 391.629 246.16 393.465 246.282 394.104C246.652 396.296 247.621 398.421 249.183 400.021C249.958 400.862 250.88 401.554 251.89 402.086Z" fill="#002132"/>
<path d="M299.734 391.999C286.531 393.949 274.008 395.825 261.33 398.098C260.488 398.246 259.647 398.394 258.798 398.549C258.63 398.582 258.462 398.609 258.293 398.643C257.6 398.777 256.92 398.784 256.267 398.69C253.533 398.286 251.284 396.047 250.975 393.182C250.847 392.537 250.503 390.681 250.369 390.022C249.258 384.3 247.77 376.869 246.625 371.106L246.416 370.057L246.363 369.795C245.811 367.448 246.874 364.994 248.739 363.595C249.5 363.03 250.389 362.634 251.358 362.492C251.655 362.465 251.944 362.439 252.24 362.412C254.361 362.223 256.489 362.035 258.616 361.84C270.157 360.811 281.744 359.749 293.223 358.229C295.284 369.654 297.418 380.816 299.734 391.999Z" fill="#002132"/>
<path d="M280.465 356.824C273.819 356.958 267.181 357.187 260.542 357.496L264.44 353.024C269.786 354.632 275.004 355.573 280.465 356.824Z" fill="#002132"/>
<path d="M241.07 354.914C233.206 353.777 225.524 353.26 217.371 352.177C224.4 351.222 230.823 351.007 237.576 349.803L241.07 354.914Z" fill="#002132"/>
<path d="M245.386 357.651L244.564 357.496L244.915 356.958L245.386 357.651Z" fill="#002132"/>
<path d="M244.915 356.958L244.564 357.496L245.386 357.651L244.915 356.958Z" fill="white"/>
</g>
<defs>
<clipPath id="clip0_291_646">
<rect width="480" height="455" fill="white"/>
</clipPath>
</defs>
</svg>
