<svg width="534" height="541" viewBox="0 0 534 541" fill="none" xmlns="http://www.w3.org/2000/svg">
<g clip-path="url(#clip0_286_551)">
<path d="M108.441 492H217.559C217.801 492 218 492.319 218 492.707V538.293C218 538.681 217.801 539 217.559 539H108.441C108.199 539 108 538.681 108 538.293V492.707C108 492.319 108.199 492 108.441 492Z" fill="#04ACFF"/>
<path d="M150.235 486.482H139.855C139.636 486.482 139.461 486.203 139.461 485.864V481.094L147.462 480.788L150.235 486.482Z" fill="#002132"/>
<path d="M251 440.707V486.293C251 486.681 250.801 487 250.553 487H158.04L153.978 478.576L152.743 476.005L149.905 476.118L141 476.462V464.179L143.484 441.332C143.484 440.938 143.683 440.625 143.931 440.625L250.553 440C250.801 440 251 440.313 251 440.707Z" fill="#04ACFF"/>
<path d="M176.441 387H285.559C285.801 387 286 387.319 286 387.707V433.293C286 433.681 285.801 434 285.559 434H176.441C176.199 434 176 433.681 176 433.293V387.707C176 387.319 176.199 387 176.441 387Z" fill="#04ACFF"/>
<path d="M209.441 336H318.559C318.801 336 319 336.312 319 336.692V381.308C319 381.688 318.801 382 318.559 382H209.441C209.199 382 209 381.688 209 381.308V336.692C209 336.312 209.199 336 209.441 336Z" fill="#04ACFF"/>
<path d="M243.441 283H352.559C352.801 283 353 283.312 353 283.692V328.308C353 328.688 352.801 329 352.559 329H243.441C243.199 329 243 328.688 243 328.308V283.692C243 283.312 243.199 283 243.441 283Z" fill="#04ACFF"/>
<path d="M276.441 231H385.559C385.801 231 386 231.312 386 231.692V276.308C386 276.688 385.801 277 385.559 277H276.441C276.199 277 276 276.688 276 276.308V231.692C276 231.312 276.199 231 276.441 231Z" fill="#04ACFF"/>
<path d="M310.445 178H420.555C420.799 178 421 178.312 421 178.692V223.308C421 223.688 420.799 224 420.555 224H310.445C310.201 224 310 223.688 310 223.308V178.692C310 178.312 310.201 178 310.445 178Z" fill="#04ACFF"/>
<path d="M343.441 126H452.559C452.801 126 453 126.312 453 126.692V171.308C453 171.688 452.801 172 452.559 172H343.441C343.199 172 343 171.688 343 171.308V126.692C343 126.312 343.199 126 343.441 126Z" fill="#04ACFF"/>
<path d="M377.5 73.6917C377.5 73.6067 377.518 73.541 377.537 73.5H486.463C486.482 73.541 486.5 73.6067 486.5 73.6917V118.308C486.5 118.393 486.482 118.459 486.463 118.5H377.537C377.518 118.459 377.5 118.393 377.5 118.308V73.6917Z" fill="#04ACFF" stroke="#04ACFF"/>
<path d="M411.5 21.6917C411.5 21.6071 411.518 21.5414 411.536 21.5H519.464C519.482 21.5414 519.5 21.6071 519.5 21.6917V66.3083C519.5 66.3929 519.482 66.4586 519.464 66.5H411.536C411.518 66.4586 411.5 66.3929 411.5 66.3083V21.6917Z" fill="#04ACFF" stroke="#04ACFF"/>
<path d="M445.5 -31.3083C445.5 -31.3933 445.518 -31.459 445.537 -31.5H554.463C554.482 -31.459 554.5 -31.3933 554.5 -31.3083V13.3083C554.5 13.3933 554.482 13.459 554.463 13.5H445.537C445.518 13.459 445.5 13.3933 445.5 13.3083V-31.3083Z" fill="#04ACFF" stroke="#04ACFF"/>
<path d="M73.3994 526.451C75.3558 487.121 79.0822 447.764 83.2415 408.625C83.2634 408.412 83.3018 408.073 83.3237 407.882C83.3566 407.728 83.3237 407.624 83.1867 409.118C83.1319 410.261 83.1703 409.364 83.1593 409.588L83.1483 408.587C83.0278 385.091 82.0633 360.003 82.5236 336.556C82.8086 322.565 83.8169 308.569 85.2472 294.639C85.176 290.892 88.6393 289.076 91.5273 286.834C92.0205 286.473 92.437 286.134 92.8754 285.751C92.9302 285.461 92.9357 285.915 93.0288 286.736C93.5111 290.586 96.5854 293.95 100.323 294.732C100.931 294.863 101.545 294.94 102.142 294.95C103.002 294.961 102.816 294.901 102.756 294.874C101.704 293.928 100.35 293.539 99.002 293.414C96.3333 292.992 93.659 292.615 90.9902 292.303C79.6302 290.805 68.2591 291.291 56.9374 292.889L55.9346 293.02L55.8086 293.036C56.4881 293.107 58.3951 292.741 59.3048 292.134C62.8942 290.176 64.0121 285.385 61.8147 282.043C61.6283 281.715 61.1296 281.124 61.1132 281.108L61.2118 281.19L61.4091 281.348L62.1928 281.988C66.248 285.921 72.424 285.56 77.5259 286.932C79.7507 287.556 81.4824 288.508 83.0333 290.028L84.5074 291.39C101.364 306.655 116.346 323.747 130.682 341.358C133.707 345.033 138.25 350.459 141.231 354.112C143.472 357.153 144.727 361.179 144.656 364.843C143.818 380.677 142.886 398.08 141.686 413.827C140.058 435.195 138.222 456.52 135.384 477.802H118.944C114.116 440.725 111.655 403.172 109.726 365.844L109.677 364.843C109.677 364.958 109.672 364.417 109.677 365.062C109.699 366.2 109.836 367.332 110.083 368.442C110.581 370.663 111.529 372.774 112.866 374.622C113.634 375.678 114.406 376.46 114.067 376.105L113.979 376.017L113.798 375.842L112.368 374.442C101.961 364.187 91.1711 353.937 81.1755 343.316C72.1006 333.548 63.3326 323.375 55.414 312.644C52.3123 307.339 54.5098 299.933 51.4245 294.584C50.8491 293.6 50.1532 292.681 49.523 291.745C44.9691 286.763 47.9557 278.477 54.8276 277.766C56.0278 277.662 56.0113 277.777 56.9429 277.875L58.9486 278.138C64.2916 278.794 69.6346 279.297 74.9722 279.374C83.0004 279.516 91.056 278.597 99.0075 277.35C100.356 277.219 101.715 276.841 102.761 275.89C102.783 275.862 102.679 275.802 103.627 275.819C108.718 275.873 113.294 280.074 113.88 285.171C113.979 286.079 113.979 286.615 114.034 286.407C114.445 286.818 114.839 287.179 115.311 287.572C118.045 289.984 121.404 292.041 121.086 295.754L121.158 297.756C122.977 335.254 118.544 373.233 115.897 410.605L115.859 411.322C115.716 412.891 115.667 412.875 115.689 412.804L115.639 413.05L115.541 413.542C115.234 415.183 114.669 417.858 114.368 419.433C106.932 456.039 99.0842 492.744 89.6641 528.924L73.4104 526.446L73.3994 526.451Z" fill="#04ACFF"/>
<path d="M76.1774 111.235C72.8237 111.071 69.0425 111.088 65.6558 111.044C61.8198 111.011 57.9783 112.526 55.2767 115.261C53.5505 116.994 52.2956 119.122 51.5777 121.441C44.3934 144.429 37.7516 168.045 30.3097 190.907C28.4136 196.71 25.8928 204.241 23.8926 209.984L23.8214 210.192C23.7885 210.28 23.8159 210.23 23.9529 209.804C24.2598 208.923 24.4516 207.408 24.4187 206.675V206.73V206.839V207.058L24.4023 214.059C24.2379 242.089 23.5858 270.114 21.0759 298.057H4.63587C1.92874 267.806 1.35882 237.413 1.29306 207.064C1.2547 205.707 1.53418 203.815 1.97806 202.628C12.3791 172.678 24.7201 143.078 36.2829 113.543C41.3465 102.523 53.0079 95.0678 65.1243 95.0295C68.6863 95.0295 72.6209 94.9529 76.172 94.8271V111.235H76.1774Z" fill="#04ACFF"/>
<path d="M48.4654 119.45L44.5308 272.127C44.5308 272.329 44.6184 272.521 44.7828 272.641C47.6708 274.747 74.3146 293.009 119.349 285.477C119.645 285.428 119.865 285.177 119.865 284.876C119.81 248.368 114.143 156.237 111.562 116.152C110.888 105.695 101.671 97.8789 91.226 98.8962L65.2671 101.429C55.9127 102.342 48.7065 110.07 48.4654 119.445V119.45Z" fill="#04ACFF" stroke="#04ACFF" stroke-width="30" stroke-miterlimit="10"/>
<path d="M182.49 175.489L191.877 168.434C191.943 168.384 192.014 168.351 192.091 168.33C193.444 167.985 205.955 165.256 205.528 181.888C205.111 198.148 189.669 193.122 187.34 192.269C187.153 192.203 187.016 192.056 186.962 191.864L182.265 176.156C182.194 175.91 182.282 175.642 182.484 175.489H182.49Z" fill="#04ACFF"/>
<path d="M21.6679 305.758L25.6081 315.937C25.6848 316.139 25.7177 316.352 25.7067 316.566C25.5916 318.726 24.2655 330.299 8.9817 325.546C-5.78146 320.957 1.62204 308.602 3.6606 305.643C3.94008 305.238 4.40041 304.998 4.89361 304.987L20.2267 304.779C20.8624 304.768 21.4378 305.156 21.6679 305.753V305.758Z" fill="#04ACFF"/>
<path d="M4.02248 318.009L7.32145 320.115C7.61189 320.301 7.94069 320.377 8.26949 320.339L22.3093 318.622C23.4327 318.485 24.3479 319.716 24.1232 321.067L19.909 346.264C19.7227 347.38 18.824 348.096 17.9088 347.855L4.34032 344.262C3.61696 344.071 3.07992 343.321 3.02512 342.424L1.57291 319.989C1.46879 318.387 2.85524 317.265 4.02796 318.015L4.02248 318.009Z" fill="#04ACFF"/>
<path d="M26.6985 319.82L28.3261 335.117C28.4795 336.561 27.663 337.852 26.5944 337.852C25.7505 337.852 25.0216 337.026 24.8737 335.889L23.0214 321.947C22.9776 321.63 22.9831 321.307 23.0379 320.996L23.2625 319.639C23.69 317.052 26.419 317.194 26.6985 319.82Z" fill="#04ACFF"/>
<path d="M181.493 176.326L184.567 168.357C184.66 168.117 184.89 167.963 185.143 167.963H189.143C189.603 167.963 189.905 168.45 189.691 168.86L187.844 172.454C187.806 172.525 187.756 172.59 187.691 172.645L182.463 177.021C182.353 177.114 182.211 177.163 182.063 177.163C181.63 177.163 181.328 176.731 181.487 176.326H181.493Z" fill="#04ACFF"/>
<path d="M105.353 52.2482C105.353 70.1002 94.985 84.572 82.1947 84.572C69.4043 84.572 59.0361 70.1002 59.0361 52.2482C59.0361 34.3963 69.4043 24.814 82.1947 24.814C94.985 24.814 105.353 34.4017 105.353 52.2482Z" fill="#04ACFF"/>
<path d="M56.8276 102.976C56.8276 102.976 77.3777 93.5253 74.7144 74.1528C86.1841 78.7033 92.782 74.1528 92.782 74.1528C92.782 74.1528 91.3737 96.9874 102.745 97.1022C114.116 97.2171 56.8331 102.982 56.8331 102.982L56.8276 102.976Z" fill="#04ACFF"/>
<path d="M152.202 489.812H121.146V480.175L140.009 479.453L148.01 479.147L152.202 489.812Z" fill="#04ACFF"/>
<path d="M70.9609 531.358V541L115.59 540.585L108.603 530.335L70.9609 531.358Z" fill="#04ACFF"/>
<path d="M95.0181 91.3268C95.7907 91.1846 96.6127 91.0534 97.3964 90.9987C106.192 90.2056 120.067 96.9876 122.106 105.547L122.204 105.903L122.588 107.325C133.34 136.159 138.842 171.108 140.732 187.303C148.848 181.866 162.669 182.944 174.824 179.711L181.46 194.725C167.689 203.558 153.04 210.602 138.157 217.242C136.409 218.008 134.151 218.456 132.178 218.232C127.367 217.855 123.059 214.305 121.755 209.694C121.174 207.485 120.051 202.524 119.481 200.183C112.236 169.703 112.127 164.6 105.353 134.015" fill="#04ACFF"/>
<path d="M129 94.5C131.764 107.186 139.985 166.094 142.293 184.243C145.534 182.702 149.053 181.9 152.542 181.309C159.003 180.226 165.294 179.848 171.596 178.497C172.483 178.333 173.333 178.082 174.199 177.885C174.226 177.885 174.264 177.857 174.286 177.874L174.336 177.961C174.933 178.979 175.541 179.974 176.193 181.013C179.081 185.378 181.887 190.579 183.882 195.458L182.501 196.316C169.387 204.493 155.506 211.073 141.412 217.209L139.302 218.123L138.776 218.352C131.827 221.519 123.185 217.729 120.933 210.422C117.766 197 114.883 183.518 112.335 169.987C110.411 159.365 107.534 144.418 105.364 133.999C107.786 144.297 111.069 159.283 113.277 169.796C116.165 183.201 119.399 196.557 122.873 209.798C124.873 215.744 132.085 218.801 137.735 216.017L138.255 215.776L140.332 214.814C153.614 208.621 166.793 201.961 179.052 194.006C177.416 190.067 176.746 186.036 175.476 181.828L175.415 181.637L175.388 181.544C175.371 181.527 175.322 181.555 175.295 181.555C175.097 181.615 174.275 181.795 174.051 181.861C167.228 183.54 160 183.934 153.194 185.077C149.226 185.75 145.149 186.718 141.817 188.884L139.214 190.595L138.847 187.516C136.37 167.241 124 110.734 117.5 91L129 94.5Z" fill="#7DD4FF"/>
<path d="M77.1915 320.509C77.2792 331.054 73.9199 344.415 81.3399 344.415C81.6248 344.415 81.9262 344.393 82.2386 344.355L77.1915 320.509Z" fill="#7DD4FF"/>
<path d="M122.32 327.865C122.155 327.865 121.98 327.882 121.804 327.909L116.582 391.687C121.087 363.339 130.359 327.86 122.32 327.865Z" fill="#7DD4FF"/>
</g>
<defs>
<clipPath id="clip0_286_551">
<rect width="534" height="559" fill="white" transform="translate(0 -18)"/>
</clipPath>
</defs>
</svg>
