<svg width="1660" height="568" viewBox="0 0 1660 568" fill="none" xmlns="http://www.w3.org/2000/svg">
<g clip-path="url(#clip0_458_308)">
<rect width="1660" height="568" rx="284" fill="#EBF2FA"/>
<path d="M488.144 260.96C483.024 260.96 478.256 260.128 473.84 258.464C469.488 256.736 465.68 254.336 462.416 251.264C459.216 248.128 456.72 244.448 454.928 240.224C453.136 236 452.24 231.392 452.24 226.4C452.24 221.408 453.136 216.8 454.928 212.576C456.72 208.352 459.248 204.704 462.512 201.632C465.776 198.496 469.584 196.096 473.936 194.432C478.288 192.704 483.056 191.84 488.24 191.84C493.744 191.84 498.768 192.8 503.312 194.72C507.856 196.576 511.696 199.36 514.832 203.072L506.768 210.656C504.336 208.032 501.616 206.08 498.608 204.8C495.6 203.456 492.336 202.784 488.816 202.784C485.296 202.784 482.064 203.36 479.12 204.512C476.24 205.664 473.712 207.296 471.536 209.408C469.424 211.52 467.76 214.016 466.544 216.896C465.392 219.776 464.816 222.944 464.816 226.4C464.816 229.856 465.392 233.024 466.544 235.904C467.76 238.784 469.424 241.28 471.536 243.392C473.712 245.504 476.24 247.136 479.12 248.288C482.064 249.44 485.296 250.016 488.816 250.016C492.336 250.016 495.6 249.376 498.608 248.096C501.616 246.752 504.336 244.736 506.768 242.048L514.832 249.728C511.696 253.376 507.856 256.16 503.312 258.08C498.768 260 493.712 260.96 488.144 260.96ZM525.638 260V188.768H537.638V260H525.638ZM553.388 260V208.736H565.388V260H553.388ZM559.436 200.288C557.196 200.288 555.34 199.584 553.868 198.176C552.46 196.768 551.756 195.072 551.756 193.088C551.756 191.04 552.46 189.344 553.868 188C555.34 186.592 557.196 185.888 559.436 185.888C561.676 185.888 563.5 186.56 564.908 187.904C566.38 189.184 567.116 190.816 567.116 192.8C567.116 194.912 566.412 196.704 565.004 198.176C563.596 199.584 561.74 200.288 559.436 200.288ZM602.834 260.672C597.906 260.672 593.458 259.584 589.49 257.408C585.586 255.232 582.514 252.192 580.274 248.288C578.034 244.32 576.914 239.68 576.914 234.368C576.914 229.056 578.034 224.448 580.274 220.544C582.514 216.64 585.586 213.6 589.49 211.424C593.458 209.248 597.906 208.16 602.834 208.16C607.25 208.16 611.122 209.12 614.45 211.04C617.842 212.896 620.498 215.744 622.418 219.584C624.402 223.424 625.394 228.352 625.394 234.368C625.394 240.32 624.37 245.248 622.322 249.152C620.338 252.992 617.65 255.872 614.258 257.792C610.866 259.712 607.058 260.672 602.834 260.672ZM604.178 250.4C607.058 250.4 609.65 249.76 611.954 248.48C614.258 247.2 616.082 245.344 617.426 242.912C618.77 240.48 619.442 237.632 619.442 234.368C619.442 231.04 618.77 228.192 617.426 225.824C616.082 223.392 614.258 221.536 611.954 220.256C609.65 218.976 607.058 218.336 604.178 218.336C601.298 218.336 598.706 218.976 596.402 220.256C594.162 221.536 592.37 223.392 591.026 225.824C589.682 228.192 589.01 231.04 589.01 234.368C589.01 237.632 589.682 240.48 591.026 242.912C592.37 245.344 594.162 247.2 596.402 248.48C598.706 249.76 601.298 250.4 604.178 250.4ZM619.25 278.624V248.096L620.21 234.464L619.826 220.832V208.736H631.25V278.624H619.25ZM668.646 260.672C664.294 260.672 660.454 259.872 657.126 258.272C653.798 256.608 651.206 254.112 649.35 250.784C647.494 247.392 646.566 243.136 646.566 238.016V208.736H658.566V236.384C658.566 240.992 659.59 244.448 661.638 246.752C663.75 248.992 666.726 250.112 670.566 250.112C673.382 250.112 675.814 249.536 677.862 248.384C679.974 247.232 681.606 245.504 682.758 243.2C683.974 240.896 684.582 238.048 684.582 234.656V208.736H696.582V260H685.158V246.176L687.174 250.4C685.446 253.728 682.918 256.288 679.59 258.08C676.262 259.808 672.614 260.672 668.646 260.672ZM736.39 260.672C730.694 260.672 725.702 259.552 721.414 257.312C717.19 255.008 713.894 251.872 711.526 247.904C709.222 243.936 708.07 239.424 708.07 234.368C708.07 229.248 709.19 224.736 711.43 220.832C713.734 216.864 716.87 213.76 720.838 211.52C724.87 209.28 729.446 208.16 734.566 208.16C739.558 208.16 744.006 209.248 747.91 211.424C751.814 213.6 754.886 216.672 757.126 220.64C759.366 224.608 760.486 229.28 760.486 234.656C760.486 235.168 760.454 235.744 760.39 236.384C760.39 237.024 760.358 237.632 760.294 238.208H717.574V230.24H753.958L749.254 232.736C749.318 229.792 748.71 227.2 747.43 224.96C746.15 222.72 744.39 220.96 742.15 219.68C739.974 218.4 737.446 217.76 734.566 217.76C731.622 217.76 729.03 218.4 726.79 219.68C724.614 220.96 722.886 222.752 721.606 225.056C720.39 227.296 719.782 229.952 719.782 233.024V234.944C719.782 238.016 720.486 240.736 721.894 243.104C723.302 245.472 725.286 247.296 727.846 248.576C730.406 249.856 733.35 250.496 736.678 250.496C739.558 250.496 742.15 250.048 744.454 249.152C746.758 248.256 748.806 246.848 750.598 244.928L757.03 252.32C754.726 255.008 751.814 257.088 748.294 258.56C744.838 259.968 740.87 260.672 736.39 260.672ZM767.32 260V252.416L798.904 214.208L801.112 218.336H767.896V208.736H810.712V216.32L779.128 254.528L776.728 250.4H811.576V260H767.32ZM849.169 260V208.736H861.169V260H849.169ZM855.217 200.288C852.977 200.288 851.121 199.584 849.649 198.176C848.241 196.768 847.537 195.072 847.537 193.088C847.537 191.04 848.241 189.344 849.649 188C851.121 186.592 852.977 185.888 855.217 185.888C857.457 185.888 859.281 186.56 860.689 187.904C862.161 189.184 862.897 190.816 862.897 192.8C862.897 194.912 862.193 196.704 860.785 198.176C859.377 199.584 857.521 200.288 855.217 200.288ZM900.439 260.672C895.063 260.672 890.263 259.552 886.039 257.312C881.879 255.008 878.615 251.872 876.247 247.904C873.879 243.936 872.695 239.424 872.695 234.368C872.695 229.248 873.879 224.736 876.247 220.832C878.615 216.864 881.879 213.76 886.039 211.52C890.263 209.28 895.063 208.16 900.439 208.16C905.431 208.16 909.815 209.184 913.591 211.232C917.431 213.216 920.343 216.16 922.327 220.064L913.111 225.44C911.575 223.008 909.687 221.216 907.447 220.064C905.271 218.912 902.903 218.336 900.343 218.336C897.399 218.336 894.743 218.976 892.375 220.256C890.007 221.536 888.151 223.392 886.807 225.824C885.463 228.192 884.791 231.04 884.791 234.368C884.791 237.696 885.463 240.576 886.807 243.008C888.151 245.376 890.007 247.2 892.375 248.48C894.743 249.76 897.399 250.4 900.343 250.4C902.903 250.4 905.271 249.824 907.447 248.672C909.687 247.52 911.575 245.728 913.111 243.296L922.327 248.672C920.343 252.512 917.431 255.488 913.591 257.6C909.815 259.648 905.431 260.672 900.439 260.672ZM932.231 260V208.736H944.231V260H932.231ZM938.279 200.288C936.039 200.288 934.183 199.584 932.711 198.176C931.303 196.768 930.599 195.072 930.599 193.088C930.599 191.04 931.303 189.344 932.711 188C934.183 186.592 936.039 185.888 938.279 185.888C940.519 185.888 942.343 186.56 943.751 187.904C945.223 189.184 945.959 190.816 945.959 192.8C945.959 194.912 945.255 196.704 943.847 198.176C942.439 199.584 940.583 200.288 938.279 200.288ZM1014.93 260.672C1010.77 260.672 1006.96 259.712 1003.5 257.792C1000.11 255.872 997.393 252.992 995.345 249.152C993.361 245.248 992.369 240.32 992.369 234.368C992.369 228.352 993.329 223.424 995.249 219.584C997.233 215.744 999.921 212.896 1003.31 211.04C1006.7 209.12 1010.58 208.16 1014.93 208.16C1019.98 208.16 1024.43 209.248 1028.27 211.424C1032.18 213.6 1035.25 216.64 1037.49 220.544C1039.79 224.448 1040.94 229.056 1040.94 234.368C1040.94 239.68 1039.79 244.32 1037.49 248.288C1035.25 252.192 1032.18 255.232 1028.27 257.408C1024.43 259.584 1019.98 260.672 1014.93 260.672ZM986.513 278.624V208.736H997.937V220.832L997.553 234.464L998.513 248.096V278.624H986.513ZM1013.58 250.4C1016.46 250.4 1019.02 249.76 1021.26 248.48C1023.57 247.2 1025.39 245.344 1026.74 242.912C1028.08 240.48 1028.75 237.632 1028.75 234.368C1028.75 231.04 1028.08 228.192 1026.74 225.824C1025.39 223.392 1023.57 221.536 1021.26 220.256C1019.02 218.976 1016.46 218.336 1013.58 218.336C1010.7 218.336 1008.11 218.976 1005.81 220.256C1003.5 221.536 1001.68 223.392 1000.34 225.824C998.993 228.192 998.321 231.04 998.321 234.368C998.321 237.632 998.993 240.48 1000.34 242.912C1001.68 245.344 1003.5 247.2 1005.81 248.48C1008.11 249.76 1010.7 250.4 1013.58 250.4ZM1075.37 260.672C1070.12 260.672 1065.45 259.552 1061.35 257.312C1057.25 255.008 1054.02 251.872 1051.65 247.904C1049.29 243.936 1048.1 239.424 1048.1 234.368C1048.1 229.248 1049.29 224.736 1051.65 220.832C1054.02 216.864 1057.25 213.76 1061.35 211.52C1065.45 209.28 1070.12 208.16 1075.37 208.16C1080.68 208.16 1085.38 209.28 1089.48 211.52C1093.64 213.76 1096.87 216.832 1099.17 220.736C1101.54 224.64 1102.73 229.184 1102.73 234.368C1102.73 239.424 1101.54 243.936 1099.17 247.904C1096.87 251.872 1093.64 255.008 1089.48 257.312C1085.38 259.552 1080.68 260.672 1075.37 260.672ZM1075.37 250.4C1078.31 250.4 1080.93 249.76 1083.24 248.48C1085.54 247.2 1087.33 245.344 1088.61 242.912C1089.96 240.48 1090.63 237.632 1090.63 234.368C1090.63 231.04 1089.96 228.192 1088.61 225.824C1087.33 223.392 1085.54 221.536 1083.24 220.256C1080.93 218.976 1078.34 218.336 1075.46 218.336C1072.52 218.336 1069.89 218.976 1067.59 220.256C1065.35 221.536 1063.56 223.392 1062.21 225.824C1060.87 228.192 1060.2 231.04 1060.2 234.368C1060.2 237.632 1060.87 240.48 1062.21 242.912C1063.56 245.344 1065.35 247.2 1067.59 248.48C1069.89 249.76 1072.49 250.4 1075.37 250.4ZM1135.9 260.672C1131.54 260.672 1127.7 259.872 1124.38 258.272C1121.05 256.608 1118.46 254.112 1116.6 250.784C1114.74 247.392 1113.82 243.136 1113.82 238.016V208.736H1125.82V236.384C1125.82 240.992 1126.84 244.448 1128.89 246.752C1131 248.992 1133.98 250.112 1137.82 250.112C1140.63 250.112 1143.06 249.536 1145.11 248.384C1147.22 247.232 1148.86 245.504 1150.01 243.2C1151.22 240.896 1151.83 238.048 1151.83 234.656V208.736H1163.83V260H1152.41V246.176L1154.42 250.4C1152.7 253.728 1150.17 256.288 1146.84 258.08C1143.51 259.808 1139.86 260.672 1135.9 260.672ZM1179.54 260V208.736H1190.97V222.848L1189.62 218.72C1191.16 215.264 1193.56 212.64 1196.82 210.848C1200.15 209.056 1204.28 208.16 1209.21 208.16V219.584C1208.7 219.456 1208.22 219.392 1207.77 219.392C1207.32 219.328 1206.87 219.296 1206.42 219.296C1201.88 219.296 1198.26 220.64 1195.58 223.328C1192.89 225.952 1191.54 229.888 1191.54 235.136V260H1179.54ZM278.365 377.672C273.437 377.672 268.989 376.584 265.021 374.408C261.117 372.168 258.045 369.096 255.805 365.192C253.565 361.288 252.445 356.68 252.445 351.368C252.445 346.056 253.565 341.448 255.805 337.544C258.045 333.64 261.117 330.6 265.021 328.424C268.989 326.248 273.437 325.16 278.365 325.16C282.653 325.16 286.493 326.12 289.885 328.04C293.277 329.896 295.965 332.744 297.949 336.584C299.933 340.424 300.925 345.352 300.925 351.368C300.925 357.32 299.965 362.248 298.045 366.152C296.125 369.992 293.469 372.872 290.077 374.792C286.685 376.712 282.781 377.672 278.365 377.672ZM279.805 367.4C282.685 367.4 285.245 366.76 287.485 365.48C289.789 364.2 291.613 362.344 292.957 359.912C294.365 357.48 295.069 354.632 295.069 351.368C295.069 348.04 294.365 345.192 292.957 342.824C291.613 340.392 289.789 338.536 287.485 337.256C285.245 335.976 282.685 335.336 279.805 335.336C276.925 335.336 274.333 335.976 272.029 337.256C269.789 338.536 267.965 340.392 266.557 342.824C265.213 345.192 264.541 348.04 264.541 351.368C264.541 354.632 265.213 357.48 266.557 359.912C267.965 362.344 269.789 364.2 272.029 365.48C274.333 366.76 276.925 367.4 279.805 367.4ZM295.357 377V364.904L295.837 351.272L294.877 337.64V305.768H306.781V377H295.357ZM346.671 377.672C340.975 377.672 335.983 376.552 331.695 374.312C327.471 372.008 324.175 368.872 321.807 364.904C319.503 360.936 318.351 356.424 318.351 351.368C318.351 346.248 319.471 341.736 321.711 337.832C324.015 333.864 327.151 330.76 331.119 328.52C335.151 326.28 339.727 325.16 344.847 325.16C349.839 325.16 354.287 326.248 358.191 328.424C362.095 330.6 365.167 333.672 367.407 337.64C369.647 341.608 370.767 346.28 370.767 351.656C370.767 352.168 370.735 352.744 370.671 353.384C370.671 354.024 370.639 354.632 370.575 355.208H327.855V347.24H364.239L359.535 349.736C359.599 346.792 358.991 344.2 357.711 341.96C356.431 339.72 354.671 337.96 352.431 336.68C350.255 335.4 347.727 334.76 344.847 334.76C341.903 334.76 339.311 335.4 337.071 336.68C334.895 337.96 333.167 339.752 331.887 342.056C330.671 344.296 330.063 346.952 330.063 350.024V351.944C330.063 355.016 330.767 357.736 332.175 360.104C333.583 362.472 335.567 364.296 338.127 365.576C340.687 366.856 343.631 367.496 346.959 367.496C349.839 367.496 352.431 367.048 354.735 366.152C357.039 365.256 359.087 363.848 360.879 361.928L367.311 369.32C365.007 372.008 362.095 374.088 358.575 375.56C355.119 376.968 351.151 377.672 346.671 377.672ZM336.495 318.728L349.455 305.576H363.567L346.863 318.728H336.495ZM405.814 377.672C400.438 377.672 395.638 376.552 391.414 374.312C387.254 372.008 383.99 368.872 381.622 364.904C379.254 360.936 378.07 356.424 378.07 351.368C378.07 346.248 379.254 341.736 381.622 337.832C383.99 333.864 387.254 330.76 391.414 328.52C395.638 326.28 400.438 325.16 405.814 325.16C410.806 325.16 415.19 326.184 418.966 328.232C422.806 330.216 425.718 333.16 427.702 337.064L418.486 342.44C416.95 340.008 415.062 338.216 412.822 337.064C410.646 335.912 408.278 335.336 405.718 335.336C402.774 335.336 400.118 335.976 397.75 337.256C395.382 338.536 393.526 340.392 392.182 342.824C390.838 345.192 390.166 348.04 390.166 351.368C390.166 354.696 390.838 357.576 392.182 360.008C393.526 362.376 395.382 364.2 397.75 365.48C400.118 366.76 402.774 367.4 405.718 367.4C408.278 367.4 410.646 366.824 412.822 365.672C415.062 364.52 416.95 362.728 418.486 360.296L427.702 365.672C425.718 369.512 422.806 372.488 418.966 374.6C415.19 376.648 410.806 377.672 405.814 377.672ZM460.365 377.672C455.117 377.672 450.445 376.552 446.349 374.312C442.253 372.008 439.021 368.872 436.653 364.904C434.285 360.936 433.101 356.424 433.101 351.368C433.101 346.248 434.285 341.736 436.653 337.832C439.021 333.864 442.253 330.76 446.349 328.52C450.445 326.28 455.117 325.16 460.365 325.16C465.677 325.16 470.381 326.28 474.477 328.52C478.637 330.76 481.869 333.832 484.173 337.736C486.541 341.64 487.725 346.184 487.725 351.368C487.725 356.424 486.541 360.936 484.173 364.904C481.869 368.872 478.637 372.008 474.477 374.312C470.381 376.552 465.677 377.672 460.365 377.672ZM460.365 367.4C463.309 367.4 465.933 366.76 468.237 365.48C470.541 364.2 472.333 362.344 473.613 359.912C474.957 357.48 475.629 354.632 475.629 351.368C475.629 348.04 474.957 345.192 473.613 342.824C472.333 340.392 470.541 338.536 468.237 337.256C465.933 335.976 463.341 335.336 460.461 335.336C457.517 335.336 454.893 335.976 452.589 337.256C450.349 338.536 448.557 340.392 447.213 342.824C445.869 345.192 445.197 348.04 445.197 351.368C445.197 354.632 445.869 357.48 447.213 359.912C448.557 362.344 450.349 364.2 452.589 365.48C454.893 366.76 457.485 367.4 460.365 367.4ZM520.896 377.672C516.544 377.672 512.704 376.872 509.376 375.272C506.048 373.608 503.456 371.112 501.6 367.784C499.744 364.392 498.816 360.136 498.816 355.016V325.736H510.816V353.384C510.816 357.992 511.84 361.448 513.888 363.752C516 365.992 518.976 367.112 522.816 367.112C525.632 367.112 528.064 366.536 530.112 365.384C532.224 364.232 533.856 362.504 535.008 360.2C536.224 357.896 536.832 355.048 536.832 351.656V325.736H548.832V377H537.408V363.176L539.424 367.4C537.696 370.728 535.168 373.288 531.84 375.08C528.512 376.808 524.864 377.672 520.896 377.672ZM578.176 377L556.192 325.736H568.672L587.584 370.952H581.44L601.024 325.736H612.544L590.56 377H578.176ZM620.044 377V325.736H631.468V339.848L630.124 335.72C631.66 332.264 634.06 329.64 637.324 327.848C640.652 326.056 644.78 325.16 649.708 325.16V336.584C649.196 336.456 648.716 336.392 648.268 336.392C647.82 336.328 647.372 336.296 646.924 336.296C642.38 336.296 638.764 337.64 636.076 340.328C633.388 342.952 632.044 346.888 632.044 352.136V377H620.044ZM659.888 377V325.736H671.888V377H659.888ZM665.936 317.288C663.696 317.288 661.84 316.584 660.368 315.176C658.96 313.768 658.256 312.072 658.256 310.088C658.256 308.04 658.96 306.344 660.368 305C661.84 303.592 663.696 302.888 665.936 302.888C668.176 302.888 670 303.56 671.408 304.904C672.88 306.184 673.616 307.816 673.616 309.8C673.616 311.912 672.912 313.704 671.504 315.176C670.096 316.584 668.24 317.288 665.936 317.288ZM687.638 377V325.736H699.062V339.848L697.718 335.72C699.254 332.264 701.654 329.64 704.918 327.848C708.246 326.056 712.374 325.16 717.302 325.16V336.584C716.79 336.456 716.31 336.392 715.862 336.392C715.414 336.328 714.966 336.296 714.518 336.296C709.974 336.296 706.358 337.64 703.67 340.328C700.982 342.952 699.638 346.888 699.638 352.136V377H687.638ZM783.569 325.16C787.665 325.16 791.313 325.96 794.513 327.56C797.777 329.16 800.337 331.624 802.193 334.952C804.049 338.216 804.977 342.44 804.977 347.624V377H792.977V349.16C792.977 344.616 791.889 341.224 789.713 338.984C787.601 336.744 784.625 335.624 780.785 335.624C777.969 335.624 775.473 336.2 773.297 337.352C771.121 338.504 769.425 340.232 768.209 342.536C767.057 344.776 766.481 347.624 766.481 351.08V377H754.481V325.736H765.905V339.56L763.889 335.336C765.681 332.072 768.273 329.576 771.665 327.848C775.121 326.056 779.089 325.16 783.569 325.16ZM843.334 377.672C838.086 377.672 833.414 376.552 829.318 374.312C825.222 372.008 821.99 368.872 819.622 364.904C817.254 360.936 816.07 356.424 816.07 351.368C816.07 346.248 817.254 341.736 819.622 337.832C821.99 333.864 825.222 330.76 829.318 328.52C833.414 326.28 838.086 325.16 843.334 325.16C848.646 325.16 853.35 326.28 857.446 328.52C861.606 330.76 864.838 333.832 867.142 337.736C869.51 341.64 870.694 346.184 870.694 351.368C870.694 356.424 869.51 360.936 867.142 364.904C864.838 368.872 861.606 372.008 857.446 374.312C853.35 376.552 848.646 377.672 843.334 377.672ZM843.334 367.4C846.278 367.4 848.902 366.76 851.206 365.48C853.51 364.2 855.302 362.344 856.582 359.912C857.926 357.48 858.598 354.632 858.598 351.368C858.598 348.04 857.926 345.192 856.582 342.824C855.302 340.392 853.51 338.536 851.206 337.256C848.902 335.976 846.31 335.336 843.43 335.336C840.486 335.336 837.862 335.976 835.558 337.256C833.318 338.536 831.526 340.392 830.182 342.824C828.838 345.192 828.166 348.04 828.166 351.368C828.166 354.632 828.838 357.48 830.182 359.912C831.526 362.344 833.318 364.2 835.558 365.48C837.862 366.76 840.454 367.4 843.334 367.4ZM901.465 377.672C895.833 377.672 891.481 376.232 888.409 373.352C885.337 370.408 883.801 366.088 883.801 360.392V314.408H895.801V360.104C895.801 362.536 896.409 364.424 897.625 365.768C898.905 367.112 900.665 367.784 902.905 367.784C905.593 367.784 907.833 367.08 909.625 365.672L912.985 374.216C911.577 375.368 909.849 376.232 907.801 376.808C905.753 377.384 903.641 377.672 901.465 377.672ZM875.353 335.72V326.12H909.529V335.72H875.353ZM922.856 377V325.736H934.28V339.848L932.936 335.72C934.472 332.264 936.872 329.64 940.136 327.848C943.464 326.056 947.592 325.16 952.52 325.16V336.584C952.008 336.456 951.528 336.392 951.08 336.392C950.632 336.328 950.184 336.296 949.736 336.296C945.192 336.296 941.576 337.64 938.888 340.328C936.2 342.952 934.856 346.888 934.856 352.136V377H922.856ZM986.327 377.672C980.631 377.672 975.639 376.552 971.351 374.312C967.127 372.008 963.831 368.872 961.463 364.904C959.159 360.936 958.007 356.424 958.007 351.368C958.007 346.248 959.127 341.736 961.367 337.832C963.671 333.864 966.807 330.76 970.775 328.52C974.807 326.28 979.383 325.16 984.503 325.16C989.495 325.16 993.943 326.248 997.847 328.424C1001.75 330.6 1004.82 333.672 1007.06 337.64C1009.3 341.608 1010.42 346.28 1010.42 351.656C1010.42 352.168 1010.39 352.744 1010.33 353.384C1010.33 354.024 1010.3 354.632 1010.23 355.208H967.511V347.24H1003.9L999.191 349.736C999.255 346.792 998.647 344.2 997.367 341.96C996.087 339.72 994.327 337.96 992.087 336.68C989.911 335.4 987.383 334.76 984.503 334.76C981.559 334.76 978.967 335.4 976.727 336.68C974.551 337.96 972.823 339.752 971.543 342.056C970.327 344.296 969.719 346.952 969.719 350.024V351.944C969.719 355.016 970.423 357.736 971.831 360.104C973.239 362.472 975.223 364.296 977.783 365.576C980.343 366.856 983.287 367.496 986.615 367.496C989.495 367.496 992.087 367.048 994.391 366.152C996.695 365.256 998.743 363.848 1000.54 361.928L1006.97 369.32C1004.66 372.008 1001.75 374.088 998.231 375.56C994.775 376.968 990.807 377.672 986.327 377.672ZM1077.57 325.16C1081.67 325.16 1085.31 325.96 1088.51 327.56C1091.78 329.16 1094.34 331.624 1096.19 334.952C1098.05 338.216 1098.98 342.44 1098.98 347.624V377H1086.98V349.16C1086.98 344.616 1085.89 341.224 1083.71 338.984C1081.6 336.744 1078.63 335.624 1074.79 335.624C1071.97 335.624 1069.47 336.2 1067.3 337.352C1065.12 338.504 1063.43 340.232 1062.21 342.536C1061.06 344.776 1060.48 347.624 1060.48 351.08V377H1048.48V305.768H1060.48V339.56L1057.89 335.336C1059.68 332.072 1062.27 329.576 1065.67 327.848C1069.12 326.056 1073.09 325.16 1077.57 325.16ZM1114.2 377V325.736H1126.2V377H1114.2ZM1120.25 317.288C1118.01 317.288 1116.15 316.584 1114.68 315.176C1113.27 313.768 1112.57 312.072 1112.57 310.088C1112.57 308.04 1113.27 306.344 1114.68 305C1116.15 303.592 1118.01 302.888 1120.25 302.888C1122.49 302.888 1124.31 303.56 1125.72 304.904C1127.19 306.184 1127.93 307.816 1127.93 309.8C1127.93 311.912 1127.22 313.704 1125.82 315.176C1124.41 316.584 1122.55 317.288 1120.25 317.288ZM1157.79 377.672C1153.5 377.672 1149.37 377.128 1145.41 376.04C1141.5 374.888 1138.4 373.512 1136.09 371.912L1140.7 362.792C1143.01 364.264 1145.76 365.48 1148.96 366.44C1152.16 367.4 1155.36 367.88 1158.56 367.88C1162.33 367.88 1165.05 367.368 1166.72 366.344C1168.45 365.32 1169.31 363.944 1169.31 362.216C1169.31 360.808 1168.73 359.752 1167.58 359.048C1166.43 358.28 1164.93 357.704 1163.07 357.32C1161.21 356.936 1159.13 356.584 1156.83 356.264C1154.59 355.944 1152.32 355.528 1150.01 355.016C1147.77 354.44 1145.73 353.64 1143.87 352.616C1142.01 351.528 1140.51 350.088 1139.36 348.296C1138.21 346.504 1137.63 344.136 1137.63 341.192C1137.63 337.928 1138.56 335.112 1140.41 332.744C1142.27 330.312 1144.86 328.456 1148.19 327.176C1151.58 325.832 1155.58 325.16 1160.19 325.16C1163.65 325.16 1167.13 325.544 1170.65 326.312C1174.17 327.08 1177.09 328.168 1179.39 329.576L1174.78 338.696C1172.35 337.224 1169.89 336.232 1167.39 335.72C1164.96 335.144 1162.53 334.856 1160.09 334.856C1156.45 334.856 1153.73 335.4 1151.93 336.488C1150.21 337.576 1149.34 338.952 1149.34 340.616C1149.34 342.152 1149.92 343.304 1151.07 344.072C1152.22 344.84 1153.73 345.448 1155.58 345.896C1157.44 346.344 1159.49 346.728 1161.73 347.048C1164.03 347.304 1166.3 347.72 1168.54 348.296C1170.78 348.872 1172.83 349.672 1174.69 350.696C1176.61 351.656 1178.14 353.032 1179.29 354.824C1180.45 356.616 1181.02 358.952 1181.02 361.832C1181.02 365.032 1180.06 367.816 1178.14 370.184C1176.29 372.552 1173.63 374.408 1170.17 375.752C1166.72 377.032 1162.59 377.672 1157.79 377.672ZM1210.65 377.672C1205.02 377.672 1200.67 376.232 1197.6 373.352C1194.52 370.408 1192.99 366.088 1192.99 360.392V314.408H1204.99V360.104C1204.99 362.536 1205.6 364.424 1206.81 365.768C1208.09 367.112 1209.85 367.784 1212.09 367.784C1214.78 367.784 1217.02 367.08 1218.81 365.672L1222.17 374.216C1220.76 375.368 1219.04 376.232 1216.99 376.808C1214.94 377.384 1212.83 377.672 1210.65 377.672ZM1184.54 335.72V326.12H1218.72V335.72H1184.54ZM1253.4 377.672C1248.15 377.672 1243.48 376.552 1239.38 374.312C1235.28 372.008 1232.05 368.872 1229.68 364.904C1227.32 360.936 1226.13 356.424 1226.13 351.368C1226.13 346.248 1227.32 341.736 1229.68 337.832C1232.05 333.864 1235.28 330.76 1239.38 328.52C1243.48 326.28 1248.15 325.16 1253.4 325.16C1258.71 325.16 1263.41 326.28 1267.51 328.52C1271.67 330.76 1274.9 333.832 1277.2 337.736C1279.57 341.64 1280.76 346.184 1280.76 351.368C1280.76 356.424 1279.57 360.936 1277.2 364.904C1274.9 368.872 1271.67 372.008 1267.51 374.312C1263.41 376.552 1258.71 377.672 1253.4 377.672ZM1253.4 367.4C1256.34 367.4 1258.96 366.76 1261.27 365.48C1263.57 364.2 1265.36 362.344 1266.64 359.912C1267.99 357.48 1268.66 354.632 1268.66 351.368C1268.66 348.04 1267.99 345.192 1266.64 342.824C1265.36 340.392 1263.57 338.536 1261.27 337.256C1258.96 335.976 1256.37 335.336 1253.49 335.336C1250.55 335.336 1247.92 335.976 1245.62 337.256C1243.38 338.536 1241.59 340.392 1240.24 342.824C1238.9 345.192 1238.23 348.04 1238.23 351.368C1238.23 354.632 1238.9 357.48 1240.24 359.912C1241.59 362.344 1243.38 364.2 1245.62 365.48C1247.92 366.76 1250.52 367.4 1253.4 367.4ZM1292.23 377V325.736H1304.23V377H1292.23ZM1298.28 317.288C1296.04 317.288 1294.18 316.584 1292.71 315.176C1291.3 313.768 1290.6 312.072 1290.6 310.088C1290.6 308.04 1291.3 306.344 1292.71 305C1294.18 303.592 1296.04 302.888 1298.28 302.888C1300.52 302.888 1302.34 303.56 1303.75 304.904C1305.22 306.184 1305.96 307.816 1305.96 309.8C1305.96 311.912 1305.26 313.704 1303.85 315.176C1302.44 316.584 1300.58 317.288 1298.28 317.288ZM1319.98 377V325.736H1331.41V339.848L1330.06 335.72C1331.6 332.264 1334 329.64 1337.26 327.848C1340.59 326.056 1344.72 325.16 1349.65 325.16V336.584C1349.13 336.456 1348.65 336.392 1348.21 336.392C1347.76 336.328 1347.31 336.296 1346.86 336.296C1342.32 336.296 1338.7 337.64 1336.01 340.328C1333.33 342.952 1331.98 346.888 1331.98 352.136V377H1319.98ZM1383.45 377.672C1377.76 377.672 1372.76 376.552 1368.48 374.312C1364.25 372.008 1360.96 368.872 1358.59 364.904C1356.28 360.936 1355.13 356.424 1355.13 351.368C1355.13 346.248 1356.25 341.736 1358.49 337.832C1360.8 333.864 1363.93 330.76 1367.9 328.52C1371.93 326.28 1376.51 325.16 1381.63 325.16C1386.62 325.16 1391.07 326.248 1394.97 328.424C1398.88 330.6 1401.95 333.672 1404.19 337.64C1406.43 341.608 1407.55 346.28 1407.55 351.656C1407.55 352.168 1407.52 352.744 1407.45 353.384C1407.45 354.024 1407.42 354.632 1407.36 355.208H1364.64V347.24H1401.02L1396.32 349.736C1396.38 346.792 1395.77 344.2 1394.49 341.96C1393.21 339.72 1391.45 337.96 1389.21 336.68C1387.04 335.4 1384.51 334.76 1381.63 334.76C1378.68 334.76 1376.09 335.4 1373.85 336.68C1371.68 337.96 1369.95 339.752 1368.67 342.056C1367.45 344.296 1366.84 346.952 1366.84 350.024V351.944C1366.84 355.016 1367.55 357.736 1368.96 360.104C1370.36 362.472 1372.35 364.296 1374.91 365.576C1377.47 366.856 1380.41 367.496 1383.74 367.496C1386.62 367.496 1389.21 367.048 1391.52 366.152C1393.82 365.256 1395.87 363.848 1397.66 361.928L1404.09 369.32C1401.79 372.008 1398.88 374.088 1395.36 375.56C1391.9 376.968 1387.93 377.672 1383.45 377.672Z" fill="#050610"/>
<path d="M215.239 231.908C215.239 247.589 202.535 260.353 186.906 260.353H149.245C148.028 247.466 137.789 237.176 124.942 235.954V211.771C124.942 193.256 109.937 178.191 91.4951 178.191H38.0924V129.619C38.0924 111.104 23.0873 96.0396 4.64545 96.0396H-335V101.174H-156.698V188.953C-156.698 204.634 -169.402 217.398 -185.031 217.398H-218.539V190.298C-218.539 171.783 -233.544 156.719 -251.986 156.719H-335V161.853H-251.976C-236.357 161.853 -223.643 174.607 -223.643 190.298V217.398H-335V222.533H-280.605V231.898C-280.605 247.579 -293.309 260.343 -308.938 260.343H-335V265.477H-308.938C-290.496 265.477 -275.491 250.413 -275.491 231.898V222.533H-185.031C-166.589 222.533 -151.584 207.468 -151.584 188.953V101.174H4.66589C20.2847 101.174 32.9987 113.928 32.9987 129.619V231.908C32.9987 250.423 48.0038 265.488 66.4457 265.488H95.5558C96.8446 279.228 108.403 290.01 122.416 290.01C136.429 290.01 147.977 279.228 149.276 265.488H186.937C205.378 265.488 220.384 250.423 220.384 231.908V212.151H392.641V207.016H215.269V231.908H215.239ZM38.1027 231.908V183.336H91.5053C107.124 183.336 119.838 196.09 119.838 211.781V235.964C107.001 237.186 96.7525 247.466 95.5353 260.364H66.4252C50.8064 260.364 38.0924 247.609 38.0924 231.918L38.1027 231.908ZM122.395 284.876C110.336 284.876 100.527 275.028 100.527 262.92C100.527 250.813 110.336 240.965 122.395 240.965C134.455 240.965 144.264 250.813 144.264 262.92C144.264 275.028 134.455 284.876 122.395 284.876Z" fill="url(#paint0_linear_458_308)"/>
<path d="M1335.4 25.1018C1335.4 9.42111 1348.11 -3.34322 1363.73 -3.34322L1401.4 -3.34321C1402.61 9.54433 1412.85 19.8338 1425.7 21.0559L1425.7 45.2393C1425.7 63.7542 1440.7 78.8188 1459.15 78.8188L1512.55 78.8188L1512.55 127.391C1512.55 145.906 1527.55 160.97 1546 160.97L1885.64 160.971L1885.64 155.836L1707.34 155.836L1707.34 68.0569C1707.34 52.3762 1720.04 39.6119 1735.67 39.6119L1769.18 39.6119L1769.18 66.7117C1769.18 85.2266 1784.18 100.291 1802.63 100.291L1885.64 100.291L1885.64 95.1567L1802.62 95.1567C1787 95.1567 1774.28 82.4027 1774.28 66.7117L1774.28 39.6119L1885.64 39.6119L1885.64 34.4774L1831.25 34.4774L1831.25 25.1121C1831.25 9.43141 1843.95 -3.3329 1859.58 -3.3329L1885.64 -3.3329L1885.64 -8.46738L1859.58 -8.46738C1841.14 -8.46738 1826.13 6.59716 1826.13 25.1121L1826.13 34.4774L1735.67 34.4774C1717.23 34.4774 1702.22 49.542 1702.22 68.0569L1702.22 155.836L1545.97 155.836C1530.36 155.836 1517.64 143.082 1517.64 127.391L1517.64 25.1018C1517.64 6.5869 1502.64 -8.47769 1484.19 -8.4777L1455.08 -8.4777C1453.8 -22.2176 1442.24 -33 1428.22 -33C1414.21 -33 1402.66 -22.2176 1401.37 -8.4777L1363.7 -8.47771C1345.26 -8.47771 1330.26 6.58688 1330.26 25.1018L1330.26 44.8593L1158 44.8593L1158 49.9938L1335.37 49.9938L1335.37 25.1018L1335.4 25.1018ZM1512.54 25.1018L1512.54 73.674L1459.14 73.674C1443.52 73.674 1430.8 60.92 1430.8 45.229L1430.8 21.0456C1443.64 19.8236 1453.89 9.54432 1455.11 -3.35349L1484.22 -3.35349C1499.83 -3.35349 1512.55 9.40057 1512.55 25.0916L1512.54 25.1018ZM1428.25 -27.8655C1440.3 -27.8655 1450.11 -18.0176 1450.11 -5.91045C1450.11 6.19665 1440.3 16.0446 1428.25 16.0446C1416.19 16.0446 1406.38 6.19664 1406.38 -5.91046C1406.38 -18.0176 1416.19 -27.8655 1428.25 -27.8655Z" fill="url(#paint1_linear_458_308)"/>
<path d="M1210.21 165.734C1225.83 165.734 1238.54 178.488 1238.54 194.179L1238.54 226.67C1238.54 245.185 1253.55 260.25 1271.99 260.25L1466.81 260.25C1468.1 273.989 1479.66 284.772 1493.67 284.772C1507.68 284.772 1519.23 273.989 1520.53 260.25L1552.72 260.25L1552.72 290.43C1552.72 308.945 1567.73 324.01 1586.17 324.01L1790.01 324.01L1790.01 318.875L1586.16 318.875C1570.54 318.875 1557.82 306.121 1557.82 290.43L1557.82 260.25L1790.01 260.25L1790.01 255.115L1520.52 255.115C1519.23 241.375 1507.67 230.593 1493.66 230.593C1479.65 230.593 1468.1 241.375 1466.8 255.115L1271.98 255.115C1256.36 255.115 1243.65 242.361 1243.65 226.67L1243.65 194.179C1243.65 175.664 1228.64 160.6 1210.2 160.6L830 160.6L830 165.734L1210.2 165.734L1210.21 165.734ZM1493.66 235.727C1505.72 235.727 1515.53 245.575 1515.53 257.682C1515.53 269.789 1505.72 279.637 1493.66 279.637C1481.6 279.637 1471.79 269.789 1471.79 257.682C1471.79 245.575 1481.6 235.727 1493.66 235.727Z" fill="url(#paint2_linear_458_308)"/>
<path d="M244.799 125.276C229.18 125.276 216.466 112.521 216.466 96.8305V64.3395C216.466 45.8246 201.461 30.76 183.019 30.76H-11.8019C-13.0907 17.0201 -24.6488 6.23771 -38.6618 6.23771C-52.6747 6.23771 -64.2227 17.0201 -65.5217 30.76H-97.7105V0.579514C-97.7105 -17.9354 -112.716 -33 -131.158 -33H-335V-27.8655H-131.147C-115.528 -27.8655 -102.815 -15.1115 -102.815 0.579514V30.76H-335V35.8945H-65.5114C-64.2227 49.6344 -52.6645 60.4168 -38.6516 60.4168C-24.6386 60.4168 -13.0907 49.6344 -11.7917 35.8945H183.029C198.648 35.8945 211.362 48.6485 211.362 64.3395V96.8305C211.362 115.345 226.367 130.41 244.809 130.41H625.01V125.276H244.809H244.799ZM-38.6516 55.2823C-50.7109 55.2823 -60.52 45.4344 -60.52 33.3272C-60.52 21.2201 -50.7109 11.3722 -38.6516 11.3722C-26.5922 11.3722 -16.7832 21.2201 -16.7832 33.3272C-16.7832 45.4344 -26.5922 55.2823 -38.6516 55.2823Z" fill="url(#paint3_linear_458_308)"/>
</g>
<defs>
<linearGradient id="paint0_linear_458_308" x1="-335" y1="193.025" x2="392.641" y2="193.025" gradientUnits="userSpaceOnUse">
<stop stop-color="#004D73"/>
<stop offset="0.455" stop-color="#0091D9"/>
<stop offset="1" stop-color="#AAC0CC"/>
</linearGradient>
<linearGradient id="paint1_linear_458_308" x1="1885.64" y1="63.9853" x2="1158" y2="63.9852" gradientUnits="userSpaceOnUse">
<stop stop-color="#004D73"/>
<stop offset="0.455" stop-color="#0091D9"/>
<stop offset="1" stop-color="#AAC0CC"/>
</linearGradient>
<linearGradient id="paint2_linear_458_308" x1="1790.01" y1="242.305" x2="830" y2="242.305" gradientUnits="userSpaceOnUse">
<stop stop-color="#004D73"/>
<stop offset="0.455" stop-color="#0091D9"/>
<stop offset="1" stop-color="#AAC0CC"/>
</linearGradient>
<linearGradient id="paint3_linear_458_308" x1="-335" y1="48.705" x2="625.01" y2="48.705" gradientUnits="userSpaceOnUse">
<stop stop-color="#004D73"/>
<stop offset="0.455" stop-color="#0091D9"/>
<stop offset="1" stop-color="#AAC0CC"/>
</linearGradient>
<clipPath id="clip0_458_308">
<rect width="1660" height="568" rx="284" fill="white"/>
</clipPath>
</defs>
</svg>
