<svg width="750" height="540" viewBox="0 0 750 540" fill="none" xmlns="http://www.w3.org/2000/svg">
<g clip-path="url(#clip0_282_513)">
<path d="M226.102 427.335L400.621 532.028" stroke="#002132" stroke-width="4" stroke-miterlimit="10" stroke-linecap="round"/>
<path d="M191.39 432.154L222.807 390.691L227.833 404.006C241.839 426.405 229.473 441.714 205.607 433.346L191.395 432.158L191.39 432.154Z" fill="#002132" stroke="#002132" stroke-width="12" stroke-linecap="round" stroke-linejoin="round"/>
<path d="M191.873 379.122L207.022 393.225C212.153 398.005 212.794 405.896 208.495 411.43C204.392 416.711 197.042 418.223 191.179 414.989L170.374 403.505L191.873 379.118V379.122Z" fill="#002132" stroke="#002132" stroke-width="12" stroke-linecap="round" stroke-linejoin="round"/>
<path d="M291.145 381.766L382.56 530.053" stroke="#002132" stroke-width="4" stroke-miterlimit="10" stroke-linecap="round"/>
<path d="M258.15 366.318C267.757 353.652 282.365 346.992 296.587 345.771C299.111 345.556 301.235 347.641 301.058 350.16L300.383 359.754C309.039 384.337 279.558 395.343 267.919 377.171L259.417 372.382C257.241 371.155 256.648 368.298 258.155 366.313L258.15 366.318Z" fill="#002132" stroke="#002132" stroke-width="12" stroke-linecap="round" stroke-linejoin="round"/>
<path d="M278.1 322.184L285.971 341.305C288.639 347.784 285.918 355.221 279.697 358.465C273.758 361.561 266.447 359.877 262.473 354.496L248.366 335.404L278.1 322.184Z" fill="#002132" stroke="#002132" stroke-width="12" stroke-linecap="round" stroke-linejoin="round"/>
<path d="M522.478 441.729L336.855 528.97" stroke="#002132" stroke-width="4" stroke-miterlimit="10" stroke-linecap="round"/>
<path d="M559.638 453.407L529.541 401.268L522.191 416.401C513.933 433.399 525.342 453.164 543.485 453.293L559.638 453.407Z" fill="#002132" stroke="#002132" stroke-width="12" stroke-linecap="round" stroke-linejoin="round"/>
<path d="M561.412 397.208L544.914 409.717C539.324 413.953 537.895 421.744 541.61 427.683C545.158 433.351 552.317 435.598 558.476 432.969L580.334 423.638L561.412 397.213V397.208Z" fill="#002132" stroke="#002132" stroke-width="12" stroke-linecap="round" stroke-linejoin="round"/>
<path d="M445.829 371.346L360 534" stroke="#002132" stroke-width="4" stroke-miterlimit="10" stroke-linecap="round"/>
<path d="M483.042 364.949C471.015 345.771 449.502 336.835 429.638 336.935L430.718 353.237C431.933 371.547 452.18 382.171 468.505 373.059L483.042 364.949Z" fill="#002132" stroke="#002132" stroke-width="12" stroke-linecap="round" stroke-linejoin="round"/>
<path d="M458.874 311.77L451.003 330.891C448.335 337.37 451.056 344.807 457.277 348.051C463.216 351.147 470.527 349.463 474.501 344.082L488.608 324.99L458.874 311.77Z" fill="#002132" stroke="#002132" stroke-width="12" stroke-linecap="round" stroke-linejoin="round"/>
<path d="M191.036 381.765L132.191 311.77L72.3931 227.109C41.6265 227.949 29.0884 243.964 62.6907 298.383L115.153 360.011L170.379 397.909H185.929L191.041 381.765H191.036Z" fill="#002132" stroke="#002132" stroke-width="12" stroke-linecap="round" stroke-linejoin="round"/>
<path d="M464.091 311.77L481.478 257.58L488.608 204.472C501.309 183.844 515.965 189.893 531.248 204.472L522.478 257.58L482.305 322.189" fill="#002132"/>
<path d="M464.091 311.77L481.478 257.58L488.608 204.472C501.309 183.844 515.965 189.893 531.248 204.472L522.478 257.58L482.305 322.189" stroke="#002132" stroke-width="12" stroke-linecap="round" stroke-linejoin="round"/>
<path d="M577.604 419.826L646.678 390.687L679.931 276.39C670.578 264.406 658.59 258.362 638.563 270.408L619.899 356.347L565.53 397.208L559.939 408.81L577.604 419.821V419.826Z" fill="#002132" stroke="#002132" stroke-width="12" stroke-linecap="round" stroke-linejoin="round"/>
<path d="M257.313 336.935L273.39 322.184L242.882 257.575L229.201 203.508C213.31 187.016 199.811 184.125 191.395 210.082L201.982 274.573L248.371 330.676" fill="#002132"/>
<path d="M257.313 336.935L273.39 322.184L242.882 257.575L229.201 203.508C213.31 187.016 199.811 184.125 191.395 210.082L201.982 274.573L248.371 330.676" stroke="#002132" stroke-width="12" stroke-linecap="round" stroke-linejoin="round"/>
<path d="M284.044 130.04C277.492 160.329 268.957 170.304 257.313 170.304C245.669 170.304 233.394 156.751 225.614 130.04C217.834 103.329 238.692 94.231 254.831 94.231C270.97 94.231 290.6 99.7506 284.048 130.04H284.044Z" fill="#002132" stroke="#002132" stroke-width="12" stroke-linecap="round" stroke-linejoin="round"/>
<path d="M519.456 128.26C511.971 148.723 503.61 158.955 494.375 158.955C480.522 158.955 473.708 145.21 473.708 128.26C473.708 111.31 480.526 97.5654 494.375 97.5654C508.223 97.5654 530.684 97.5654 519.456 128.26Z" fill="#002132" stroke="#002132" stroke-width="12" stroke-linecap="round" stroke-linejoin="round"/>
<path d="M679.931 193.719C679.931 212.157 668.354 227.109 654.07 227.109C639.787 227.109 628.21 225.921 628.21 193.719C628.21 161.517 639.787 160.329 654.07 160.329C668.354 160.329 679.931 175.275 679.931 193.719Z" fill="#002132" stroke="#002132" stroke-width="12" stroke-linecap="round" stroke-linejoin="round"/>
<path d="M111.714 162.375C113.426 190.847 111.514 207.821 88.79 204.162C72.6273 201.557 52.4238 181.22 52.4238 162.375C52.4238 143.531 65.6935 128.255 82.0667 128.255C98.4399 128.255 109.998 133.904 111.71 162.375H111.714Z" fill="#002132" stroke="#002132" stroke-width="12" stroke-linecap="round" stroke-linejoin="round"/>
<path d="M155.024 84.0738C142.304 93.1763 245.21 133.861 322.71 103.214C382.708 79.4844 294.588 59.5142 235.976 76.9559C177.365 94.3976 180.856 75.5342 155.024 84.0738Z" fill="#002132" stroke="#002132" stroke-width="12" stroke-linecap="round" stroke-linejoin="round"/>
<path d="M240.887 73.9599C239.759 67.2046 238.276 60.4207 235.876 54.0041C233.428 47.7974 229.511 42.106 227.159 36.009C224.945 30.0456 223.084 24.1252 220.44 18.2954C217.576 11.8073 214.176 6.17784 209.781 0.018874C225.643 -0.501132 239.08 11.7786 246.061 25.108C250.351 33.0321 250.475 42.4113 250.647 51.1369C250.972 58.7891 251.183 66.322 250.446 73.9265C249.772 79.7229 241.605 79.7229 240.883 73.9599H240.887Z" fill="#002132"/>
<path d="M225.614 85.8346L228.698 61.9906C228.698 61.9906 258.571 51.5571 266.538 54.5388C274.504 57.5205 277.493 89.3124 277.493 89.3124C277.493 89.3124 243.934 103.72 225.609 85.8346H225.614Z" fill="#002132"/>
<path d="M3.71538 123.37C-6.31701 132.473 74.8507 173.157 135.973 142.51C183.294 118.781 113.79 98.8106 67.5631 116.252C21.3366 133.694 24.0862 114.831 3.71538 123.37Z" fill="#002132" stroke="#002132" stroke-width="12" stroke-linecap="round" stroke-linejoin="round"/>
<path d="M66.4249 107.169C66.8409 100.962 66.1141 94.4646 63.9144 88.6301C62.7381 85.6961 61.074 82.9911 59.3286 80.4865C57.2246 77.4237 55.0918 74.3752 53.3225 71.1073C51.1563 67.0236 48.7032 62.9637 46.2023 59.0517C42.8359 53.9089 39.2829 48.9522 35.8161 43.8189C34.7306 42.2732 33.6355 40.6798 32.6074 38.8765C36.629 38.9051 40.5167 39.6064 44.3613 40.7036C55.9287 44.1624 66.5301 51.6619 73.1004 61.8521C77.5428 68.9891 78.5661 77.7815 78.7191 85.9489C78.9917 93.7824 78.4418 101.525 75.9169 108.944L75.6157 109.802C74.8888 112.336 72.2397 113.8 69.7005 113.07C67.1613 112.345 65.6933 109.702 66.4249 107.169Z" fill="#002132"/>
<path d="M59.3911 125.126L61.8251 101.282C61.8251 101.282 85.3902 90.8481 91.6736 93.8298C97.957 96.8115 100.314 128.603 100.314 128.603C100.314 128.603 73.8467 143.011 59.3959 125.126H59.3911Z" fill="#002132"/>
<path d="M573.075 92.6089C583.107 101.711 501.94 142.396 440.818 111.749C393.496 88.0195 463.001 68.0494 509.227 85.491C555.454 102.933 552.704 84.0694 573.075 92.6089Z" fill="#002132" stroke="#002132" stroke-width="12" stroke-linecap="round" stroke-linejoin="round"/>
<path d="M501.174 98.6579C498.396 90.9962 497.789 82.9337 498.071 74.8044C498.224 66.637 499.252 57.8446 503.69 50.7076C512.292 37.4164 528.269 28.0516 544.188 27.7319C541.242 32.6458 537.952 36.9537 534.815 41.6242C531.181 46.9388 527.599 52.3535 524.553 57.9972C522.478 61.9569 520.034 65.6828 517.466 69.3467C515.721 71.8561 514.057 74.5563 512.881 77.4903C510.796 83.0148 510.031 89.1356 510.308 95.0369L510.346 95.5903L510.365 95.8479C510.37 95.9291 510.38 96.0245 510.365 96.0245C511.876 102.155 503.178 104.688 501.174 98.6579Z" fill="#002132"/>
<path d="M524.367 94.3692L521.106 70.5253C521.106 70.5253 489.521 60.0918 481.1 63.0735C472.679 66.0552 469.519 97.8471 469.519 97.8471C469.519 97.8471 504.995 112.255 524.367 94.3692Z" fill="#002132"/>
<path d="M746.514 164.207C755.533 176.654 663.955 214.643 604.99 168.906C559.337 133.498 635.326 119 680.859 146.632C726.392 174.264 726.588 150.992 746.514 164.203V164.207Z" fill="#002132" stroke="#002132" stroke-width="12" stroke-linecap="round" stroke-linejoin="round"/>
<path d="M689.557 151.985L686.296 128.141C686.296 128.141 654.712 117.708 646.291 120.689C637.87 123.671 634.709 155.463 634.709 155.463C634.709 155.463 670.186 169.87 689.557 151.985Z" fill="#002132"/>
<path d="M667.967 144.996C667.685 129.615 680.725 116.205 693.713 109.774C706.901 102.98 723.346 100.972 736.812 108.056C731.006 112.302 724.656 115.174 718.167 117.941C712.343 120.455 706.538 122.268 700.785 124.758C689.103 129.801 678.965 135.826 670.061 145.554L667.967 144.996Z" fill="#002132"/>
<path d="M286.994 170.304C294.258 174.178 303.821 195.579 306.122 203.47C310.162 217.334 315.814 210.397 313.973 233.525C311.095 269.702 291.145 185.089 291.145 185.089L286.989 170.309L286.994 170.304Z" fill="#002132" stroke="#002132" stroke-width="12" stroke-linecap="round" stroke-linejoin="round"/>
<path d="M603.057 256.678L590.897 330.681C590.897 330.681 610.254 279.482 610.254 263.891C610.254 248.301 603.053 256.678 603.053 256.678H603.057Z" fill="#002132" stroke="#002132" stroke-width="12" stroke-linecap="round" stroke-linejoin="round"/>
<path d="M452.916 157.49L390.957 191.2L305.916 169.732L315.695 191.062L388.882 215.039L451.873 197.965C453.633 170.848 458.525 166.688 468.06 157.08C468.06 157.08 459.955 152.429 452.916 157.486V157.49Z" fill="#002132" stroke="#002132" stroke-width="12" stroke-linecap="round" stroke-linejoin="round"/>
</g>
<defs>
<clipPath id="clip0_282_513">
<rect width="750" height="540" fill="white"/>
</clipPath>
</defs>
</svg>
