<svg id="Calque_1" data-name="Calque 1" xmlns="http://www.w3.org/2000/svg" xmlns:xlink="http://www.w3.org/1999/xlink" viewBox="0 0 306.32 306.32"><defs><style>.cls-1{fill:#ebf2fa;}.cls-2{fill:url(#Dégradé_sans_nom_11);}.cls-3{fill:url(#Dégradé_sans_nom_11-2);}.cls-4{fill:url(#Dégradé_sans_nom_11-3);}.cls-5{fill:url(#Dégradé_sans_nom_11-4);}.cls-6{fill:url(#Dégradé_sans_nom_11-5);}</style><linearGradient id="Dégradé_sans_nom_11" x1="-18.95" y1="155.89" x2="698.68" y2="832.63" gradientUnits="userSpaceOnUse"><stop offset="0.01" stop-color="#71c6f0"/><stop offset="1" stop-color="#2d2e83"/></linearGradient><linearGradient id="Dégradé_sans_nom_11-2" x1="29.76" y1="129.43" x2="570.44" y2="639.31" xlink:href="#Dégradé_sans_nom_11"/><linearGradient id="Dégradé_sans_nom_11-3" x1="122.73" y1="-50.28" x2="767.54" y2="557.79" xlink:href="#Dégradé_sans_nom_11"/><linearGradient id="Dégradé_sans_nom_11-4" x1="87.43" y1="43.09" x2="805.05" y2="719.83" xlink:href="#Dégradé_sans_nom_11"/><linearGradient id="Dégradé_sans_nom_11-5" x1="33.5" y1="100.27" x2="751.13" y2="777.01" xlink:href="#Dégradé_sans_nom_11"/></defs><path class="cls-1" d="M353.16,200c0,1.3,0,2.59-.05,3.87s-.08,2.67-.15,4a152.76,152.76,0,0,1-52.4,107.65q-2.34,2.06-4.77,4A153.18,153.18,0,0,1,106,320.92c-1.67-1.29-3.32-2.63-4.93-4-2.12-1.79-4.19-3.65-6.21-5.55q-2.08-2-4.08-4A153.41,153.41,0,0,1,49.5,171.45c.25-1.34.52-2.68.81-4s.52-2.38.81-3.56c.32-1.34.67-2.67,1-4a153.17,153.17,0,0,1,48.51-76.45q2.4-2.06,4.88-4a153.19,153.19,0,0,1,219.36,31.88q1.41,2,2.75,4,2.31,3.47,4.43,7.07c.78,1.32,1.53,2.65,2.27,4A152.3,152.3,0,0,1,353,192.8c.07,1.33.11,2.66.14,4C353.15,197.86,353.16,198.93,353.16,200Z" transform="translate(-46.84 -46.84)"/><path class="cls-2" d="M214.58,328.7H147.89a34.17,34.17,0,0,1-21.8-7.78h29.15a2,2,0,0,0,0-4H121.73a38.13,38.13,0,0,0-25.34-9.55H90.78q2,2,4.08,4h1.53a34.22,34.22,0,0,1,18.76,5.55H101.07c1.61,1.37,3.26,2.71,4.93,4h14.17l.56.53a38.17,38.17,0,0,0,27.16,11.25h66.69a2,2,0,0,0,0-4Z" transform="translate(-46.84 -46.84)"/><path class="cls-3" d="M78,178.38a9,9,0,1,1,9-9A9,9,0,0,1,78,178.38Zm0-22a13,13,0,0,0-12.84,11.07H50.31c-.29,1.32-.56,2.66-.81,4H65.17A13,13,0,1,0,78,156.38Z" transform="translate(-46.84 -46.84)"/><path class="cls-4" d="M298.57,122.39a9,9,0,1,1,9-9A9,9,0,0,1,298.57,122.39Zm33.5,0H307.93a13,13,0,0,0,3.48-7.07h16.23q-1.33-2-2.75-4h-13.5a13,13,0,0,0-25.65.07H268.41a2,2,0,0,0,0,4h17.33a13,13,0,0,0,12.83,11h35.77C333.6,125,332.85,123.71,332.07,122.39Z" transform="translate(-46.84 -46.84)"/><path class="cls-5" d="M172.78,96.56a2,2,0,0,1-2,2H135.67A9.57,9.57,0,0,1,126.11,89a5.57,5.57,0,0,0-5.55-5.56H100.65q2.4-2.06,4.88-4h15A9.57,9.57,0,0,1,130.11,89a5.57,5.57,0,0,0,5.56,5.56h35.11A2,2,0,0,1,172.78,96.56Z" transform="translate(-46.84 -46.84)"/><path class="cls-6" d="M300.56,315.52q-2.34,2.06-4.77,4H270.56a12,12,0,0,1-12-12,8,8,0,0,0-8-8H206.78a2,2,0,1,1,0-4h43.78a12,12,0,0,1,12,12,8,8,0,0,0,8,8Z" transform="translate(-46.84 -46.84)"/><path d="M127.1,175.65a13.61,13.61,0,0,1-5-.9,11.72,11.72,0,0,1-4-2.55,12.05,12.05,0,0,1-2.64-3.86,12.91,12.91,0,0,1,0-9.72,11.89,11.89,0,0,1,6.65-6.41,14.39,14.39,0,0,1,10.1,0,10.56,10.56,0,0,1,4,2.77L134,157.16a9,9,0,0,0-3.06-2.13,9.59,9.59,0,0,0-3.64-.7,10.08,10.08,0,0,0-3.72.68,9,9,0,0,0-3,1.91,8.51,8.51,0,0,0-1.95,2.91,9.89,9.89,0,0,0,0,7.31,8.57,8.57,0,0,0,1.95,2.9,9,9,0,0,0,3,1.91,10.08,10.08,0,0,0,3.72.68,9.59,9.59,0,0,0,3.64-.7,8.58,8.58,0,0,0,3.06-2.16l2.21,2.14a10.5,10.5,0,0,1-4,2.79A13.3,13.3,0,0,1,127.1,175.65Z" transform="translate(-46.84 -46.84)"/><path d="M140.57,175.38V150.15h3.26v25.23Z" transform="translate(-46.84 -46.84)"/><path d="M151.68,153.89a2.17,2.17,0,0,1-1.58-.61,2,2,0,0,1-.63-1.5,2.05,2.05,0,0,1,.63-1.53,2.38,2.38,0,0,1,3.17,0,2,2,0,0,1,.62,1.48,2.12,2.12,0,0,1-2.21,2.17Zm-1.63,21.49v-18h3.27v18Z" transform="translate(-46.84 -46.84)"/><path d="M167,175.58a9.37,9.37,0,0,1-4.67-1.15,8.47,8.47,0,0,1-3.25-3.23,9.55,9.55,0,0,1-1.19-4.83,9.45,9.45,0,0,1,1.19-4.81,8.49,8.49,0,0,1,3.25-3.21,9.38,9.38,0,0,1,4.67-1.16,8.5,8.5,0,0,1,4.19,1,7.22,7.22,0,0,1,2.9,3.06,10.82,10.82,0,0,1,1.07,5.1,10.58,10.58,0,0,1-1.1,5.1,7.61,7.61,0,0,1-2.94,3.08A8.26,8.26,0,0,1,167,175.58Zm.28-2.85a6.09,6.09,0,0,0,3.07-.78,5.64,5.64,0,0,0,2.18-2.23,6.83,6.83,0,0,0,.8-3.35,6.72,6.72,0,0,0-.8-3.35,5.66,5.66,0,0,0-2.18-2.19,6.49,6.49,0,0,0-6.17,0A5.78,5.78,0,0,0,162,163a6.52,6.52,0,0,0-.82,3.35,6.63,6.63,0,0,0,.82,3.35,5.75,5.75,0,0,0,2.17,2.23A6.13,6.13,0,0,0,167.26,172.73Zm6,9.25V170.59l.34-4.19-.2-4.18v-4.86h3.13V182Z" transform="translate(-46.84 -46.84)"/><path d="M190.31,175.58a9.2,9.2,0,0,1-4.07-.85,6.1,6.1,0,0,1-2.72-2.6,9,9,0,0,1-1-4.4V157.36h3.26v10a5.52,5.52,0,0,0,1.27,4,4.73,4.73,0,0,0,3.59,1.33,6,6,0,0,0,3-.7,4.67,4.67,0,0,0,1.94-2,7.12,7.12,0,0,0,.68-3.24v-9.32h3.26v18h-3.09v-4.86l.51,1.29a6.38,6.38,0,0,1-2.65,2.79A8,8,0,0,1,190.31,175.58Z" transform="translate(-46.84 -46.84)"/><path d="M213.77,175.58a10.57,10.57,0,0,1-5.09-1.18,8.7,8.7,0,0,1-3.4-3.27,9.33,9.33,0,0,1-1.2-4.76,9.51,9.51,0,0,1,1.17-4.76,8.54,8.54,0,0,1,3.23-3.25,9.22,9.22,0,0,1,4.64-1.17,9.06,9.06,0,0,1,4.62,1.16,8.19,8.19,0,0,1,3.15,3.24,10.05,10.05,0,0,1,1.14,4.88c0,.14,0,.3,0,.48s0,.35,0,.51H206.63v-2.35h13.63l-1.33.82a6,6,0,0,0-.71-3.1,5.45,5.45,0,0,0-2.06-2.12,5.89,5.89,0,0,0-3-.77,6,6,0,0,0-3,.77,5.4,5.4,0,0,0-2.07,2.14,6.49,6.49,0,0,0-.75,3.15v.54a6.15,6.15,0,0,0,.84,3.21,5.72,5.72,0,0,0,2.32,2.2,7.36,7.36,0,0,0,3.44.78,7.62,7.62,0,0,0,2.91-.54,6.45,6.45,0,0,0,2.29-1.64l1.8,2.11a7.9,7.9,0,0,1-3,2.18A10.56,10.56,0,0,1,213.77,175.58Z" transform="translate(-46.84 -46.84)"/><path d="M224.65,175.38v-2.11l11.56-14.35.64,1.13h-12v-2.69h14.62v2.14l-11.56,14.32-.75-1.13h12.58v2.69Z" transform="translate(-46.84 -46.84)"/><path d="M254.87,153.89a2.17,2.17,0,0,1-1.58-.61,2,2,0,0,1-.63-1.5,2.05,2.05,0,0,1,.63-1.53,2.21,2.21,0,0,1,1.58-.61,2.19,2.19,0,0,1,1.58.6,1.94,1.94,0,0,1,.63,1.48,2.12,2.12,0,0,1-2.21,2.17Zm-1.63,21.49v-18h3.26v18Z" transform="translate(-46.84 -46.84)"/><path d="M270.58,175.58a10,10,0,0,1-4.91-1.18,8.88,8.88,0,0,1-3.39-3.27,9.9,9.9,0,0,1,0-9.52,8.76,8.76,0,0,1,3.39-3.25,10.12,10.12,0,0,1,4.91-1.17,9.52,9.52,0,0,1,4.37,1,6.86,6.86,0,0,1,3,2.87l-2.48,1.6a5.57,5.57,0,0,0-2.16-1.95,6.09,6.09,0,0,0-2.74-.63,6.38,6.38,0,0,0-3.16.78,5.81,5.81,0,0,0-2.21,2.19,6.62,6.62,0,0,0-.81,3.35,6.75,6.75,0,0,0,.81,3.37,5.79,5.79,0,0,0,2.21,2.21,6.38,6.38,0,0,0,3.16.78,6.09,6.09,0,0,0,2.74-.63,5.57,5.57,0,0,0,2.16-1.95l2.48,1.56a7.09,7.09,0,0,1-3,2.87A9.29,9.29,0,0,1,270.58,175.58Z" transform="translate(-46.84 -46.84)"/><path d="M283.53,153.89a2.17,2.17,0,0,1-1.58-.61,2,2,0,0,1-.63-1.5,2.05,2.05,0,0,1,.63-1.53,2.21,2.21,0,0,1,1.58-.61,2.17,2.17,0,0,1,1.58.6,1.94,1.94,0,0,1,.63,1.48,2.12,2.12,0,0,1-2.21,2.17Zm-1.63,21.49v-18h3.27v18Z" transform="translate(-46.84 -46.84)"/><path d="M76.31,222.78V198.16h3.13V203l-.21,4.19.34,4.18v11.39Zm9.55-6.39a8.3,8.3,0,0,1-4.1-1,7.5,7.5,0,0,1-3-3.08,10.57,10.57,0,0,1-1.11-5.1,10.94,10.94,0,0,1,1.07-5.1A7.23,7.23,0,0,1,81.7,199a8.46,8.46,0,0,1,4.16-1,9.35,9.35,0,0,1,4.69,1.16,8.51,8.51,0,0,1,3.23,3.21A9.35,9.35,0,0,1,95,207.17,9.45,9.45,0,0,1,93.78,212a8.49,8.49,0,0,1-3.23,3.23A9.35,9.35,0,0,1,85.86,216.39Zm-.27-2.86a6.19,6.19,0,0,0,3.11-.78,5.7,5.7,0,0,0,2.18-2.23,6.83,6.83,0,0,0,.8-3.35,6.72,6.72,0,0,0-.8-3.35,5.73,5.73,0,0,0-2.18-2.19,6.53,6.53,0,0,0-6.19,0,5.64,5.64,0,0,0-2.17,2.19,6.62,6.62,0,0,0-.8,3.35,6.72,6.72,0,0,0,.8,3.35,5.61,5.61,0,0,0,2.17,2.23A6.16,6.16,0,0,0,85.59,213.53Z" transform="translate(-46.84 -46.84)"/><path d="M107.21,216.39a9.72,9.72,0,0,1-4.81-1.19,8.89,8.89,0,0,1-3.35-3.29,9.24,9.24,0,0,1-1.22-4.74,9.14,9.14,0,0,1,1.22-4.74,8.91,8.91,0,0,1,3.34-3.25,9.65,9.65,0,0,1,4.82-1.19,9.79,9.79,0,0,1,4.81,1.17,8.69,8.69,0,0,1,3.34,3.25,10,10,0,0,1,0,9.52A8.82,8.82,0,0,1,112,215.2,9.69,9.69,0,0,1,107.21,216.39Zm0-2.86a6.16,6.16,0,0,0,3.11-.78,5.52,5.52,0,0,0,2.16-2.23,6.94,6.94,0,0,0,.79-3.35,6.83,6.83,0,0,0-.79-3.35,5.55,5.55,0,0,0-2.16-2.19,6.55,6.55,0,0,0-6.2,0,5.87,5.87,0,0,0-2.18,2.19,6.62,6.62,0,0,0-.81,3.35,6.73,6.73,0,0,0,.81,3.35,5.84,5.84,0,0,0,2.18,2.23A6.12,6.12,0,0,0,107.21,213.53Z" transform="translate(-46.84 -46.84)"/><path d="M128.67,216.39a9.34,9.34,0,0,1-4.07-.85,6.17,6.17,0,0,1-2.72-2.61,9,9,0,0,1-1-4.4V198.16h3.26v10a5.55,5.55,0,0,0,1.27,4,4.76,4.76,0,0,0,3.59,1.32,6,6,0,0,0,3-.7,4.67,4.67,0,0,0,1.94-2,7.12,7.12,0,0,0,.68-3.24v-9.32h3.26v18h-3.09v-4.86l.51,1.29a6.38,6.38,0,0,1-2.65,2.79A8,8,0,0,1,128.67,216.39Z" transform="translate(-46.84 -46.84)"/><path d="M144.1,216.18v-18h3.13v4.9l-.31-1.23a5.53,5.53,0,0,1,2.52-2.85,8.8,8.8,0,0,1,4.35-1v3.16a2.56,2.56,0,0,0-.39,0H153a5.53,5.53,0,0,0-4.14,1.56,6.22,6.22,0,0,0-1.53,4.53v9Z" transform="translate(-46.84 -46.84)"/><path d="M174.63,216.39a9.38,9.38,0,0,1-4.67-1.16,8.54,8.54,0,0,1-3.25-3.23,9.55,9.55,0,0,1-1.19-4.83,9.45,9.45,0,0,1,1.19-4.81,8.56,8.56,0,0,1,3.25-3.21,9.38,9.38,0,0,1,4.67-1.16,8.36,8.36,0,0,1,4.12,1,7.49,7.49,0,0,1,2.94,3.06,10.58,10.58,0,0,1,1.1,5.1,10.82,10.82,0,0,1-1.07,5.1,7.33,7.33,0,0,1-2.9,3.08A8.4,8.4,0,0,1,174.63,216.39Zm.28-2.86a6.09,6.09,0,0,0,3.07-.78,5.64,5.64,0,0,0,2.18-2.23,6.83,6.83,0,0,0,.8-3.35,6.72,6.72,0,0,0-.8-3.35,5.66,5.66,0,0,0-2.18-2.19,6.49,6.49,0,0,0-6.17,0,5.85,5.85,0,0,0-2.17,2.19,6.52,6.52,0,0,0-.82,3.35,6.63,6.63,0,0,0,.82,3.35,5.82,5.82,0,0,0,2.17,2.23A6.13,6.13,0,0,0,174.91,213.53Zm6.15,2.65v-4.86l.2-4.18-.34-4.18V191h3.27v25.23Z" transform="translate(-46.84 -46.84)"/><path d="M198.4,216.39a10.5,10.5,0,0,1-5.08-1.19,8.57,8.57,0,0,1-3.4-3.27,9.23,9.23,0,0,1-1.21-4.76,9.51,9.51,0,0,1,1.17-4.76,8.54,8.54,0,0,1,3.23-3.25,9.22,9.22,0,0,1,4.64-1.17,9.12,9.12,0,0,1,4.63,1.16,8.23,8.23,0,0,1,3.14,3.24,10.08,10.08,0,0,1,1.14,4.88,4.19,4.19,0,0,1,0,.48,4,4,0,0,1,0,.51H191.26v-2.35h13.63l-1.32.82a6,6,0,0,0-.72-3.09,5.46,5.46,0,0,0-2-2.13,6.44,6.44,0,0,0-6.07,0,5.36,5.36,0,0,0-2.08,2.14,6.49,6.49,0,0,0-.74,3.15v.54a6.14,6.14,0,0,0,.83,3.21,5.62,5.62,0,0,0,2.33,2.2,7.29,7.29,0,0,0,3.43.78,7.54,7.54,0,0,0,2.91-.54,6.36,6.36,0,0,0,2.29-1.64l1.8,2.11a7.9,7.9,0,0,1-3,2.18A10.53,10.53,0,0,1,198.4,216.39Zm-3.23-20.85,4.62-4.42h4.15l-5.71,4.42Z" transform="translate(-46.84 -46.84)"/><path d="M219,216.39a10.06,10.06,0,0,1-4.92-1.19,8.85,8.85,0,0,1-3.38-3.27,9.9,9.9,0,0,1,0-9.52,8.73,8.73,0,0,1,3.38-3.25A10.16,10.16,0,0,1,219,198a9.55,9.55,0,0,1,4.37,1,6.86,6.86,0,0,1,3,2.87l-2.48,1.6a5.57,5.57,0,0,0-2.16-2,6.09,6.09,0,0,0-2.74-.63,6.35,6.35,0,0,0-3.16.78,5.74,5.74,0,0,0-2.21,2.19,6.62,6.62,0,0,0-.82,3.35,6.75,6.75,0,0,0,.82,3.37,5.72,5.72,0,0,0,2.21,2.21,6.35,6.35,0,0,0,3.16.78,6.09,6.09,0,0,0,2.74-.63,5.57,5.57,0,0,0,2.16-2l2.48,1.56a7.09,7.09,0,0,1-3,2.87A9.32,9.32,0,0,1,219,216.39Z" transform="translate(-46.84 -46.84)"/><path d="M238,216.39a9.72,9.72,0,0,1-4.81-1.19,8.89,8.89,0,0,1-3.35-3.29,9.24,9.24,0,0,1-1.22-4.74,9.14,9.14,0,0,1,1.22-4.74,8.91,8.91,0,0,1,3.34-3.25A9.65,9.65,0,0,1,238,198a9.79,9.79,0,0,1,4.81,1.17,8.69,8.69,0,0,1,3.34,3.25,10,10,0,0,1,0,9.52,8.82,8.82,0,0,1-3.34,3.27A9.69,9.69,0,0,1,238,216.39Zm0-2.86a6.16,6.16,0,0,0,3.11-.78,5.52,5.52,0,0,0,2.16-2.23,6.94,6.94,0,0,0,.79-3.35,6.83,6.83,0,0,0-.79-3.35,5.55,5.55,0,0,0-2.16-2.19,6.55,6.55,0,0,0-6.2,0,5.87,5.87,0,0,0-2.18,2.19,6.62,6.62,0,0,0-.81,3.35,6.73,6.73,0,0,0,.81,3.35,5.84,5.84,0,0,0,2.18,2.23A6.12,6.12,0,0,0,238,213.53Z" transform="translate(-46.84 -46.84)"/><path d="M259.5,216.39a9.34,9.34,0,0,1-4.07-.85,6.17,6.17,0,0,1-2.72-2.61,9,9,0,0,1-1-4.4V198.16H255v10a5.55,5.55,0,0,0,1.27,4,4.76,4.76,0,0,0,3.59,1.32,6,6,0,0,0,3-.7,4.67,4.67,0,0,0,1.94-2,7.12,7.12,0,0,0,.68-3.24v-9.32h3.26v18h-3.09v-4.86l.51,1.29a6.38,6.38,0,0,1-2.65,2.79A8,8,0,0,1,259.5,216.39Z" transform="translate(-46.84 -46.84)"/><path d="M279.66,216.18l-7.89-18h3.4l7,16.32h-1.63l7.14-16.32h3.2l-7.89,18Z" transform="translate(-46.84 -46.84)"/><path d="M293.94,216.18v-18h3.13v4.9l-.31-1.23a5.53,5.53,0,0,1,2.52-2.85,8.8,8.8,0,0,1,4.35-1v3.16l-.39,0h-.36a5.54,5.54,0,0,0-4.15,1.56,6.22,6.22,0,0,0-1.53,4.53v9Z" transform="translate(-46.84 -46.84)"/><path d="M309.27,194.69a2.17,2.17,0,0,1-1.58-.61,2.12,2.12,0,0,1,0-3,2.35,2.35,0,0,1,3.16,0,2,2,0,0,1,.63,1.48,2.1,2.1,0,0,1-.61,1.54A2.13,2.13,0,0,1,309.27,194.69Zm-1.63,21.49v-18h3.26v18Z" transform="translate(-46.84 -46.84)"/><path d="M317.12,216.18v-18h3.13v4.9l-.3-1.23a5.51,5.51,0,0,1,2.51-2.85,8.81,8.81,0,0,1,4.36-1v3.16l-.4,0h-.35a5.54,5.54,0,0,0-4.15,1.56,6.22,6.22,0,0,0-1.53,4.53v9Z" transform="translate(-46.84 -46.84)"/><path d="M97.88,238.79a8.6,8.6,0,0,1,3.89.85,6.11,6.11,0,0,1,2.64,2.59,9,9,0,0,1,1,4.38V257H102.1V247a5.5,5.5,0,0,0-1.28-4,4.75,4.75,0,0,0-3.59-1.32,6.32,6.32,0,0,0-3,.68,4.63,4.63,0,0,0-2,2,7,7,0,0,0-.7,3.3V257H88.26V239h3.13v4.86l-.51-1.29a6.23,6.23,0,0,1,2.72-2.75A8.87,8.87,0,0,1,97.88,238.79Z" transform="translate(-46.84 -46.84)"/><path d="M119.13,257.19a9.72,9.72,0,0,1-4.81-1.19,8.82,8.82,0,0,1-3.35-3.29,9.15,9.15,0,0,1-1.22-4.74,8.86,8.86,0,0,1,4.55-8,9.71,9.71,0,0,1,4.83-1.19,9.81,9.81,0,0,1,4.81,1.17,8.6,8.6,0,0,1,3.33,3.25,10,10,0,0,1,0,9.52,8.72,8.72,0,0,1-3.33,3.27A9.72,9.72,0,0,1,119.13,257.19Zm0-2.86a6.19,6.19,0,0,0,3.11-.78,5.52,5.52,0,0,0,2.16-2.23,6.94,6.94,0,0,0,.78-3.35,6.83,6.83,0,0,0-.78-3.35,5.55,5.55,0,0,0-2.16-2.19,6.19,6.19,0,0,0-3.11-.78,6.06,6.06,0,0,0-3.09.78,5.8,5.8,0,0,0-2.18,2.19A6.62,6.62,0,0,0,113,248a6.73,6.73,0,0,0,.82,3.35,5.77,5.77,0,0,0,2.18,2.23A6.06,6.06,0,0,0,119.13,254.33Z" transform="translate(-46.84 -46.84)"/><path d="M130.42,241.65V239h11.49v2.69Zm8.77,15.54a5.78,5.78,0,0,1-4.22-1.47,5.59,5.59,0,0,1-1.49-4.18V235h3.26v16.39a3.15,3.15,0,0,0,.73,2.24,2.74,2.74,0,0,0,2.09.78,3.83,3.83,0,0,0,2.55-.85l1,2.35a4.69,4.69,0,0,1-1.78.95A7.72,7.72,0,0,1,139.19,257.19Z" transform="translate(-46.84 -46.84)"/><path d="M147.08,257V239h3.13v4.9l-.31-1.23a5.57,5.57,0,0,1,2.52-2.85,8.75,8.75,0,0,1,4.35-1V242l-.39,0H156a5.54,5.54,0,0,0-4.15,1.56,6.22,6.22,0,0,0-1.53,4.53v9Z" transform="translate(-46.84 -46.84)"/><path d="M168.63,257.19a10.53,10.53,0,0,1-5.08-1.19,8.64,8.64,0,0,1-3.4-3.27,10.08,10.08,0,0,1,0-9.52,8.47,8.47,0,0,1,3.23-3.25,9.78,9.78,0,0,1,9.26,0,8.19,8.19,0,0,1,3.15,3.24,10.08,10.08,0,0,1,1.14,4.88c0,.14,0,.3,0,.48s0,.35,0,.51H161.49v-2.35h13.64l-1.33.82a6,6,0,0,0-.71-3.09,5.48,5.48,0,0,0-2.06-2.13,6.44,6.44,0,0,0-6.07,0,5.46,5.46,0,0,0-2.07,2.14,6.49,6.49,0,0,0-.75,3.15v.54a6.24,6.24,0,0,0,.83,3.21,5.68,5.68,0,0,0,2.33,2.2,7.33,7.33,0,0,0,3.44.78,7.53,7.53,0,0,0,2.9-.54,6.49,6.49,0,0,0,2.3-1.64l1.8,2.11a8,8,0,0,1-3,2.18A10.61,10.61,0,0,1,168.63,257.19Z" transform="translate(-46.84 -46.84)"/><path d="M200.19,238.79a8.6,8.6,0,0,1,3.89.85,6.09,6.09,0,0,1,2.63,2.59,8.93,8.93,0,0,1,1,4.38V257H204.4V247a5.5,5.5,0,0,0-1.27-4,4.76,4.76,0,0,0-3.59-1.32,6.33,6.33,0,0,0-3,.68,4.69,4.69,0,0,0-2,2,7.13,7.13,0,0,0-.69,3.3V257h-3.27V231.75h3.27v12.07l-.65-1.29a6.28,6.28,0,0,1,2.72-2.75A8.91,8.91,0,0,1,200.19,238.79Z" transform="translate(-46.84 -46.84)"/><path d="M215.35,235.49a2.16,2.16,0,0,1-1.58-.61,2,2,0,0,1-.63-1.49,2,2,0,0,1,.63-1.53,2.16,2.16,0,0,1,1.58-.62,2.21,2.21,0,0,1,1.58.6,2,2,0,0,1,.63,1.48,2.12,2.12,0,0,1-2.21,2.17ZM213.72,257V239H217v18Z" transform="translate(-46.84 -46.84)"/><path d="M228.37,257.19a14.6,14.6,0,0,1-4.27-.62,9.82,9.82,0,0,1-3.18-1.49l1.36-2.59a10.86,10.86,0,0,0,2.86,1.33,11.38,11.38,0,0,0,3.47.54,6.3,6.3,0,0,0,3.28-.64,2,2,0,0,0,1-1.8,1.58,1.58,0,0,0-.61-1.33,4,4,0,0,0-1.62-.71c-.66-.16-1.41-.3-2.22-.43s-1.63-.28-2.45-.48a9.58,9.58,0,0,1-2.24-.81,4.29,4.29,0,0,1-1.64-1.46,4.6,4.6,0,0,1-.61-2.5,4.66,4.66,0,0,1,.92-2.86,5.83,5.83,0,0,1,2.6-1.88,10.7,10.7,0,0,1,4-.67,15.35,15.35,0,0,1,3.58.43,8.91,8.91,0,0,1,3,1.2l-1.4,2.59a7.4,7.4,0,0,0-2.55-1.12,11.35,11.35,0,0,0-2.65-.31,5.78,5.78,0,0,0-3.19.7,2.06,2.06,0,0,0-1.06,1.78,1.69,1.69,0,0,0,.63,1.41,4.49,4.49,0,0,0,1.63.77,21.77,21.77,0,0,0,2.23.46c.82.12,1.63.28,2.45.47a10.19,10.19,0,0,1,2.22.8,4.36,4.36,0,0,1,1.64,1.43,4.26,4.26,0,0,1,.63,2.45,4.34,4.34,0,0,1-1,2.82,6.15,6.15,0,0,1-2.68,1.85A11.68,11.68,0,0,1,228.37,257.19Z" transform="translate(-46.84 -46.84)"/><path d="M237.65,241.65V239h11.49v2.69Zm8.77,15.54a5.75,5.75,0,0,1-4.21-1.47,5.55,5.55,0,0,1-1.5-4.18V235H244v16.39a3.15,3.15,0,0,0,.73,2.24,2.71,2.71,0,0,0,2.09.78,3.83,3.83,0,0,0,2.55-.85l1,2.35a4.74,4.74,0,0,1-1.79.95A7.72,7.72,0,0,1,246.42,257.19Z" transform="translate(-46.84 -46.84)"/><path d="M261.42,257.19a9.69,9.69,0,0,1-4.81-1.19,8.75,8.75,0,0,1-3.35-3.29A9.15,9.15,0,0,1,252,248a9.05,9.05,0,0,1,1.23-4.74,8.88,8.88,0,0,1,3.33-3.25,9.66,9.66,0,0,1,4.83-1.19,9.81,9.81,0,0,1,4.81,1.17,8.67,8.67,0,0,1,3.33,3.25,10,10,0,0,1,0,9.52,8.79,8.79,0,0,1-3.33,3.27A9.72,9.72,0,0,1,261.42,257.19Zm0-2.86a6.22,6.22,0,0,0,3.11-.78,5.52,5.52,0,0,0,2.16-2.23,6.94,6.94,0,0,0,.78-3.35,6.83,6.83,0,0,0-.78-3.35,5.55,5.55,0,0,0-2.16-2.19,6.22,6.22,0,0,0-3.11-.78,6.13,6.13,0,0,0-3.1.78,5.85,5.85,0,0,0-2.17,2.19,6.52,6.52,0,0,0-.82,3.35,6.63,6.63,0,0,0,.82,3.35,5.82,5.82,0,0,0,2.17,2.23A6.13,6.13,0,0,0,261.42,254.33Z" transform="translate(-46.84 -46.84)"/><path d="M276.92,235.49a2.17,2.17,0,0,1-1.58-.61,2,2,0,0,1-.63-1.49,2,2,0,0,1,.63-1.53,2.35,2.35,0,0,1,3.16,0,2,2,0,0,1,.63,1.48,2.1,2.1,0,0,1-.61,1.54A2.13,2.13,0,0,1,276.92,235.49ZM275.29,257V239h3.26v18Z" transform="translate(-46.84 -46.84)"/><path d="M284.77,257V239h3.13v4.9l-.3-1.23a5.5,5.5,0,0,1,2.51-2.85,8.8,8.8,0,0,1,4.35-1V242l-.39,0h-.35a5.54,5.54,0,0,0-4.15,1.56A6.22,6.22,0,0,0,288,248v9Z" transform="translate(-46.84 -46.84)"/><path d="M306.33,257.19a10.5,10.5,0,0,1-5.08-1.19,8.64,8.64,0,0,1-3.4-3.27,9.23,9.23,0,0,1-1.21-4.76,9.51,9.51,0,0,1,1.17-4.76A8.61,8.61,0,0,1,301,240a9.25,9.25,0,0,1,4.64-1.17,9.12,9.12,0,0,1,4.63,1.16,8.16,8.16,0,0,1,3.14,3.24,10.08,10.08,0,0,1,1.14,4.88c0,.14,0,.3,0,.48s0,.35-.06.51H299.19v-2.35h13.64l-1.33.82a6.13,6.13,0,0,0-.71-3.09,5.48,5.48,0,0,0-2.06-2.13,6.44,6.44,0,0,0-6.07,0,5.42,5.42,0,0,0-2.08,2.14,6.6,6.6,0,0,0-.74,3.15v.54a6.14,6.14,0,0,0,.83,3.21,5.62,5.62,0,0,0,2.33,2.2,7.32,7.32,0,0,0,3.43.78,7.54,7.54,0,0,0,2.91-.54,6.36,6.36,0,0,0,2.29-1.64l1.81,2.11a7.94,7.94,0,0,1-3.05,2.18A10.53,10.53,0,0,1,306.33,257.19Z" transform="translate(-46.84 -46.84)"/></svg>