<svg width="159" height="116" viewBox="0 0 159 116" fill="none" xmlns="http://www.w3.org/2000/svg">
<g clip-path="url(#clip0_597_264)">
<path d="M42.665 35.6707L79.5037 61.7249L116.335 35.6707" stroke="white" stroke-width="15" stroke-linecap="round" stroke-linejoin="round"/>
<path d="M5.82666 95.221V20.7791C5.82666 16.8234 7.38174 13.0297 10.1498 10.2325C12.9179 7.43542 16.6723 5.86401 20.587 5.86401H138.413C142.328 5.86401 146.082 7.43542 148.851 10.2325C151.619 13.0297 153.174 16.8234 153.174 20.7791V95.221C153.174 99.1767 151.619 102.97 148.851 105.768C146.082 108.565 142.328 110.136 138.413 110.136H20.5637C16.653 110.13 12.9047 108.556 10.1416 105.759C7.37853 102.963 5.82666 99.1726 5.82666 95.221Z" stroke="white" stroke-width="15"/>
</g>
<defs>
<clipPath id="clip0_597_264">
<rect width="159" height="116" fill="white"/>
</clipPath>
</defs>
</svg>
