<svg width="205" height="205" viewBox="0 0 205 205" fill="none" xmlns="http://www.w3.org/2000/svg">
<g clip-path="url(#clip0_1116_67)">
<path d="M102.17 144.24C110.494 144.242 118.631 141.776 125.552 137.153C132.474 132.529 137.869 125.958 141.055 118.268C144.241 110.579 145.075 102.117 143.452 93.9531C141.829 85.7895 137.821 78.2906 131.935 72.405C126.05 66.5194 118.551 62.5115 110.387 60.8882C102.223 59.2648 93.7617 60.099 86.0721 63.2852C78.3826 66.4713 71.8107 71.8664 67.1877 78.7879C62.5646 85.7095 60.0981 93.8466 60.1001 102.17C60.1001 113.328 64.5325 124.028 72.4221 131.918C80.3118 139.808 91.0124 144.24 102.17 144.24Z" stroke="white" stroke-width="15" stroke-linecap="round" stroke-linejoin="round"/>
<path d="M7.5 144.24V60.09C7.50265 46.1413 13.0456 32.7649 22.9097 22.9026C32.7739 13.0404 46.1513 7.5 60.1 7.5H144.24C158.189 7.5 171.566 13.0404 181.43 22.9026C191.294 32.7649 196.837 46.1413 196.84 60.09V144.24C196.84 151.147 195.479 157.986 192.836 164.368C190.192 170.749 186.318 176.547 181.433 181.43C176.549 186.314 170.75 190.187 164.368 192.83C157.987 195.472 151.147 196.831 144.24 196.83H60.1C53.1929 196.831 46.3533 195.472 39.9716 192.83C33.59 190.187 27.7913 186.314 22.9068 181.43C18.0223 176.547 14.1476 170.749 11.5041 164.368C8.86057 157.986 7.5 151.147 7.5 144.24Z" stroke="white" stroke-width="15"/>
<path d="M160.02 44.4198L160.13 44.2998" stroke="white" stroke-width="15" stroke-linecap="round" stroke-linejoin="round"/>
</g>
<defs>
<clipPath id="clip0_1116_67">
<rect width="204.33" height="204.33" fill="white"/>
</clipPath>
</defs>
</svg>
