<svg width="282" height="302" viewBox="0 0 282 302" fill="none" xmlns="http://www.w3.org/2000/svg">
<path d="M141 206.452C171.961 206.452 197.06 181.243 197.06 150.147C197.06 119.05 171.961 93.8418 141 93.8418C110.039 93.8418 84.9397 119.05 84.9397 150.147C84.9397 181.243 110.039 206.452 141 206.452Z" stroke="#7DD4FF" stroke-width="21" stroke-linecap="round" stroke-linejoin="round"/>
<path d="M13.5903 207.021V93.2729C13.5903 54.0098 45.2811 22.1807 84.3735 22.1807H197.626C236.719 22.1807 268.41 54.0098 268.41 93.2729V207.021C268.41 246.283 236.719 278.113 197.626 278.113H84.3735C45.2811 278.113 13.5903 246.283 13.5903 207.021Z" stroke="#7DD4FF" stroke-width="21"/>
<path d="M217.446 71.6611H219.145" stroke="#7DD4FF" stroke-width="21" stroke-linecap="round" stroke-linejoin="round"/>
</svg>
