<svg width="42" height="42" viewBox="0 0 42 42" fill="none" xmlns="http://www.w3.org/2000/svg">
<path d="M9 11.0258L9.0237 11" stroke="white" stroke-width="2" stroke-linecap="round" stroke-linejoin="round"/>
<path d="M41 12.1111V29.8889C41 32.8357 39.8294 35.6619 37.7456 37.7456C35.6619 39.8294 32.8357 41 29.8889 41H12.1111C9.16444 40.9994 6.33861 39.8286 4.25499 37.745C2.17137 35.6614 1.00056 32.8356 1 29.8889V12.1111C1.00056 9.16443 2.17137 6.3386 4.25499 4.25499C6.33861 2.17137 9.16444 1.00056 12.1111 1H29.8889C32.8357 1 35.6619 2.17063 37.7456 4.25437C39.8294 6.33811 41 9.16426 41 12.1111Z" stroke="white" stroke-width="2" stroke-linecap="round" stroke-linejoin="round"/>
<path d="M9 33V17" stroke="white" stroke-width="2" stroke-linecap="round" stroke-linejoin="round"/>
<path d="M19 33V25.5725M19 25.5725V17M19 25.5725C19 17 33 17 33 25.5725V33" stroke="white" stroke-width="2" stroke-linecap="round" stroke-linejoin="round"/>
</svg>
