<svg width="1026" height="425" viewBox="0 0 1026 425" fill="none" xmlns="http://www.w3.org/2000/svg">
<path d="M842.316 174.537V168.036C842.316 136.062 808.442 110.138 766.663 110.138V66.1921C766.663 41.4754 740.485 21.4414 708.188 21.4414H443.865C411.568 21.4414 385.39 41.4754 385.39 66.1921H283.685C241.906 66.1921 208.032 92.1156 208.032 124.09V174.537H123.653C81.8736 174.537 48 200.46 48 232.434V283.863C48 315.837 81.8736 341.76 123.653 341.76H883.465C925.244 341.76 959.118 315.837 959.118 283.863V232.434C959.118 200.46 925.244 174.537 883.465 174.537H842.316Z" fill="#BCE9FF"/>
<path d="M817.316 196.743V190.242C817.316 158.268 783.442 132.345 741.663 132.345V88.3986C741.663 63.6819 715.485 43.6479 683.188 43.6479H418.865C386.568 43.6479 360.39 63.6819 360.39 88.3986H258.685C216.906 88.3986 183.032 114.322 183.032 146.296V196.743H98.6531C56.8736 196.743 23 222.667 23 254.641V306.069C23 338.043 56.8736 363.967 98.6531 363.967H858.465C900.244 363.967 934.118 338.043 934.118 306.069V254.641C934.118 222.667 900.244 196.743 858.465 196.743H817.316Z" fill="#EBF2FA"/>
</svg>
