<svg width="850" height="521" viewBox="0 0 850 521" fill="none" xmlns="http://www.w3.org/2000/svg">
<path d="M125.89 222.539V215.212C125.89 179.177 155.15 149.961 191.238 149.961V100.434C191.238 72.5784 213.85 50 241.747 50H470.062C497.959 50 520.571 72.5784 520.571 100.434H608.421C644.509 100.434 673.768 129.65 673.768 165.685V222.539H746.653C782.741 222.539 812 251.754 812 287.789V345.749C812 381.784 782.741 411 746.653 411H90.3472C54.2591 411 25 381.784 25 345.749V287.789C25 251.754 54.2591 222.539 90.3472 222.539H125.89Z" fill="#BCE9FF"/>
<path d="M100.89 236.539V229.212C100.89 193.177 130.15 163.961 166.238 163.961V114.434C166.238 86.5784 188.85 64 216.747 64H445.062C472.959 64 495.571 86.5784 495.571 114.434H583.421C619.509 114.434 648.768 143.65 648.768 179.685V236.539H721.653C757.741 236.539 787 265.754 787 301.789V359.749C787 395.784 757.741 425 721.653 425H65.3472C29.2591 425 0 395.784 0 359.749V301.789C0 265.754 29.2591 236.539 65.3472 236.539H100.89Z" fill="#EBF2FA"/>
</svg>
