<svg width="955" height="428" viewBox="0 0 955 428" fill="none" xmlns="http://www.w3.org/2000/svg">
<path d="M702.5 174.304V173.464C702.5 133.747 670.287 101.554 630.547 101.554H527.349V99.1375C527.349 48.8091 486.516 8 436.158 8H263.383C213.025 8 172.192 48.8091 172.192 99.1375V174.304C121.833 174.304 81 215.092 81 265.421V272.671C81 322.999 121.833 363.808 172.192 363.808H771.592C811.332 363.808 843.545 331.615 843.545 291.898V246.214C843.545 206.498 811.332 174.304 771.592 174.304H702.5Z" fill="#BCE9FF"/>
<path d="M680.5 198.304V197.464C680.5 157.747 648.287 125.554 608.547 125.554H505.349V123.138C505.349 72.8091 464.516 32 414.158 32H241.383C191.025 32 150.192 72.8091 150.192 123.138V198.304C99.8333 198.304 59 239.092 59 289.421V296.671C59 346.999 99.8333 387.808 150.192 387.808H749.592C789.332 387.808 821.545 355.615 821.545 315.898V270.214C821.545 230.498 789.332 198.304 749.592 198.304H680.5Z" fill="#EBF2FA"/>
</svg>
