<svg width="721" height="323" viewBox="0 0 721 323" fill="none" xmlns="http://www.w3.org/2000/svg">
<path d="M226.241 129.655V129.021C226.241 99.0476 250.56 74.7522 280.563 74.7522H358.474V72.9284C358.474 34.9469 389.303 4.14941 427.322 4.14941H557.762C595.781 4.14941 626.609 34.9469 626.609 72.9284V129.655C664.628 129.655 695.457 160.437 695.457 198.418V203.889C695.457 241.871 664.628 272.668 626.609 272.668H174.077C144.075 272.668 119.755 248.373 119.755 218.4V183.923C119.755 153.95 144.075 129.655 174.077 129.655H226.241Z" fill="#BCE9FF"/>
<path d="M207.241 149.655V149.021C207.241 119.048 231.56 94.7522 261.563 94.7522H339.474V92.9284C339.474 54.9469 370.303 24.1494 408.322 24.1494H538.762C576.781 24.1494 607.609 54.9469 607.609 92.9284V149.655C645.628 149.655 676.457 180.437 676.457 218.418V223.889C676.457 261.871 645.628 292.668 607.609 292.668H155.077C125.075 292.668 100.755 268.373 100.755 238.4V203.923C100.755 173.95 125.075 149.655 155.077 149.655H207.241Z" fill="#EBF2FA"/>
</svg>
