<svg id="Calque_1" data-name="Calque 1" xmlns="http://www.w3.org/2000/svg" viewBox="0 0 167.47 89.5"><defs><style>.cls-1{fill:#71c6f0;}.cls-2{fill:#29235c;}.cls-3{fill:#2d2e82;}</style></defs><path class="cls-1" d="M173.84,226.58A28.75,28.75,0,0,0,165.35,247v2.38H115.42V236.16a26.42,26.42,0,0,1,26.41-26.41h7.4A26.39,26.39,0,0,1,173.84,226.58Z" transform="translate(-115.42 -171.89)"/><path class="cls-2" d="M282.89,233.26v13.21H235.06a28.75,28.75,0,0,0-10.89-22,26.41,26.41,0,0,1,24.9-17.61h7.4A26.41,26.41,0,0,1,282.89,233.26Z" transform="translate(-115.42 -171.89)"/><path class="cls-3" d="M230.32,248.18v13.21H170.1V248.18a26.42,26.42,0,0,1,26.41-26.41h7.39a26.39,26.39,0,0,1,26.4,25.89A4.35,4.35,0,0,1,230.32,248.18Z" transform="translate(-115.42 -171.89)"/><circle class="cls-1" cx="42.47" cy="14.83" r="14.66"/><circle class="cls-3" cx="84.58" cy="28.83" r="14.66"/><circle class="cls-2" cx="130.25" cy="14.66" r="14.66"/></svg>