<svg width="233" height="789" viewBox="0 0 233 789" fill="none" xmlns="http://www.w3.org/2000/svg">
<g filter="url(#filter0_d_1523_683)">
<rect width="225" height="781" transform="translate(4)" fill="white"/>
<g clip-path="url(#clip0_1523_683)">
<rect width="61" height="75" transform="translate(86 191)" fill="#E4D288"/>
<path d="M118 245L131.856 269H104.144L118 245Z" fill="#DFC500"/>
<path d="M90 245L103.856 269H76.1436L90 245Z" fill="#DFC500"/>
<path d="M76 221L89.8564 245H62.1436L76 221Z" fill="#DFC500"/>
<path d="M118 197L131.856 221H104.144L118 197Z" fill="#DFC500"/>
<path d="M132 221L145.856 245H118.144L132 221Z" fill="#DFC500"/>
<path d="M90 197L103.856 221H76.1436L90 197Z" fill="#DFC500"/>
<path d="M104 173L117.856 197H90.1436L104 173Z" fill="#DFC500"/>
<path d="M76 173L89.8564 197H62.1436L76 173Z" fill="#DFC500"/>
<path d="M132 173L145.856 197H118.144L132 173Z" fill="#DFC500"/>
<path d="M146 245L159.856 269H132.144L146 245Z" fill="#DFC500"/>
<path d="M104 221L117.856 245H90.1436L104 221Z" fill="#DFC500"/>
<path d="M146 197L159.856 221H132.144L146 197Z" fill="#DFC500"/>
</g>
<g clip-path="url(#clip1_1523_683)">
<rect width="61" height="75" transform="translate(19 191)" fill="#51B573"/>
<circle cx="36" cy="262" r="59" fill="#0A6610"/>
<circle cx="60" cy="272" r="42" fill="#5DA268"/>
</g>
<g clip-path="url(#clip2_1523_683)">
<rect width="61" height="75" transform="translate(153 191)" fill="#7DA2FF"/>
<rect x="101" y="278.926" width="158.287" height="77.8871" transform="rotate(-45 101 278.926)" fill="#535CFE"/>
<rect x="138" y="270.646" width="114.052" height="47.069" transform="rotate(-45 138 270.646)" fill="#1C3EAE"/>
<rect x="129.425" y="307.351" width="158.287" height="37.6873" transform="rotate(-45 129.425 307.351)" fill="#122E4E"/>
</g>
<rect width="61" height="75" transform="translate(19 25)" fill="url(#paint0_linear_1523_683)"/>
<path d="M36.5 69L39.7555 79.0193L50.2903 79.0193L41.7674 85.2115L45.0229 95.2307L36.5 89.0385L27.9771 95.2307L31.2326 85.2115L22.7097 79.0193L33.2445 79.0193L36.5 69Z" fill="#D9D9D9"/>
<path d="M46.5 61L48.1839 66.1824H53.6329L49.2245 69.3853L50.9084 74.5676L46.5 71.3647L42.0916 74.5676L43.7755 69.3853L39.3671 66.1824H44.8161L46.5 61Z" fill="#D9D9D9"/>
<g clip-path="url(#clip3_1523_683)">
<rect width="61" height="75" transform="translate(19 108)" fill="#51B2B5"/>
<path d="M51 162L64.8564 186H37.1436L51 162Z" fill="#85EBF3"/>
<path d="M23 162L36.8564 186H9.14359L23 162Z" fill="#85EBF3"/>
<path d="M9 138L22.8564 162H-4.85641L9 138Z" fill="#85EBF3"/>
<path d="M51 114L64.8564 138H37.1436L51 114Z" fill="#85EBF3"/>
<path d="M65 138L78.8564 162H51.1436L65 138Z" fill="#85EBF3"/>
<path d="M23 114L36.8564 138H9.14359L23 114Z" fill="#85EBF3"/>
<path d="M37 90L50.8564 114H23.1436L37 90Z" fill="#85EBF3"/>
<path d="M9 90L22.8564 114H-4.85641L9 90Z" fill="#85EBF3"/>
<path d="M65 90L78.8564 114H51.1436L65 90Z" fill="#85EBF3"/>
<path d="M79 162L92.8564 186H65.1436L79 162Z" fill="#85EBF3"/>
<path d="M37 138L50.8564 162H23.1436L37 138Z" fill="#85EBF3"/>
<path d="M79 114L92.8564 138H65.1436L79 114Z" fill="#85EBF3"/>
</g>
<rect width="61" height="75" transform="translate(86 25)" fill="#8C7B00"/>
<path d="M86 70.1296L147 55V98H86V70.1296Z" fill="#C59E00"/>
<path d="M86 82.5L147 73V100H86V82.5Z" fill="#D9A600"/>
<rect width="61" height="75" transform="translate(86 108)" fill="#F287E7"/>
<rect x="86" y="127" width="61" height="56" fill="#CA4BEA"/>
<rect x="86" y="146" width="61" height="37" fill="#911CAE"/>
<rect x="86" y="168" width="61" height="15" fill="#4A075B"/>
<rect width="61" height="75" transform="translate(153 25)" fill="url(#paint1_linear_1523_683)"/>
<g clip-path="url(#clip4_1523_683)">
<rect width="61" height="75" transform="translate(153 108)" fill="#B55151"/>
<circle cx="173" cy="180" r="59" fill="#370D0D"/>
<circle cx="162" cy="189" r="42" fill="#250404"/>
</g>
<g clip-path="url(#clip5_1523_683)">
<rect width="61" height="75" transform="translate(86 443)" fill="#E4D288"/>
<path d="M118 497L131.856 521H104.144L118 497Z" fill="#DFC500"/>
<path d="M90 497L103.856 521H76.1436L90 497Z" fill="#DFC500"/>
<path d="M76 473L89.8564 497H62.1436L76 473Z" fill="#DFC500"/>
<path d="M118 449L131.856 473H104.144L118 449Z" fill="#DFC500"/>
<path d="M132 473L145.856 497H118.144L132 473Z" fill="#DFC500"/>
<path d="M90 449L103.856 473H76.1436L90 449Z" fill="#DFC500"/>
<path d="M104 425L117.856 449H90.1436L104 425Z" fill="#DFC500"/>
<path d="M76 425L89.8564 449H62.1436L76 425Z" fill="#DFC500"/>
<path d="M132 425L145.856 449H118.144L132 425Z" fill="#DFC500"/>
<path d="M146 497L159.856 521H132.144L146 497Z" fill="#DFC500"/>
<path d="M104 473L117.856 497H90.1436L104 473Z" fill="#DFC500"/>
<path d="M146 449L159.856 473H132.144L146 449Z" fill="#DFC500"/>
</g>
<g clip-path="url(#clip6_1523_683)">
<rect width="61" height="75" transform="translate(19 443)" fill="#51B573"/>
<circle cx="36" cy="514" r="59" fill="#0A6610"/>
<circle cx="60" cy="524" r="42" fill="#5DA268"/>
</g>
<g clip-path="url(#clip7_1523_683)">
<rect width="61" height="75" transform="translate(153 443)" fill="#7DA2FF"/>
<rect x="101" y="530.926" width="158.287" height="77.8871" transform="rotate(-45 101 530.926)" fill="#535CFE"/>
<rect x="138" y="522.646" width="114.052" height="47.069" transform="rotate(-45 138 522.646)" fill="#1C3EAE"/>
<rect x="129.425" y="559.351" width="158.287" height="37.6873" transform="rotate(-45 129.425 559.351)" fill="#122E4E"/>
</g>
<rect width="61" height="75" transform="translate(19 277)" fill="url(#paint2_linear_1523_683)"/>
<path d="M36.5 321L39.7555 331.019L50.2903 331.019L41.7674 337.211L45.0229 347.231L36.5 341.039L27.9771 347.231L31.2326 337.211L22.7097 331.019L33.2445 331.019L36.5 321Z" fill="#D9D9D9"/>
<path d="M46.5 313L48.1839 318.182H53.6329L49.2245 321.385L50.9084 326.568L46.5 323.365L42.0916 326.568L43.7755 321.385L39.3671 318.182H44.8161L46.5 313Z" fill="#D9D9D9"/>
<g clip-path="url(#clip8_1523_683)">
<rect width="61" height="75" transform="translate(19 360)" fill="#51B2B5"/>
<path d="M51 414L64.8564 438H37.1436L51 414Z" fill="#85EBF3"/>
<path d="M23 414L36.8564 438H9.14359L23 414Z" fill="#85EBF3"/>
<path d="M9 390L22.8564 414H-4.85641L9 390Z" fill="#85EBF3"/>
<path d="M51 366L64.8564 390H37.1436L51 366Z" fill="#85EBF3"/>
<path d="M65 390L78.8564 414H51.1436L65 390Z" fill="#85EBF3"/>
<path d="M23 366L36.8564 390H9.14359L23 366Z" fill="#85EBF3"/>
<path d="M37 342L50.8564 366H23.1436L37 342Z" fill="#85EBF3"/>
<path d="M9 342L22.8564 366H-4.85641L9 342Z" fill="#85EBF3"/>
<path d="M65 342L78.8564 366H51.1436L65 342Z" fill="#85EBF3"/>
<path d="M79 414L92.8564 438H65.1436L79 414Z" fill="#85EBF3"/>
<path d="M37 390L50.8564 414H23.1436L37 390Z" fill="#85EBF3"/>
<path d="M79 366L92.8564 390H65.1436L79 366Z" fill="#85EBF3"/>
</g>
<rect width="61" height="75" transform="translate(86 277)" fill="#8C7B00"/>
<path d="M86 322.13L147 307V350H86V322.13Z" fill="#C59E00"/>
<path d="M86 334.5L147 325V352H86V334.5Z" fill="#D9A600"/>
<rect width="61" height="75" transform="translate(86 360)" fill="#F287E7"/>
<rect x="86" y="379" width="61" height="56" fill="#CA4BEA"/>
<rect x="86" y="398" width="61" height="37" fill="#911CAE"/>
<rect x="86" y="420" width="61" height="15" fill="#4A075B"/>
<rect width="61" height="75" transform="translate(153 277)" fill="url(#paint3_linear_1523_683)"/>
<g clip-path="url(#clip9_1523_683)">
<rect width="61" height="75" transform="translate(153 360)" fill="#B55151"/>
<circle cx="173" cy="432" r="59" fill="#370D0D"/>
<circle cx="162" cy="441" r="42" fill="#250404"/>
</g>
<g clip-path="url(#clip10_1523_683)">
<rect width="61" height="75" transform="translate(86 695)" fill="#E4D288"/>
<path d="M118 749L131.856 773H104.144L118 749Z" fill="#DFC500"/>
<path d="M90 749L103.856 773H76.1436L90 749Z" fill="#DFC500"/>
<path d="M76 725L89.8564 749H62.1436L76 725Z" fill="#DFC500"/>
<path d="M118 701L131.856 725H104.144L118 701Z" fill="#DFC500"/>
<path d="M132 725L145.856 749H118.144L132 725Z" fill="#DFC500"/>
<path d="M90 701L103.856 725H76.1436L90 701Z" fill="#DFC500"/>
<path d="M104 677L117.856 701H90.1436L104 677Z" fill="#DFC500"/>
<path d="M76 677L89.8564 701H62.1436L76 677Z" fill="#DFC500"/>
<path d="M132 677L145.856 701H118.144L132 677Z" fill="#DFC500"/>
<path d="M146 749L159.856 773H132.144L146 749Z" fill="#DFC500"/>
<path d="M104 725L117.856 749H90.1436L104 725Z" fill="#DFC500"/>
<path d="M146 701L159.856 725H132.144L146 701Z" fill="#DFC500"/>
</g>
<g clip-path="url(#clip11_1523_683)">
<rect width="61" height="75" transform="translate(19 695)" fill="#51B573"/>
<circle cx="36" cy="766" r="59" fill="#0A6610"/>
<circle cx="60" cy="776" r="42" fill="#5DA268"/>
</g>
<g clip-path="url(#clip12_1523_683)">
<rect width="61" height="75" transform="translate(153 695)" fill="#7DA2FF"/>
<rect x="101" y="782.926" width="158.287" height="77.8871" transform="rotate(-45 101 782.926)" fill="#535CFE"/>
<rect x="138" y="774.646" width="114.052" height="47.069" transform="rotate(-45 138 774.646)" fill="#1C3EAE"/>
<rect x="129.425" y="811.351" width="158.287" height="37.6873" transform="rotate(-45 129.425 811.351)" fill="#122E4E"/>
</g>
<rect width="61" height="75" transform="translate(19 529)" fill="url(#paint4_linear_1523_683)"/>
<path d="M36.5 573L39.7555 583.019L50.2903 583.019L41.7674 589.211L45.0229 599.231L36.5 593.039L27.9771 599.231L31.2326 589.211L22.7097 583.019L33.2445 583.019L36.5 573Z" fill="#D9D9D9"/>
<path d="M46.5 565L48.1839 570.182H53.6329L49.2245 573.385L50.9084 578.568L46.5 575.365L42.0916 578.568L43.7755 573.385L39.3671 570.182H44.8161L46.5 565Z" fill="#D9D9D9"/>
<g clip-path="url(#clip13_1523_683)">
<rect width="61" height="75" transform="translate(19 612)" fill="#51B2B5"/>
<path d="M51 666L64.8564 690H37.1436L51 666Z" fill="#85EBF3"/>
<path d="M23 666L36.8564 690H9.14359L23 666Z" fill="#85EBF3"/>
<path d="M9 642L22.8564 666H-4.85641L9 642Z" fill="#85EBF3"/>
<path d="M51 618L64.8564 642H37.1436L51 618Z" fill="#85EBF3"/>
<path d="M65 642L78.8564 666H51.1436L65 642Z" fill="#85EBF3"/>
<path d="M23 618L36.8564 642H9.14359L23 618Z" fill="#85EBF3"/>
<path d="M37 594L50.8564 618H23.1436L37 594Z" fill="#85EBF3"/>
<path d="M9 594L22.8564 618H-4.85641L9 594Z" fill="#85EBF3"/>
<path d="M65 594L78.8564 618H51.1436L65 594Z" fill="#85EBF3"/>
<path d="M79 666L92.8564 690H65.1436L79 666Z" fill="#85EBF3"/>
<path d="M37 642L50.8564 666H23.1436L37 642Z" fill="#85EBF3"/>
<path d="M79 618L92.8564 642H65.1436L79 618Z" fill="#85EBF3"/>
</g>
<rect width="61" height="75" transform="translate(86 529)" fill="#8C7B00"/>
<path d="M86 574.13L147 559V602H86V574.13Z" fill="#C59E00"/>
<path d="M86 586.5L147 577V604H86V586.5Z" fill="#D9A600"/>
<rect width="61" height="75" transform="translate(86 612)" fill="#F287E7"/>
<rect x="86" y="631" width="61" height="56" fill="#CA4BEA"/>
<rect x="86" y="650" width="61" height="37" fill="#911CAE"/>
<rect x="86" y="672" width="61" height="15" fill="#4A075B"/>
<rect width="61" height="75" transform="translate(153 529)" fill="url(#paint5_linear_1523_683)"/>
<g clip-path="url(#clip14_1523_683)">
<rect width="61" height="75" transform="translate(153 612)" fill="#B55151"/>
<circle cx="173" cy="684" r="59" fill="#370D0D"/>
<circle cx="162" cy="693" r="42" fill="#250404"/>
</g>
</g>
<defs>
<filter id="filter0_d_1523_683" x="0" y="0" width="233" height="789" filterUnits="userSpaceOnUse" color-interpolation-filters="sRGB">
<feFlood flood-opacity="0" result="BackgroundImageFix"/>
<feColorMatrix in="SourceAlpha" type="matrix" values="0 0 0 0 0 0 0 0 0 0 0 0 0 0 0 0 0 0 127 0" result="hardAlpha"/>
<feOffset dy="4"/>
<feGaussianBlur stdDeviation="2"/>
<feComposite in2="hardAlpha" operator="out"/>
<feColorMatrix type="matrix" values="0 0 0 0 0 0 0 0 0 0 0 0 0 0 0 0 0 0 0.25 0"/>
<feBlend mode="normal" in2="BackgroundImageFix" result="effect1_dropShadow_1523_683"/>
<feBlend mode="normal" in="SourceGraphic" in2="effect1_dropShadow_1523_683" result="shape"/>
</filter>
<linearGradient id="paint0_linear_1523_683" x1="30.5" y1="0" x2="30.5" y2="75" gradientUnits="userSpaceOnUse">
<stop stop-color="#0D398C"/>
<stop offset="1" stop-color="#030F26"/>
</linearGradient>
<linearGradient id="paint1_linear_1523_683" x1="30.5" y1="0" x2="30.5" y2="75" gradientUnits="userSpaceOnUse">
<stop stop-color="#04ACFF"/>
<stop offset="1" stop-color="#48244F"/>
</linearGradient>
<linearGradient id="paint2_linear_1523_683" x1="30.5" y1="0" x2="30.5" y2="75" gradientUnits="userSpaceOnUse">
<stop stop-color="#0D398C"/>
<stop offset="1" stop-color="#030F26"/>
</linearGradient>
<linearGradient id="paint3_linear_1523_683" x1="30.5" y1="0" x2="30.5" y2="75" gradientUnits="userSpaceOnUse">
<stop stop-color="#04ACFF"/>
<stop offset="1" stop-color="#48244F"/>
</linearGradient>
<linearGradient id="paint4_linear_1523_683" x1="30.5" y1="0" x2="30.5" y2="75" gradientUnits="userSpaceOnUse">
<stop stop-color="#0D398C"/>
<stop offset="1" stop-color="#030F26"/>
</linearGradient>
<linearGradient id="paint5_linear_1523_683" x1="30.5" y1="0" x2="30.5" y2="75" gradientUnits="userSpaceOnUse">
<stop stop-color="#04ACFF"/>
<stop offset="1" stop-color="#48244F"/>
</linearGradient>
<clipPath id="clip0_1523_683">
<rect width="61" height="75" fill="white" transform="translate(86 191)"/>
</clipPath>
<clipPath id="clip1_1523_683">
<rect width="61" height="75" fill="white" transform="translate(19 191)"/>
</clipPath>
<clipPath id="clip2_1523_683">
<rect width="61" height="75" fill="white" transform="translate(153 191)"/>
</clipPath>
<clipPath id="clip3_1523_683">
<rect width="61" height="75" fill="white" transform="translate(19 108)"/>
</clipPath>
<clipPath id="clip4_1523_683">
<rect width="61" height="75" fill="white" transform="translate(153 108)"/>
</clipPath>
<clipPath id="clip5_1523_683">
<rect width="61" height="75" fill="white" transform="translate(86 443)"/>
</clipPath>
<clipPath id="clip6_1523_683">
<rect width="61" height="75" fill="white" transform="translate(19 443)"/>
</clipPath>
<clipPath id="clip7_1523_683">
<rect width="61" height="75" fill="white" transform="translate(153 443)"/>
</clipPath>
<clipPath id="clip8_1523_683">
<rect width="61" height="75" fill="white" transform="translate(19 360)"/>
</clipPath>
<clipPath id="clip9_1523_683">
<rect width="61" height="75" fill="white" transform="translate(153 360)"/>
</clipPath>
<clipPath id="clip10_1523_683">
<rect width="61" height="75" fill="white" transform="translate(86 695)"/>
</clipPath>
<clipPath id="clip11_1523_683">
<rect width="61" height="75" fill="white" transform="translate(19 695)"/>
</clipPath>
<clipPath id="clip12_1523_683">
<rect width="61" height="75" fill="white" transform="translate(153 695)"/>
</clipPath>
<clipPath id="clip13_1523_683">
<rect width="61" height="75" fill="white" transform="translate(19 612)"/>
</clipPath>
<clipPath id="clip14_1523_683">
<rect width="61" height="75" fill="white" transform="translate(153 612)"/>
</clipPath>
</defs>
</svg>
