<svg width="215" height="215" viewBox="0 0 215 215" fill="none" xmlns="http://www.w3.org/2000/svg">
<path d="M32.9412 110.891C32.1365 110.891 31.3648 110.571 30.7958 110.002C30.2269 109.433 29.9072 108.661 29.9072 107.857C29.9072 107.052 30.2269 106.28 30.7958 105.711C31.3648 105.142 32.1365 104.823 32.9412 104.823H33.0094C33.8141 104.823 34.5858 105.142 35.1547 105.711C35.7237 106.28 36.0434 107.052 36.0434 107.857C36.0434 108.661 35.7237 109.433 35.1547 110.002C34.5858 110.571 33.8141 110.891 33.0094 110.891H32.9412Z" fill="white"/>
<path d="M35.9751 107.857C35.975 108.454 35.7986 109.038 35.4682 109.535C35.1377 110.032 34.6678 110.421 34.1174 110.653C33.567 110.884 32.9605 110.948 32.3739 110.836C31.7873 110.725 31.2467 110.442 30.8198 110.025C30.3929 109.607 30.0987 109.073 29.9741 108.489C29.8494 107.905 29.8998 107.298 30.119 106.742C30.3382 106.187 30.7165 105.708 31.2063 105.367C31.6962 105.025 32.2759 104.836 32.8729 104.823H32.9412C33.7458 104.823 34.5175 105.142 35.0865 105.711C35.6555 106.28 35.9751 107.052 35.9751 107.857Z" fill="white"/>
<path d="M22.3223 53.2531C22.3223 50.4368 23.4411 47.7359 25.4325 45.7445C27.4239 43.753 30.1248 42.6343 32.9411 42.6343C35.7574 42.6343 38.4583 43.753 40.4497 45.7445C42.4411 47.7359 43.5599 50.4368 43.5599 53.2531V70.8044L42.8697 70.8651C36.0037 71.4519 29.3725 73.6476 23.5132 77.2743L22.3527 78.0327L22.3223 53.2531ZM87.552 166.267H53.2002L52.9727 165.956C50.8142 163.022 49.6358 159.481 49.605 155.838C49.605 155.739 49.605 155.694 49.605 155.641V155.292C49.7003 150.729 51.5802 146.384 54.8415 143.191C58.1029 139.998 62.4858 138.21 67.0502 138.211C67.8548 138.211 68.6265 137.891 69.1955 137.322C69.7645 136.753 70.0841 135.982 70.0841 135.177C70.0841 134.372 69.7645 133.601 69.1955 133.032C68.6265 132.463 67.8548 132.143 67.0502 132.143C63.09 132.135 59.1923 133.13 55.7202 135.034C52.2481 136.939 49.3146 139.691 47.193 143.035L46.5559 144.036L45.9112 143.035C43.799 139.695 40.8764 136.943 37.4152 135.036C33.9539 133.129 30.0666 132.129 26.1148 132.128H19.2884C16.4721 132.128 13.7712 131.009 11.7798 129.018C9.78838 127.026 8.66962 124.325 8.66962 121.509V114.683C8.68127 109.448 9.77318 104.271 11.877 99.4778C13.9809 94.6841 17.0513 90.3762 20.8964 86.8236L20.9874 86.7553C21.1857 86.6156 21.3665 86.4526 21.5259 86.2699L21.5866 86.2092C28.5022 80.1195 37.4019 76.7619 46.6166 76.7661H47.9819C48.7806 76.7507 49.541 76.4209 50.098 75.8483L73.3077 52.6463C75.278 50.6809 77.9485 49.5788 80.7315 49.5823C83.5145 49.5859 86.182 50.6948 88.1474 52.6652C90.1128 54.6356 91.2149 57.306 91.2113 60.089C91.2078 62.872 90.0988 65.5396 88.1284 67.505L63.5536 92.0723C63.1288 92.4966 62.8394 93.0374 62.7222 93.6263C62.6049 94.2151 62.665 94.8255 62.8948 95.3802C63.1246 95.9348 63.5139 96.4089 64.0132 96.7422C64.5126 97.0755 65.0997 97.2532 65.7001 97.2527H67.0653C78.6355 97.2194 89.766 101.683 98.1072 109.702C106.448 117.72 111.347 128.666 111.77 140.228V140.319C111.722 140.626 111.722 140.938 111.77 141.245V141.609C111.77 141.723 111.77 141.836 111.77 141.958C111.776 148.391 109.228 154.564 104.686 159.119C100.143 163.674 93.9777 166.24 87.5444 166.252L87.552 166.267ZM144.332 115.229C143.513 112.25 142.112 109.463 140.208 107.03C138.305 104.596 135.937 102.565 133.243 101.053C128.539 98.4175 123.075 97.4711 117.759 98.3707C112.442 99.2703 107.594 101.962 104.019 105.998L103.488 106.605L102.919 106.036C95.1817 98.2566 85.1134 93.2198 74.2482 91.6931L72.7312 91.4807L92.4518 71.798C93.9897 70.2596 95.2096 68.4333 96.0417 66.4235C96.8738 64.4137 97.3019 62.2596 97.3016 60.0843C97.3012 57.909 96.8724 55.7551 96.0396 53.7456C95.2069 51.736 93.9864 49.9101 92.448 48.3722C90.9096 46.8343 89.0834 45.6145 87.0735 44.7823C85.0637 43.9502 82.9096 43.5221 80.7343 43.5225C78.5591 43.5228 76.4051 43.9516 74.3956 44.7844C72.386 45.6172 70.5601 46.8376 69.0222 48.376L49.6202 67.7705V53.2531C49.6202 48.8275 47.8621 44.5832 44.7328 41.4538C41.6034 38.3245 37.3591 36.5664 32.9335 36.5664C28.508 36.5664 24.2636 38.3245 21.1343 41.4538C18.0049 44.5832 16.2469 48.8275 16.2469 53.2531V82.8719L16.0117 83.0994C11.7568 87.1834 8.37461 92.088 6.06966 97.5166C3.76471 102.945 2.58494 108.785 2.60174 114.683V121.509C2.60174 125.935 4.35979 130.179 7.48915 133.308C10.6185 136.438 14.8628 138.196 19.2884 138.196H26.1148C30.6522 138.172 35.0185 139.926 38.279 143.082C41.5395 146.237 43.4351 150.544 43.5599 155.08V155.33C43.5599 155.421 43.5599 155.512 43.5599 155.603C43.5491 158.906 44.2394 162.174 45.585 165.19L46.0629 166.252H32.9411C32.1365 166.252 31.3648 166.572 30.7958 167.141C30.2268 167.71 29.9072 168.481 29.9072 169.286C29.9072 170.091 30.2268 170.862 30.7958 171.431C31.3648 172 32.1365 172.32 32.9411 172.32H87.552C94.9913 172.317 102.17 169.582 107.725 164.633C113.279 159.684 116.822 152.867 117.679 145.477L117.77 144.719L118.529 144.825C119.579 144.969 120.638 145.042 121.699 145.045C125.322 145.041 128.896 144.199 132.14 142.586C135.385 140.973 138.212 138.632 140.403 135.745C142.593 132.859 144.087 129.505 144.767 125.947C145.447 122.388 145.296 118.72 144.325 115.229H144.332ZM136.861 130.103C135.348 132.794 133.144 135.033 130.478 136.59C127.812 138.147 124.779 138.966 121.691 138.962C120.553 138.959 119.418 138.847 118.301 138.628L117.74 138.514L117.694 137.945C116.936 128.464 113.518 119.389 107.834 111.763L107.493 111.3L107.841 110.845C109.467 108.743 111.55 107.041 113.934 105.867C116.317 104.693 118.937 104.079 121.593 104.072C124.25 104.065 126.873 104.664 129.263 105.825C131.652 106.985 133.745 108.676 135.382 110.769C137.501 113.491 138.767 116.779 139.023 120.219C139.278 123.659 138.51 127.098 136.816 130.103H136.861Z" fill="white"/>
<path d="M159.061 65.7151C159.061 66.5197 158.742 67.2914 158.173 67.8604C157.604 68.4294 156.832 68.749 156.027 68.749H118.391C117.587 68.749 116.815 68.4294 116.246 67.8604C115.677 67.2914 115.357 66.5197 115.357 65.7151C115.357 64.9104 115.677 64.1387 116.246 63.5698C116.815 63.0008 117.587 62.6812 118.391 62.6812H156.027C156.832 62.6812 157.604 63.0008 158.173 63.5698C158.742 64.1387 159.061 64.9104 159.061 65.7151Z" fill="white"/>
<path d="M156.027 68.749H118.391C117.587 68.749 116.815 68.4294 116.246 67.8604C115.677 67.2914 115.357 66.5197 115.357 65.7151C115.357 64.9104 115.677 64.1387 116.246 63.5698C116.815 63.0008 117.587 62.6812 118.391 62.6812H156.027C156.832 62.6812 157.604 63.0008 158.173 63.5698C158.742 64.1387 159.061 64.9104 159.061 65.7151C159.061 66.5197 158.742 67.2914 158.173 67.8604C157.604 68.4294 156.832 68.749 156.027 68.749Z" fill="white"/>
<path d="M160.564 155.641C160.564 156.446 160.244 157.217 159.675 157.786C159.106 158.355 158.335 158.675 157.53 158.675H141.132C140.327 158.675 139.555 158.355 138.986 157.786C138.417 157.217 138.098 156.446 138.098 155.641C138.098 154.836 138.417 154.065 138.986 153.496C139.555 152.927 140.327 152.607 141.132 152.607H157.53C158.335 152.607 159.106 152.927 159.675 153.496C160.244 154.065 160.564 154.836 160.564 155.641Z" fill="white"/>
<path d="M195.939 121.517C195.939 122.321 195.619 123.093 195.05 123.662C194.481 124.231 193.71 124.551 192.905 124.551H165.114C164.309 124.551 163.538 124.231 162.969 123.662C162.4 123.093 162.08 122.321 162.08 121.517C162.08 120.712 162.4 119.941 162.969 119.372C163.538 118.803 164.309 118.483 165.114 118.483H192.905C193.71 118.483 194.481 118.803 195.05 119.372C195.619 119.941 195.939 120.712 195.939 121.517Z" fill="white"/>
<path d="M154.974 84.4119C154.974 85.2165 154.654 85.9882 154.085 86.5572C153.516 87.1262 152.745 87.4458 151.94 87.4458H134.298C133.493 87.4458 132.721 87.1262 132.152 86.5572C131.583 85.9882 131.264 85.2165 131.264 84.4119C131.264 83.6072 131.583 82.8355 132.152 82.2665C132.721 81.6976 133.493 81.3779 134.298 81.3779H151.94C152.745 81.3779 153.516 81.6976 154.085 82.2665C154.654 82.8355 154.974 83.6072 154.974 84.4119Z" fill="white"/>
<path d="M151.94 87.4458H134.298C133.493 87.4458 132.721 87.1262 132.152 86.5572C131.583 85.9882 131.264 85.2165 131.264 84.4119C131.264 83.6072 131.583 82.8355 132.152 82.2665C132.721 81.6976 133.493 81.3779 134.298 81.3779H151.94C152.745 81.3779 153.516 81.6976 154.085 82.2665C154.654 82.8355 154.974 83.6072 154.974 84.4119C154.974 85.2165 154.654 85.9882 154.085 86.5572C153.516 87.1262 152.745 87.4458 151.94 87.4458Z" fill="white"/>
<path d="M176.401 84.4119C176.401 85.2165 176.081 85.9882 175.512 86.5572C174.943 87.1262 174.172 87.4458 173.367 87.4458H163.613C162.808 87.4458 162.037 87.1262 161.468 86.5572C160.899 85.9882 160.579 85.2165 160.579 84.4119C160.579 83.6072 160.899 82.8355 161.468 82.2665C162.037 81.6976 162.808 81.3779 163.613 81.3779H173.367C174.172 81.3779 174.943 81.6976 175.512 82.2665C176.081 82.8355 176.401 83.6072 176.401 84.4119Z" fill="white"/>
<path d="M195.15 138.583C195.15 139.387 194.83 140.159 194.262 140.728C193.693 141.297 192.921 141.617 192.116 141.617H158.872C158.067 141.617 157.295 141.297 156.727 140.728C156.158 140.159 155.838 139.387 155.838 138.583C155.838 137.778 156.158 137.006 156.727 136.437C157.295 135.868 158.067 135.549 158.872 135.549H192.116C192.921 135.549 193.693 135.868 194.262 136.437C194.83 137.006 195.15 137.778 195.15 138.583Z" fill="white"/>
<path d="M183.469 103.154C183.469 103.959 183.15 104.73 182.581 105.299C182.012 105.868 181.24 106.188 180.436 106.188H158.872C158.067 106.188 157.295 105.868 156.727 105.299C156.158 104.73 155.838 103.959 155.838 103.154C155.838 102.349 156.158 101.578 156.727 101.009C157.295 100.44 158.067 100.12 158.872 100.12H180.436C181.24 100.12 182.012 100.44 182.581 101.009C183.15 101.578 183.469 102.349 183.469 103.154Z" fill="white"/>
<path d="M200.718 103.154C200.718 103.959 200.398 104.73 199.829 105.299C199.26 105.868 198.488 106.188 197.684 106.188H192.655C191.85 106.188 191.079 105.868 190.51 105.299C189.941 104.73 189.621 103.959 189.621 103.154C189.621 102.349 189.941 101.578 190.51 101.009C191.079 100.44 191.85 100.12 192.655 100.12H197.722C198.52 100.13 199.282 100.454 199.843 101.022C200.403 101.59 200.718 102.356 200.718 103.154Z" fill="white"/>
<path d="M209.342 141.617H204.275C203.47 141.617 202.699 141.297 202.13 140.728C201.561 140.159 201.241 139.387 201.241 138.583C201.241 137.778 201.561 137.006 202.13 136.437C202.699 135.868 203.47 135.549 204.275 135.549H209.342C210.146 135.549 210.918 135.868 211.487 136.437C212.056 137.006 212.376 137.778 212.376 138.583C212.376 139.387 212.056 140.159 211.487 140.728C210.918 141.297 210.146 141.617 209.342 141.617Z" fill="white"/>
</svg>
