<svg width="241" height="241" viewBox="0 0 241 241" fill="none" xmlns="http://www.w3.org/2000/svg">
<path d="M175.483 136.399C169.906 133.534 167.202 129.07 167.457 123.119C167.508 122.039 167.457 120.959 167.457 119.718V118.179C167.372 112.848 169.727 108.759 174.438 106.03C177.201 104.431 178.961 103.3 179.207 102.569C179.454 101.838 178.791 100.104 177.507 97.0938V97.0173C177.43 96.8388 177.337 96.6602 177.252 96.4817L177.158 96.2691L176.98 95.878C175.381 92.2476 175.118 92.1201 171.351 93.1489L170.748 93.3104L169.855 93.5655L168.869 93.8375C164.618 94.9258 159.287 93.3359 154.645 89.5865C150.003 85.8371 147.273 80.8889 147.443 76.4423C147.519 75.3815 147.699 74.3308 147.979 73.305L148.098 72.8289C148.209 72.3528 148.345 71.8681 148.489 71.3835L148.583 71.069C148.744 70.5333 148.897 70.0232 149.033 69.4876C149.509 67.4131 149.101 66.5628 147.222 65.7041C145.191 64.7449 143.111 63.8935 140.99 63.1535C139.375 62.5924 138.389 62.958 137.471 64.4628C136.841 65.5086 136.272 66.5373 135.719 67.6171C134.75 69.638 133.265 71.3677 131.414 72.632C129.563 73.8962 127.412 74.6504 125.177 74.8184C121.776 75.218 119.489 77.369 119.472 80.2597C119.472 83.3034 121.631 85.412 125.33 85.9051C130.779 86.5727 136.001 88.4916 140.586 91.5118C145.172 94.532 148.996 98.5716 151.762 103.315C154.527 108.058 156.158 113.377 156.526 118.855C156.895 124.333 155.992 129.823 153.888 134.894C148.872 147.307 135.26 156.795 122.957 156.506H122.43C122.005 156.506 121.58 156.506 121.206 156.506C119.796 156.476 118.43 156.998 117.399 157.96C116.368 158.923 115.754 160.25 115.688 161.659C115.599 163.056 116.038 164.435 116.918 165.524C117.798 166.612 119.056 167.329 120.441 167.534C121.284 167.669 122.141 167.7 122.991 167.627C123.425 167.627 123.842 167.627 124.241 167.627C126.831 167.539 129.389 168.227 131.585 169.603C133.782 170.978 135.517 172.979 136.569 175.347L136.79 175.815C137.078 176.465 137.428 177.086 137.836 177.668C138.754 178.807 139.324 179.368 140.276 179.368C141.228 179.368 142.419 178.884 144.629 177.923C149.731 175.704 149.901 175.015 149.552 173.179C149.323 172.091 149.04 171.016 148.702 169.957L148.634 169.719C147.35 165.323 148.787 159.839 152.494 155.07C156.201 150.3 161.132 147.545 165.757 147.673C166.883 147.736 167.999 147.912 169.09 148.2L169.676 148.336C170.161 148.438 170.629 148.582 171.079 148.718L171.436 148.82C171.87 148.957 172.287 149.084 172.746 149.203C174.922 149.722 175.594 149.407 176.546 147.435C177.116 146.244 177.626 144.986 178.102 143.796C178.893 141.806 179.369 140.539 179.369 139.672C179.374 139.482 179.345 139.292 179.284 139.111C178.995 138.227 177.779 137.572 175.483 136.399Z" fill="white"/>
<path d="M101.787 188.67C103.819 188.789 105.817 188.755 108.019 188.721H109.005H110.901H112.601V188.746H119.82C120.344 188.795 120.873 188.712 121.357 188.504C121.841 188.296 122.265 187.97 122.591 187.556C122.688 187.431 122.773 187.304 122.846 187.173C123.098 186.832 123.253 186.429 123.295 186.007C123.337 185.585 123.264 185.16 123.084 184.776C122.86 184.121 122.43 183.556 121.858 183.166C121.287 182.775 120.605 182.58 119.913 182.608C114.353 182.548 109.056 182.531 103.759 182.54C100.494 182.54 98.7089 181.018 98.4453 178.008C97.7737 170.084 94.9255 162.483 92.1708 155.129L92.0943 154.951C89.2461 147.341 85.6752 139.851 82.2318 132.616L82.0533 132.241C81.2031 130.49 80.3529 128.747 79.5027 126.987C73.3472 113.911 74.4014 98.3607 82.4359 85.378C90.5384 72.2678 104.15 64.1738 118.842 63.7657H118.952C120.483 63.7657 121.503 63.6552 122.107 62.9835C123.484 61.5552 123.484 60.62 123.067 59.6677C122.43 58.3159 121.579 57.4742 119.029 57.5762C110.515 57.8829 102.212 60.3073 94.8716 64.6302C87.5308 68.953 81.3836 75.0379 76.9861 82.3343C72.5772 89.5138 70.028 97.6794 69.5693 106.092C69.1106 114.505 70.7568 122.899 74.3589 130.516C75.2516 132.395 76.1699 134.273 77.1136 136.186C79.3836 140.803 81.7302 145.539 83.6602 150.47L84.3914 152.323C87.8942 161.2 91.5246 170.373 92.4854 180.38C92.919 184.801 96.9234 188.381 101.787 188.67Z" fill="white"/>
<path d="M130.856 99.3299C129.376 98.7093 129.24 98.8198 128.535 99.9761C127.784 101.161 126.739 102.132 125.503 102.795C124.267 103.458 122.88 103.79 121.478 103.76C120.092 103.778 118.725 103.437 117.51 102.77C116.296 102.102 115.275 101.131 114.549 99.9506C113.919 98.8878 113.868 98.8028 112.491 99.3554C111.25 99.8571 111.173 100.002 111.479 101.277C111.808 102.642 111.781 104.069 111.4 105.421C111.019 106.773 110.297 108.004 109.303 108.997C108.296 110.004 107.046 110.734 105.675 111.118C104.303 111.503 102.856 111.527 101.472 111.19C100.333 110.927 100.206 110.995 99.772 112.083C99.1853 113.486 99.3299 113.63 100.316 114.226C101.551 114.964 102.573 116.01 103.282 117.262C103.992 118.514 104.364 119.928 104.363 121.367C104.363 122.763 104 124.135 103.31 125.348C102.62 126.562 101.626 127.575 100.427 128.288C99.2618 128.977 99.3214 129.138 99.721 130.082C100.359 131.629 100.571 131.587 101.557 131.349C102.269 131.188 102.996 131.106 103.725 131.102C104.792 131.088 105.851 131.286 106.841 131.684C107.83 132.083 108.731 132.674 109.49 133.423C110.5 134.454 111.228 135.728 111.603 137.122C111.978 138.516 111.988 139.982 111.632 141.381C111.394 142.418 111.377 142.521 112.627 142.997C114.098 143.549 114.132 143.498 114.617 142.699C115.326 141.429 116.352 140.364 117.594 139.608C118.837 138.851 120.253 138.428 121.707 138.38H121.801C123.264 138.416 124.694 138.826 125.954 139.57C127.214 140.314 128.264 141.367 129.002 142.631C129.529 143.481 129.529 143.481 131.306 142.776C132.156 142.469 132.241 142.418 131.91 141.373C131.757 140.914 131.638 140.412 131.536 140.021L131.383 139.426V139.12C131.474 137.86 131.845 136.636 132.469 135.537C133.092 134.439 133.953 133.493 134.988 132.769C135.916 132.003 137.005 131.458 138.175 131.174C139.344 130.889 140.562 130.874 141.738 131.128C142.886 131.425 143.056 131.476 143.745 129.801C144.144 128.832 144.178 128.747 143.031 128.101C141.855 127.416 140.884 126.43 140.216 125.244C139.535 124.015 139.167 122.637 139.145 121.231C139.088 119.835 139.395 118.448 140.034 117.205C140.673 115.962 141.624 114.906 142.792 114.141C144.102 113.29 144.042 113.171 143.592 112.109C143.065 110.859 142.912 110.731 141.373 111.114C140.023 111.401 138.621 111.336 137.303 110.925C135.986 110.514 134.796 109.771 133.848 108.767C132.859 107.84 132.127 106.672 131.724 105.376C131.322 104.081 131.263 102.704 131.553 101.379C131.944 99.7805 131.884 99.755 130.856 99.3299ZM129.274 113.545C130.292 114.543 131.102 115.734 131.655 117.047C132.208 118.361 132.494 119.772 132.496 121.197C132.494 122.601 132.214 123.99 131.671 125.285C131.128 126.579 130.334 127.753 129.334 128.739C127.296 130.749 124.544 131.868 121.682 131.85H121.58C119.813 131.847 118.075 131.408 116.519 130.572C114.963 129.735 113.638 128.528 112.661 127.056C111.684 125.585 111.085 123.895 110.918 122.136C110.751 120.378 111.02 118.605 111.703 116.976C112.385 115.347 113.459 113.911 114.829 112.797C116.2 111.682 117.824 110.923 119.558 110.587C121.292 110.251 123.083 110.348 124.77 110.87C126.458 111.392 127.99 112.323 129.232 113.579L129.274 113.545Z" fill="white"/>
<path d="M143.498 200.258C137.977 200.258 132.46 200.258 126.945 200.258H108.189C104.95 200.258 101.702 200.258 98.4626 200.258C96.7622 200.258 95.4954 200.615 94.8237 201.304C94.577 201.59 94.3928 201.925 94.283 202.286C94.1732 202.648 94.1402 203.028 94.1861 203.404C94.1861 204.679 94.6877 206.371 98.4371 206.371C106.48 206.371 114.753 206.371 123.391 206.371H143.49C143.873 206.371 144.257 206.348 144.637 206.303C145.41 206.233 146.151 205.964 146.788 205.521C146.892 205.447 146.989 205.365 147.078 205.274C147.167 205.172 147.249 205.064 147.324 204.951L147.401 204.857C147.462 204.749 147.513 204.635 147.554 204.517C147.58 204.471 147.603 204.423 147.622 204.373C147.657 204.262 147.683 204.148 147.698 204.033C147.719 203.96 147.736 203.886 147.749 203.812C147.749 203.744 147.749 203.659 147.749 203.591C147.749 203.523 147.749 203.319 147.749 203.174C147.758 201.933 147.282 200.266 143.498 200.258Z" fill="white"/>
<path d="M132.02 216.727C129.784 216.676 127.48 216.727 125.218 216.727H124.572C123.467 216.727 122.37 216.727 121.248 216.727H117.924C115.271 216.727 112.542 216.727 109.864 216.727C107.866 216.778 106.463 217.943 106.463 219.634C106.464 220.144 106.588 220.646 106.825 221.098C107.062 221.549 107.404 221.937 107.823 222.228C108.439 222.625 109.157 222.834 109.889 222.831C113.624 222.871 117.283 222.891 120.865 222.891C124.703 222.891 128.429 222.868 132.046 222.823C132.526 222.834 133.004 222.747 133.45 222.567C133.896 222.387 134.3 222.118 134.639 221.777C134.775 221.636 134.897 221.482 135.004 221.318C135.321 220.809 135.475 220.216 135.446 219.617C135.387 217.849 134.103 216.803 132.02 216.727Z" fill="white"/>
<path d="M119.539 42.2468C119.863 42.5506 120.293 42.7153 120.738 42.7059H120.959C122.123 42.5868 123.322 42.1447 123.331 39.8492V28.6179V26.6965C123.331 24.7665 123.331 22.7685 123.331 20.8215C123.288 19.0531 122.285 17.7183 120.984 17.7183C119.683 17.7183 118.638 19.0616 118.621 20.83C118.561 27.6317 118.57 33.8637 118.621 39.8577C118.602 40.2975 118.674 40.7364 118.832 41.1473C118.99 41.5582 119.231 41.9324 119.539 42.2468Z" fill="white"/>
<path d="M73.1863 58.9876H73.2798C73.5869 58.959 73.8851 58.8689 74.1567 58.7229C74.4283 58.5768 74.6679 58.3778 74.8612 58.1374C75.3458 57.6188 76.3745 56.5475 74.4531 54.6261C72.1235 52.2908 69.7883 49.9527 67.4474 47.6118L67.2688 47.4418L60.9688 41.1673C60.3911 40.4754 59.5624 40.0412 58.6647 39.96C58.257 39.9613 57.8583 40.0798 57.5161 40.3014C57.1739 40.523 56.9027 40.8383 56.7347 41.2098C56.4779 41.6393 56.3872 42.1479 56.4796 42.6397C56.572 43.1315 56.8412 43.5724 57.2363 43.8794C61.6914 48.4025 66.4866 53.2317 71.3583 57.9929C71.8164 58.5479 72.4714 58.9043 73.1863 58.9876Z" fill="white"/>
<path d="M183.161 39.875C182.916 39.8793 182.674 39.9344 182.452 40.0369C182.229 40.1393 182.031 40.2869 181.868 40.4701C176.18 45.9115 170.816 51.3358 166.837 55.4508C166.562 55.7375 166.396 56.1112 166.368 56.5072C166.341 56.9032 166.452 57.2964 166.684 57.6188C166.862 58.0231 167.164 58.3607 167.545 58.5835C167.927 58.8064 168.369 58.9032 168.809 58.8601C169.057 58.8758 169.306 58.8418 169.541 58.76C169.777 58.6783 169.993 58.5505 170.178 58.384L172.354 56.2245C176.495 52.1095 180.78 47.85 184.946 43.5564C185.507 42.9783 186.102 42.0685 184.87 40.7847C184.442 40.2687 183.828 39.9419 183.161 39.875Z" fill="white"/>
<path d="M53.0785 102.067C45.9197 102.067 39.4752 102.067 33.4047 102.067C32.639 102.011 31.8801 102.244 31.2792 102.722C30.9017 103.175 30.7183 103.759 30.769 104.346C30.769 105.06 30.769 106.54 33.4812 106.54H48.9295C50.2473 106.54 51.5566 106.54 52.8574 106.54H52.9765C55.5271 106.54 55.5951 105.145 55.6121 104.397C55.6466 104.095 55.6207 103.789 55.5361 103.497C55.4514 103.206 55.3097 102.933 55.119 102.697C54.8381 102.461 54.5128 102.284 54.1624 102.176C53.8119 102.068 53.4434 102.031 53.0785 102.067Z" fill="white"/>
<path d="M211.183 103.93C211.172 103.806 211.152 103.684 211.124 103.564C211.092 103.448 211.047 103.337 210.988 103.232C210.927 103.127 210.855 103.027 210.775 102.935C210.452 102.636 210.071 102.406 209.656 102.26C209.241 102.113 208.8 102.054 208.361 102.085C203.701 102.034 199.008 102.085 194.953 102.085H189.001C186.689 102.085 186.357 103.164 186.332 104.329C186.318 104.51 186.318 104.692 186.332 104.873C186.365 105.269 186.523 105.644 186.782 105.945C187.391 106.404 188.148 106.622 188.908 106.557H208.318C208.576 106.571 208.834 106.571 209.092 106.557C209.369 106.562 209.645 106.51 209.901 106.403C210.157 106.296 210.388 106.138 210.58 105.937C210.772 105.737 210.92 105.499 211.015 105.238C211.11 104.977 211.15 104.7 211.132 104.423C211.166 104.261 211.184 104.095 211.183 103.93Z" fill="white"/>
</svg>
