<svg width="168" height="174" viewBox="0 0 168 174" fill="none" xmlns="http://www.w3.org/2000/svg">
<path d="M82.903 49.8783C86.597 49.8783 90.3032 49.8419 93.9972 49.8783C100.998 49.9569 106.321 55.4593 105.921 62.4508C105.469 70.5218 104.863 78.5665 104.104 86.585C103.765 90.2169 101.125 92.3235 97.8729 93.3344C95.6384 94.0244 95.1478 95.223 95.0207 97.39C94.4151 107.323 93.6097 117.245 92.889 127.172C92.7558 128.952 91.914 130.15 90.061 129.914C88.3351 129.696 87.9111 128.407 88.0444 126.718C88.9245 115.519 89.7561 104.315 90.5394 93.1043C90.6786 91.0644 91.3872 90.0051 93.5673 89.6358C98.4119 88.8065 99.3808 87.4688 99.6655 82.5778C100.059 75.8829 100.622 69.1881 101.022 62.4871C101.294 57.8685 98.4785 54.8056 93.8943 54.7632C86.5708 54.7027 79.2473 54.7027 71.9238 54.7632C68.1753 54.7935 65.4501 57.5477 65.6439 61.2886C66.0436 68.9701 66.7037 76.6335 67.1276 84.2908C67.279 87.1237 68.8414 88.4676 71.3182 89.1334C72.1115 89.3574 72.923 89.539 73.7405 89.6903C74.3868 89.7465 74.9883 90.0434 75.4258 90.5222C75.8633 91.001 76.1047 91.6266 76.1023 92.275C76.6998 100.701 77.3054 109.125 77.9191 117.547C78.1371 120.483 78.3733 123.413 78.6518 126.337C78.8214 128.104 78.5186 129.702 76.4717 129.872C74.4249 130.041 73.8919 128.552 73.7648 126.754C73.0502 116.464 72.269 106.173 71.5665 95.8404C71.4878 94.6903 71.1365 94.0607 70.0041 93.752C68.0141 93.261 66.1886 92.2547 64.7113 90.8344C63.4303 89.639 62.6402 88.0099 62.4949 86.2642C61.8893 78.395 61.2838 70.4713 60.763 62.5719C60.3451 56.4339 63.7606 51.5187 69.344 50.1507C70.2978 49.9358 71.2732 49.8322 72.2508 49.8419C75.7995 49.854 79.3482 49.8722 82.903 49.8783Z" fill="#EBF2FA"/>
<path d="M8.43597 91.5576C8.43597 98.9869 8.49064 106.41 8.43597 113.833C8.39557 114.693 8.53701 115.552 8.85103 116.353C9.16505 117.155 9.64458 117.881 10.2582 118.484C19.1267 127.81 27.8736 137.264 36.7846 146.547C40.5749 150.493 42.2514 154.919 41.4861 160.36C41.1459 162.829 41.2492 165.352 41.0548 167.844C40.9272 169.461 40.1619 170.623 38.3032 170.416C36.5538 170.221 36.1589 168.999 36.2501 167.461C36.4323 164.421 36.5538 161.382 36.7846 158.397C37.0276 155.229 35.8977 152.694 33.7474 150.414C24.7332 140.918 15.8162 131.318 6.77162 121.84C5.70482 120.779 4.86828 119.508 4.31434 118.109C3.7604 116.709 3.50097 115.21 3.55226 113.706C3.64945 98.3242 3.59478 82.9428 3.60085 67.5615C3.60085 62.6188 5.98197 60.6672 10.7685 61.6643C17.7478 63.1173 22.097 68.1694 23.0871 76.1033C23.7553 81.5141 24.302 86.931 24.9094 92.348C24.9884 93.1261 25.4682 94.3056 24.6846 94.6704C23.4525 95.2528 22.0979 95.5282 20.7364 95.4729C19.9771 95.4242 20.1775 94.0624 20.0864 93.2903C19.4122 87.5086 18.8716 81.7026 18.1305 75.9331C17.5231 71.501 15.4092 68.1512 10.9021 66.6556C9.15273 66.0781 8.39345 66.1449 8.4299 68.3761C8.51494 76.0972 8.43597 83.8305 8.43597 91.5576Z" fill="#EBF2FA"/>
<path d="M63.37 161.916C62.9884 156.301 64.1515 150.514 64.3333 144.661C64.7392 131.319 53.8345 120.467 43.7357 118.233C42.1879 117.905 40.7884 117.078 39.7494 115.877C36.896 112.733 34.0063 109.633 31.05 106.581C28.3844 103.828 25.2887 103.444 21.9628 105.159C20.5452 105.885 20.4907 106.435 21.6054 107.6C26.9426 113.197 32.1889 118.874 37.4655 124.519C37.9865 125.075 38.459 125.673 38.9982 126.204C40.2098 127.425 40.8762 128.743 39.4344 130.135C37.8653 131.654 36.581 130.702 35.3936 129.414C33.4429 127.297 31.4498 125.221 29.4809 123.122C25.2927 118.646 21.1086 114.156 16.9285 109.651C14.2205 106.752 14.4628 104.42 17.7282 102.132C23.9498 97.7553 30.0019 98.3535 35.1755 103.853C36.1145 104.848 37.0536 105.836 37.9562 106.862C41.1455 110.537 45.1232 113.432 49.5878 115.327C61.8616 120.638 68.8466 130.391 69.1373 144.209C69.3009 152.101 67.8712 159.969 68.2771 167.891C68.3263 168.217 68.3027 168.55 68.2081 168.865C68.1135 169.18 67.9503 169.471 67.7304 169.714C67.5104 169.958 67.2392 170.15 66.9366 170.274C66.634 170.399 66.3076 170.455 65.9811 170.436C64.2787 170.497 63.4791 169.442 63.3942 167.897C63.2852 165.987 63.37 164.07 63.37 161.916Z" fill="#EBF2FA"/>
<path d="M55.866 31.1841C59.0894 31.1841 62.3129 31.2449 65.5303 31.1537C67.0158 31.1111 67.6292 31.5429 67.2624 33.0753C67.1745 33.4471 67.1745 33.8347 67.2624 34.2064C67.7074 35.97 66.8173 36.1767 65.3499 36.1585C59.2097 36.0977 53.0635 36.122 46.9172 36.1585C42.1061 36.1585 39.5682 38.8829 39.8749 43.7052C40.35 51.1851 40.8912 58.6588 41.4205 66.1326C41.6249 69.0029 43.0984 70.5232 47.0856 71.1191C49.6175 71.4962 50.2189 72.7732 50.3692 75.0536C50.9706 84.1754 51.7043 93.2971 52.3839 102.419C52.426 103.027 52.4921 103.635 52.4861 104.243C52.4861 105.636 51.8186 106.572 50.4113 106.755C50.0944 106.822 49.7668 106.819 49.4513 106.745C49.1357 106.672 48.8398 106.53 48.584 106.329C48.3282 106.128 48.1187 105.874 47.97 105.583C47.8214 105.292 47.7371 104.972 47.7231 104.645C47.4525 102.778 47.3683 100.88 47.236 98.9891C46.7308 91.8194 46.2015 84.6497 45.7625 77.4739C45.6843 76.1969 45.1972 75.6496 44.0185 75.2787C39.4299 73.8374 36.8018 71.0218 36.6093 65.7738C36.3447 58.2879 35.4546 50.8324 35.0397 43.3525C34.6488 36.3957 39.7245 31.1902 46.6466 31.1902C49.7197 31.172 52.7928 31.1841 55.866 31.1841Z" fill="#EBF2FA"/>
<path d="M111.02 31.2138C113.899 31.2138 116.784 31.2138 119.669 31.2138C127.224 31.2503 132.562 36.8398 132.063 44.333C131.531 52.1911 130.922 60.0432 130.237 67.8891C129.908 71.7026 127.351 73.8192 123.991 74.8897C121.916 75.5526 121.276 76.6352 121.155 78.7518C120.668 87.2181 119.937 95.6662 119.329 104.126C119.207 105.799 118.482 106.936 116.662 106.79C114.842 106.644 114.337 105.361 114.459 103.719C115.177 93.9876 115.895 84.244 116.614 74.4882C116.754 72.5967 117.496 71.5201 119.596 71.1917C124.466 70.4193 125.428 69.0265 125.714 64.1486C126.103 57.4218 126.688 50.7071 127.187 43.9863C127.522 39.4977 124.588 36.2255 120.047 36.1829C113.826 36.1221 107.605 36.1829 101.39 36.1525C100.428 36.1525 98.9549 36.5479 99.4601 34.705C99.8314 33.4277 97.987 30.9401 101.432 31.1652C104.634 31.378 107.83 31.2138 111.02 31.2138Z" fill="#EBF2FA"/>
<path d="M69.1493 14.939C69.1446 17.9304 67.9697 20.7986 65.8807 22.9184C63.7917 25.0381 60.958 26.2376 57.9973 26.2553C54.9966 26.2813 52.1077 25.1064 49.9616 22.9872C47.8156 20.868 46.5869 17.9767 46.544 14.9451C46.5399 13.4434 46.8308 11.9558 47.3997 10.5685C47.9686 9.18122 48.8043 7.92174 49.8583 6.86301C50.9124 5.80429 52.1638 4.96735 53.5402 4.40069C54.9166 3.83402 56.3906 3.54889 57.8768 3.56178C59.3633 3.53543 60.8398 3.81161 62.2185 4.37388C63.5971 4.93616 64.8496 5.77301 65.9015 6.83461C66.9533 7.89622 67.7829 9.16085 68.3409 10.5532C68.8989 11.9455 69.1738 13.4371 69.1493 14.939Z" fill="#EBF2FA"/>
<path d="M83.1754 44.9439C81.6597 44.9328 80.1614 44.6194 78.7672 44.0221C77.373 43.4247 76.1108 42.5552 75.0537 41.464C73.9966 40.3727 73.1657 39.0815 72.6092 37.6652C72.0527 36.2489 71.7817 34.7357 71.8118 33.2134C71.8567 30.1431 73.1137 27.2166 75.3065 25.0775C77.4992 22.9383 80.448 21.7619 83.5042 21.8069C86.5603 21.8519 89.4735 23.1148 91.6029 25.3176C93.7322 27.5204 94.9033 30.4827 94.8585 33.5529C94.8442 35.074 94.5297 36.5771 93.9332 37.9752C93.3367 39.3733 92.4701 40.6387 91.3836 41.6981C90.297 42.7575 89.0121 43.5899 87.6031 44.147C86.1942 44.7042 84.6892 44.975 83.1754 44.9439Z" fill="#EBF2FA"/>
<path d="M109.772 3.56181C111.258 3.53525 112.733 3.8117 114.111 4.3746C115.488 4.93751 116.739 5.7753 117.788 6.83781C118.838 7.90033 119.664 9.16572 120.218 10.5583C120.771 11.9508 121.041 13.4418 121.011 14.9421C121.016 16.4238 120.733 17.8919 120.176 19.2627C119.619 20.6334 118.8 21.8799 117.765 22.9306C116.731 23.9814 115.502 24.8159 114.148 25.3864C112.794 25.9569 111.342 26.2522 109.875 26.2554C106.87 26.2767 103.979 25.0984 101.831 22.9772C99.6834 20.8559 98.4523 17.9636 98.4063 14.9299C98.4062 13.4278 98.7009 11.9405 99.2734 10.5541C99.8459 9.16761 100.685 7.90949 101.742 6.85241C102.799 5.79534 104.052 4.96026 105.431 4.39546C106.809 3.83065 108.284 3.54731 109.772 3.56181Z" fill="#EBF2FA"/>
<path d="M51.4239 15.1638C51.3935 14.2969 51.536 13.4328 51.8429 12.6225C52.1499 11.8122 52.6151 11.0723 53.211 10.4467C53.8068 9.82107 54.5212 9.32244 55.3117 8.98034C56.1023 8.63824 56.9529 8.45965 57.8131 8.45516C58.6734 8.45068 59.5258 8.62039 60.3198 8.95423C61.1138 9.28806 61.8332 9.77922 62.4355 10.3986C63.0377 11.018 63.5105 11.753 63.8257 12.56C64.141 13.367 64.2923 14.2297 64.2708 15.0968C64.3012 15.9636 64.1587 16.8278 63.8518 17.638C63.5448 18.4483 63.0796 19.1882 62.4838 19.8138C61.8879 20.4395 61.1736 20.9381 60.383 21.2802C59.5925 21.6223 58.7419 21.8009 57.8816 21.8054C57.0213 21.8099 56.1689 21.6402 55.3749 21.3063C54.5809 20.9725 53.8615 20.4813 53.2592 19.8619C52.657 19.2425 52.1843 18.5076 51.869 17.7005C51.5538 16.8935 51.4024 16.0309 51.4239 15.1638Z" fill="#0091D9"/>
<path d="M89.9835 33.6595C89.9755 34.5068 89.8014 35.3443 89.4711 36.1241C89.1407 36.9039 88.6606 37.6107 88.0582 38.2042C87.4558 38.7977 86.7428 39.2663 85.9599 39.5832C85.1771 39.9001 84.3398 40.0591 83.4958 40.0511C82.6518 40.0431 81.8175 39.8683 81.0408 39.5367C80.2641 39.205 79.56 38.723 78.9688 38.1182C78.3776 37.5134 77.9109 36.7976 77.5953 36.0117C77.2796 35.2258 77.1212 34.3852 77.1292 33.5379C77.1371 32.6905 77.3113 31.8531 77.6416 31.0733C77.972 30.2935 78.4521 29.5867 79.0545 28.9931C79.6569 28.3996 80.3699 27.9311 81.1527 27.6142C81.9356 27.2973 82.7729 27.1383 83.6169 27.1463C84.4609 27.1543 85.2951 27.3291 86.0719 27.6607C86.8486 27.9924 87.5527 28.4743 88.1439 29.0792C88.7351 29.684 89.2018 30.3997 89.5174 31.1856C89.8331 31.9715 89.9915 32.8122 89.9835 33.6595Z" fill="#0091D9"/>
<path d="M116.137 14.9982C116.119 16.272 115.726 17.512 115.008 18.5619C114.289 19.6118 113.277 20.4247 112.099 20.8982C110.921 21.3717 109.63 21.4845 108.388 21.2225C107.146 20.9604 106.009 20.3353 105.121 19.4257C104.232 18.5162 103.632 17.3631 103.395 16.1115C103.158 14.86 103.296 13.5662 103.79 12.393C104.285 11.2198 105.114 10.2199 106.174 9.51912C107.234 8.81836 108.476 8.44816 109.745 8.45518C111.442 8.51811 113.051 9.2315 114.24 10.4486C115.428 11.6657 116.108 13.2938 116.137 14.9982Z" fill="#0091D9"/>
<path d="M159.538 91.1084C159.538 98.538 159.489 105.962 159.574 113.391C159.611 114.25 159.468 115.107 159.154 115.907C158.84 116.707 158.363 117.432 157.752 118.036C148.881 127.369 140.132 136.823 131.219 146.101C127.428 150.047 125.751 154.473 126.511 159.915C126.857 162.383 126.748 164.906 126.942 167.399C127.07 169.017 127.835 170.178 129.701 169.971C131.45 169.777 131.845 168.554 131.748 167.022C131.566 163.982 131.45 160.942 131.213 157.951C130.97 154.783 132.106 152.248 134.251 149.974C143.267 140.471 152.18 130.871 161.227 121.399C162.294 120.337 163.131 119.067 163.685 117.667C164.239 116.267 164.498 114.768 164.447 113.264C164.35 97.8814 164.411 82.4992 164.405 67.117C164.405 62.174 162.017 60.2224 157.229 61.2195C150.254 62.6726 145.898 67.7311 144.914 75.6654C144.239 81.0704 143.668 86.4876 143.091 91.9048C143.006 92.6831 142.526 93.8626 143.316 94.2274C144.547 94.8159 145.903 95.0936 147.265 95.036C148.019 94.9813 147.818 93.6194 147.909 92.8533C148.59 87.0652 149.124 81.2589 149.866 75.489C150.473 71.0568 152.587 67.7067 157.096 66.2172C158.845 65.6092 159.605 65.7065 159.568 67.9317C159.459 75.6532 159.538 83.3808 159.538 91.1084Z" fill="#EBF2FA"/>
<path d="M104.636 161.552C105.012 155.97 103.855 150.218 103.673 144.399C103.261 131.135 114.166 120.347 124.271 118.127C125.818 117.806 127.217 116.985 128.252 115.791C131.103 112.668 134.003 109.586 136.952 106.544C139.617 103.807 142.713 103.425 146.039 105.13C147.451 105.852 147.505 106.398 146.396 107.557C141.059 113.115 135.806 118.758 130.53 124.376C130.015 124.922 129.536 125.517 128.997 126.045C127.785 127.258 127.125 128.569 128.567 129.958C130.136 131.463 131.414 130.516 132.602 129.236C134.558 127.137 136.552 125.074 138.515 122.981C142.707 118.531 146.893 114.067 151.074 109.59C153.782 106.708 153.533 104.396 150.274 102.114C144.046 97.7641 137.994 98.3587 132.82 103.826C131.887 104.815 130.948 105.804 130.045 106.817C126.855 110.461 122.88 113.33 118.419 115.208C106.145 120.487 99.1535 130.189 98.8627 143.92C98.6991 151.771 100.135 159.586 99.7229 167.467C99.6758 167.791 99.701 168.121 99.7968 168.434C99.8926 168.747 100.057 169.034 100.277 169.276C100.497 169.517 100.768 169.707 101.071 169.831C101.373 169.954 101.699 170.009 102.025 169.992C103.721 170.058 104.521 169.003 104.612 167.467C104.715 165.593 104.636 163.694 104.636 161.552Z" fill="#EBF2FA"/>
</svg>
