<svg width="467" height="467" viewBox="0 0 467 467" fill="none" xmlns="http://www.w3.org/2000/svg">
<path d="M261.425 351.263H213.565C211.38 351.263 209.285 350.395 207.74 348.851C206.195 347.306 205.327 345.21 205.327 343.026V329.615C205.193 307.305 196.82 285.83 181.818 269.317C173.643 260.185 167.82 249.197 164.854 237.305C161.888 225.413 161.869 212.978 164.798 201.077C167.726 189.176 173.515 178.169 181.661 169.012C189.807 159.855 200.064 152.824 211.543 148.529C223.022 144.235 235.376 142.806 247.532 144.366C259.688 145.927 271.28 150.431 281.301 157.486C291.323 164.542 299.471 173.936 305.039 184.854C310.608 195.772 313.428 207.884 313.255 220.139C313.01 238.722 305.884 256.555 293.254 270.19C277.926 286.913 269.476 308.808 269.596 331.493V343.026C269.596 345.199 268.738 347.284 267.207 348.827C265.676 350.37 263.598 351.246 261.425 351.263ZM221.802 334.788H253.187V331.493C253.055 304.664 263.058 278.774 281.195 259.003C288.921 250.623 294.047 240.178 295.95 228.94C297.852 217.701 296.45 206.151 291.914 195.694C287.377 185.237 279.901 176.323 270.395 170.034C260.888 163.745 249.759 160.352 238.361 160.268C226.962 160.184 215.785 163.412 206.186 169.56C196.588 175.708 188.981 184.512 184.291 194.901C179.601 205.29 178.028 216.817 179.765 228.083C181.502 239.348 186.473 249.867 194.075 258.361C211.784 277.895 221.653 303.282 221.786 329.648L221.802 334.788Z" fill="white"/>
<path d="M261.952 376.915H214.175C211.99 376.915 209.895 376.047 208.35 374.502C206.805 372.957 205.938 370.862 205.938 368.677C205.938 366.493 206.805 364.397 208.35 362.853C209.895 361.308 211.99 360.44 214.175 360.44H261.952C264.137 360.44 266.232 361.308 267.777 362.853C269.322 364.397 270.19 366.493 270.19 368.677C270.19 370.862 269.322 372.957 267.777 374.502C266.232 376.047 264.137 376.915 261.952 376.915Z" fill="white"/>
<path d="M247.125 402.566H228.706C226.522 402.566 224.426 401.698 222.881 400.154C221.337 398.609 220.469 396.514 220.469 394.329C220.469 392.144 221.337 390.049 222.881 388.504C224.426 386.959 226.522 386.091 228.706 386.091H247.125C249.31 386.091 251.405 386.959 252.95 388.504C254.495 390.049 255.363 392.144 255.363 394.329C255.363 396.514 254.495 398.609 252.95 400.154C251.405 401.698 249.31 402.566 247.125 402.566Z" fill="white"/>
<path d="M248.772 273.93C247.68 273.93 246.632 273.496 245.86 272.723C245.087 271.951 244.653 270.903 244.653 269.811V221.374H228.706V269.811C228.706 270.903 228.272 271.951 227.499 272.723C226.727 273.496 225.679 273.93 224.587 273.93C223.495 273.93 222.447 273.496 221.674 272.723C220.902 271.951 220.468 270.903 220.468 269.811V221.374H205.723C204.747 221.36 203.792 221.088 202.955 220.584C202.119 220.081 201.431 219.364 200.962 218.508C200.175 217.087 199.743 215.497 199.703 213.874C199.663 212.25 200.016 210.641 200.731 209.183C200.838 208.993 200.96 208.811 201.094 208.639L217.849 186.167C218.409 185.11 219.301 184.267 220.387 183.767C221.474 183.266 222.695 183.138 223.862 183.4C226.729 184.108 228.656 187.156 228.656 190.978V213.087H244.604V192.362C244.604 188.424 246.614 185.36 249.546 184.751C250.738 184.529 251.969 184.707 253.048 185.259C254.126 185.81 254.992 186.703 255.51 187.798L273.303 208.689C273.567 209.002 273.783 209.351 273.946 209.727C274.546 211.174 274.803 212.741 274.697 214.304C274.591 215.867 274.126 217.385 273.336 218.738C272.85 219.533 272.17 220.191 271.361 220.652C270.551 221.113 269.638 221.361 268.707 221.374H252.792V269.811C252.792 270.886 252.372 271.919 251.621 272.689C250.87 273.459 249.847 273.904 248.772 273.93ZM252.891 213.137H266.367L252.891 197.321V213.137ZM208.013 213.137H220.468V196.514L208.013 213.137Z" fill="white"/>
<path d="M379.106 227.536H343.174C340.989 227.536 338.894 226.668 337.349 225.123C335.804 223.578 334.937 221.483 334.937 219.299C334.937 217.114 335.804 215.019 337.349 213.474C338.894 211.929 340.989 211.061 343.174 211.061H379.106C381.291 211.061 383.386 211.929 384.931 213.474C386.476 215.019 387.343 217.114 387.343 219.299C387.343 221.483 386.476 223.578 384.931 225.123C383.386 226.668 381.291 227.536 379.106 227.536Z" fill="white"/>
<path d="M347.952 327.753C346.868 327.753 345.795 327.539 344.794 327.124C343.793 326.708 342.884 326.099 342.119 325.332L316.715 299.927C315.928 299.167 315.301 298.258 314.869 297.253C314.437 296.248 314.21 295.167 314.201 294.074C314.191 292.98 314.399 291.895 314.814 290.883C315.228 289.87 315.839 288.951 316.613 288.177C317.386 287.404 318.306 286.792 319.318 286.378C320.331 285.964 321.416 285.755 322.509 285.765C323.603 285.774 324.684 286.002 325.689 286.433C326.694 286.865 327.603 287.493 328.363 288.279L353.767 313.684C354.921 314.835 355.708 316.302 356.027 317.901C356.347 319.499 356.185 321.156 355.563 322.663C354.94 324.169 353.884 325.457 352.53 326.363C351.175 327.269 349.582 327.753 347.952 327.753Z" fill="white"/>
<path d="M132.722 230.65H96.7902C94.6055 230.65 92.5103 229.782 90.9654 228.237C89.4206 226.692 88.5527 224.597 88.5527 222.412C88.5527 220.228 89.4206 218.132 90.9654 216.588C92.5103 215.043 94.6055 214.175 96.7902 214.175H132.722C134.907 214.175 137.002 215.043 138.547 216.588C140.092 218.132 140.96 220.228 140.96 222.412C140.96 224.597 140.092 226.692 138.547 228.237C137.002 229.782 134.907 230.65 132.722 230.65Z" fill="white"/>
<path d="M153.349 155.87C151.166 155.865 149.074 154.994 147.533 153.448L122.112 128.044C120.612 126.49 119.781 124.409 119.8 122.249C119.819 120.089 120.685 118.023 122.213 116.496C123.74 114.969 125.806 114.102 127.966 114.084C130.126 114.065 132.206 114.895 133.76 116.396L159.181 141.8C160.336 142.952 161.123 144.421 161.442 146.021C161.761 147.621 161.598 149.28 160.973 150.787C160.348 152.294 159.29 153.581 157.933 154.486C156.576 155.391 154.98 155.873 153.349 155.87Z" fill="white"/>
<path d="M127.945 330.884C126.313 330.887 124.718 330.405 123.36 329.5C122.003 328.595 120.945 327.308 120.32 325.801C119.696 324.294 119.532 322.635 119.851 321.035C120.171 319.435 120.957 317.966 122.112 316.814L147.533 291.41C148.304 290.645 149.217 290.039 150.221 289.627C151.225 289.216 152.301 289.006 153.386 289.009C154.472 289.013 155.546 289.231 156.547 289.65C157.549 290.069 158.458 290.681 159.222 291.451C159.987 292.221 160.593 293.134 161.005 294.139C161.416 295.143 161.626 296.218 161.623 297.304C161.619 298.389 161.401 299.463 160.982 300.465C160.563 301.466 159.951 302.375 159.181 303.14L133.76 328.478C132.216 330.018 130.125 330.883 127.945 330.884Z" fill="white"/>
<path d="M322.531 152.74C320.348 152.735 318.257 151.864 316.716 150.318C315.171 148.773 314.304 146.678 314.304 144.494C314.304 142.31 315.171 140.215 316.716 138.67L342.12 113.265C343.674 111.765 345.754 110.935 347.914 110.953C350.074 110.972 352.14 111.839 353.667 113.366C355.195 114.893 356.061 116.959 356.08 119.119C356.099 121.279 355.268 123.36 353.768 124.913L328.363 150.318C327.598 151.085 326.689 151.694 325.689 152.11C324.688 152.525 323.615 152.739 322.531 152.74Z" fill="white"/>
<path d="M237.239 116.626C235.055 116.626 232.959 115.759 231.415 114.214C229.87 112.669 229.002 110.574 229.002 108.389V72.4899C229.002 70.3052 229.87 68.21 231.415 66.6651C232.959 65.1203 235.055 64.2524 237.239 64.2524C239.424 64.2524 241.519 65.1203 243.064 66.6651C244.609 68.21 245.477 70.3052 245.477 72.4899V108.389C245.477 110.574 244.609 112.669 243.064 114.214C241.519 115.759 239.424 116.626 237.239 116.626Z" fill="white"/>
</svg>
