<svg width="529" height="529" viewBox="0 0 529 529" fill="none" xmlns="http://www.w3.org/2000/svg">
<path d="M262.709 409.655C259.238 409.655 255.785 409.487 252.37 409.244C236.367 384.268 224.707 356.763 217.882 327.896H262.671C265.146 327.896 267.52 326.913 269.27 325.163C271.019 323.413 272.003 321.039 272.003 318.565C272.003 316.09 271.019 313.716 269.27 311.966C267.52 310.217 265.146 309.233 262.671 309.233H214.038C208.986 279.625 208.986 249.375 214.038 219.767H311.38C313.881 234.565 315.13 249.548 315.112 264.556C315.112 267.031 316.095 269.404 317.845 271.154C319.595 272.904 321.969 273.887 324.443 273.887C326.918 273.887 329.292 272.904 331.042 271.154C332.791 269.404 333.775 267.031 333.775 264.556C333.769 249.559 332.602 234.584 330.285 219.767H400.716C405.417 234.231 407.81 249.346 407.808 264.556C407.808 267.031 408.791 269.404 410.541 271.154C412.291 272.904 414.664 273.887 417.139 273.887C419.614 273.887 421.987 272.904 423.737 271.154C425.487 269.404 426.47 267.031 426.47 264.556C426.488 245.045 422.998 225.689 416.168 207.412C416.168 207.114 415.963 206.815 415.851 206.535C404.079 175.422 383.115 148.631 355.745 129.723C328.376 110.816 295.899 100.689 262.634 100.689C229.369 100.689 196.892 110.816 169.523 129.723C142.153 148.631 121.189 175.422 109.417 206.535C109.292 206.82 109.186 207.113 109.1 207.412C95.3899 244.243 95.3899 284.776 109.1 321.607C109.189 321.898 109.295 322.185 109.417 322.465C120.231 350.915 138.739 375.801 162.874 394.344C187.01 412.887 215.823 424.358 246.099 427.477H246.342C251.754 428.025 257.228 428.299 262.765 428.299C265.24 428.299 267.613 427.315 269.363 425.566C271.113 423.816 272.096 421.442 272.096 418.967C272.096 416.493 271.113 414.119 269.363 412.369C267.613 410.619 265.24 409.636 262.765 409.636L262.709 409.655ZM195.077 309.233H124.645C115.19 280.161 115.19 248.839 124.645 219.767H195.077C190.424 249.407 190.424 279.593 195.077 309.233ZM393.251 201.104H326.814C320.777 173.959 310.832 147.833 297.29 123.544C317.984 128.669 337.301 138.27 353.881 151.67C370.462 165.071 383.901 181.946 393.251 201.104ZM273.048 119.756C289.095 144.711 300.764 172.222 307.554 201.104H217.882C224.707 172.237 236.367 144.732 252.37 119.756C255.785 119.513 259.238 119.345 262.709 119.345C266.18 119.345 269.632 119.438 273.048 119.756ZM228.109 123.488C214.566 147.775 204.627 173.901 198.604 201.048H132.166C141.519 181.901 154.958 165.037 171.534 151.646C188.111 138.255 207.423 128.663 228.109 123.544V123.488ZM132.166 327.896H198.604C204.62 355.048 214.566 381.176 228.128 405.456C207.431 400.337 188.111 390.739 171.53 377.337C154.949 363.936 141.512 347.058 132.166 327.896Z" fill="white"/>
<path d="M420.199 347.976L338.085 297.439C335.282 295.496 331.951 294.458 328.54 294.466C325.13 294.474 321.803 295.527 319.01 297.483C316.216 299.439 314.088 302.204 312.914 305.406C311.74 308.608 311.576 312.094 312.443 315.392L331.833 409.879C332.659 414.001 334.73 417.771 337.767 420.678C340.804 423.585 344.661 425.489 348.816 426.134C349.59 426.229 350.369 426.279 351.148 426.283C354.152 426.311 357.102 425.481 359.65 423.891C362.199 422.301 364.241 420.017 365.537 417.307L381.064 386.141L415.664 382.203C419.051 381.869 422.242 380.455 424.766 378.171C427.289 375.886 429.011 372.851 429.679 369.513C430.497 365.384 430.027 361.103 428.331 357.251C426.635 353.399 423.796 350.161 420.199 347.976ZM368.878 368.71L350.215 406.314V406.109L331.553 315.299L410.494 363.821L410.681 363.951L368.878 368.71Z" fill="white"/>
</svg>
