<svg width="449" height="449" viewBox="0 0 449 449" fill="none" xmlns="http://www.w3.org/2000/svg">
<path d="M169.123 298.314C166.315 298.303 163.573 297.462 161.241 295.898C158.909 294.333 157.091 292.115 156.015 289.521C154.939 286.928 154.653 284.074 155.193 281.318C155.732 278.563 157.074 276.028 159.049 274.032L303.018 129.999C304.319 128.578 305.895 127.436 307.649 126.641C309.404 125.847 311.301 125.416 313.227 125.375C315.153 125.334 317.067 125.683 318.854 126.402C320.641 127.121 322.263 128.195 323.624 129.559C324.984 130.922 326.054 132.548 326.769 134.336C327.484 136.125 327.829 138.04 327.783 139.965C327.738 141.891 327.302 143.787 326.503 145.54C325.704 147.293 324.559 148.865 323.135 150.163L179.166 294.133C176.502 296.799 172.892 298.303 169.123 298.314Z" fill="white"/>
<path d="M149.894 100.695L351.885 296.905L365.032 309.672L338.722 335.982L325.955 322.835L129.745 120.859L119.798 110.626L139.677 90.7631L149.894 100.695Z" fill="white"/>
<path d="M378.845 121.968C378.842 132.197 375.544 142.152 369.441 150.361C363.338 158.57 354.754 164.595 344.96 167.544C335.165 170.493 324.681 170.21 315.06 166.737C305.44 163.263 297.193 156.783 291.542 148.257C285.891 139.731 283.135 129.612 283.684 119.398C284.232 109.184 288.055 99.4181 294.587 91.5463C301.119 83.6745 310.012 78.1153 319.949 75.6919C329.887 73.2686 340.341 74.1098 349.763 78.091L317.56 110.31L344.488 137.238L375.962 105.763C377.861 110.955 378.837 116.44 378.845 121.968Z" fill="white"/>
<path d="M103.388 302.148C103.398 291.92 106.701 281.968 112.808 273.764C118.915 265.56 127.502 259.54 137.296 256.596C147.091 253.652 157.573 253.94 167.191 257.417C176.809 260.894 185.052 267.376 190.7 275.903C196.348 284.43 199.1 294.548 198.549 304.761C197.998 314.973 194.173 324.737 187.641 332.607C181.109 340.477 172.216 346.034 162.28 348.456C152.343 350.878 141.891 350.037 132.47 346.056L164.736 313.838L137.808 286.91L106.223 318.384C104.332 313.18 103.372 307.684 103.388 302.148Z" fill="white"/>
<path d="M103.109 145.799L162.663 86.2461C169.156 79.7524 177.964 76.1043 187.147 76.1043C196.331 76.1043 205.138 79.7524 211.632 86.2461L216.112 90.7263L132.108 174.73L103.143 145.766L103.109 145.799Z" fill="white"/>
<path d="M102.605 121.706L77.5605 146.75L131.11 200.3L156.155 175.256L102.605 121.706Z" fill="white"/>
</svg>
